<svg width="146" height="48" viewBox="0 0 146 48" fill="none" xmlns="http://www.w3.org/2000/svg">
<path fill-rule="evenodd" clip-rule="evenodd" d="M66.7931 6.48462C65.6766 6.48462 63.9984 6.74723 62.5526 7.58916C61.0442 8.46756 59.7635 10.0093 59.7635 12.4112V25.4359H62.2663V12.4112C62.2663 11.0732 62.9128 10.2787 63.8108 9.7557C64.7726 9.19558 65.9836 8.99087 66.7931 8.99087H67.1555V6.48462H66.7931Z" fill="#1E1E1F"/>
<path fill-rule="evenodd" clip-rule="evenodd" d="M72.227 0.5H69.7242V19.9545C69.7242 21.4307 70.0267 22.9036 71.1355 23.9727C72.2285 25.0268 73.846 25.436 75.8648 25.436H76.2272V22.9296H75.8648C74.1061 22.9296 73.2788 22.5601 72.8714 22.1674C72.4797 21.7896 72.227 21.1479 72.227 19.9545V9.45843H76.6732V6.95218H72.227V0.5Z" fill="#1E1E1F"/>
<path fill-rule="evenodd" clip-rule="evenodd" d="M121.034 0.5H118.531V19.9545C118.531 21.4307 118.834 22.9036 119.942 23.9727C121.035 25.0268 122.653 25.436 124.672 25.436H125.034V22.9296H124.672C122.913 22.9296 122.086 22.5601 121.678 22.1674C121.287 21.7896 121.034 21.1479 121.034 19.9545V9.45843H125.48V6.95218H121.034V0.5Z" fill="#1E1E1F"/>
<path fill-rule="evenodd" clip-rule="evenodd" d="M20.9942 6.48511C19.5622 6.4681 18.0734 6.89481 16.9149 7.83674C15.7242 8.80469 14.9409 10.2756 14.9409 12.1519V25.4359H17.4024V12.1519C17.4024 11.0812 17.8213 10.3425 18.4339 9.84452C19.0786 9.32036 19.9941 9.02502 20.966 9.03655C21.937 9.04808 22.8543 9.36463 23.5043 9.91864C24.1244 10.4471 24.5579 11.2342 24.5579 12.3784V25.4359H24.7758H27.0193H27.2373V12.1519C27.2373 11.0812 27.6562 10.3425 28.2688 9.84452C28.9135 9.32036 29.829 9.02502 30.801 9.03655C31.7718 9.04808 32.6893 9.36463 33.3392 9.91864C33.9593 10.4471 34.3928 11.2342 34.3928 12.3784V25.4359H36.8542V12.3784C36.8542 10.4635 36.0856 8.95608 34.9025 7.9477C33.7493 6.96472 32.2623 6.50212 30.8291 6.48511C29.3971 6.4681 27.9084 6.89481 26.7498 7.83674C26.4153 8.10863 26.113 8.42022 25.8511 8.76932C25.6178 8.46689 25.3549 8.19259 25.0676 7.9477C23.9144 6.96472 22.4273 6.50212 20.9942 6.48511Z" fill="#1E1E1F"/>
<path fill-rule="evenodd" clip-rule="evenodd" d="M6.58508 6.48462C4.21345 6.48462 2.54451 7.32201 1.478 8.46944C0.455902 9.56912 0.0575235 10.8746 0.00214443 11.7921L0 11.8277V11.8633C0 13.0821 0.299461 14.3422 1.36199 15.3936C2.3875 16.4083 3.95288 17.0559 6.06475 17.4446C7.04408 17.625 7.80791 17.7888 8.41316 17.9744C9.0193 18.1601 9.38341 18.3436 9.61219 18.5214C9.79506 18.6635 9.94574 18.8439 10.0445 19.1498C10.1473 19.4685 10.1971 19.9347 10.1417 20.6487C10.1144 20.9999 9.95397 21.547 9.49654 21.9924C9.07348 22.4045 8.25077 22.8726 6.58508 22.8726C4.94483 22.8726 4.04315 22.3817 3.53919 21.8998C3.01566 21.3991 2.81765 20.8083 2.78474 20.4655V18.3204H0V20.5525L0.00271186 20.5925C0.0623596 21.4709 0.4877 22.6779 1.53282 23.6774C2.61569 24.713 4.26928 25.4359 6.58508 25.4359C8.87522 25.4359 10.4814 24.7649 11.5202 23.7532C12.5248 22.7751 12.8585 21.6149 12.9194 20.8314C13.056 19.0694 12.7429 17.5998 11.4088 16.5629C10.8032 16.0921 10.0701 15.7805 9.2929 15.5423C8.51502 15.3039 7.60981 15.115 6.61088 14.9311C4.76652 14.5915 3.8591 14.1011 3.40093 13.6476C2.98579 13.2369 2.79084 12.7086 2.78488 11.9016C2.8205 11.4498 3.04342 10.7282 3.594 10.1358C4.11424 9.57612 5.00047 9.04793 6.58508 9.04793C8.22604 9.04793 9.06489 9.53767 9.5065 9.98932C9.9882 10.482 10.1382 11.0738 10.1382 11.408V13.6001H12.9229V11.408C12.9229 10.5287 12.5786 9.29953 11.5764 8.27456C10.5341 7.20851 8.9 6.48462 6.58508 6.48462Z" fill="#1E1E1F"/>
<path fill-rule="evenodd" clip-rule="evenodd" d="M47.0788 8.98989V6.48462L46.7009 6.50078C41.7773 6.71135 37.8503 10.7748 37.8503 15.7569C37.8503 20.8737 41.9925 25.0216 47.1022 25.0216C49.7642 25.0216 52.1637 23.8959 53.8516 22.0938L53.8443 25.4359H56.347L56.3544 15.3909H56.347C56.292 13.9709 55.9175 12.6321 55.2933 11.4453L55.1177 11.1114L52.951 12.3642L53.1087 12.6716C53.5833 13.5962 53.8514 14.6447 53.8514 15.7569C53.8514 19.4895 50.8297 22.5154 47.1022 22.5154C43.3748 22.5154 40.3531 19.4895 40.3531 15.7569C40.3531 12.1475 43.1789 9.1987 46.7358 9.00826L47.0788 8.98989Z" fill="#1E1E1F"/>
<path fill-rule="evenodd" clip-rule="evenodd" d="M116.111 15.3847C115.92 10.4369 111.853 6.48462 106.866 6.48462C101.756 6.48462 97.6138 10.6326 97.6138 15.7494C97.6138 20.8662 101.756 25.0141 106.866 25.0141C109.528 25.0141 111.927 23.8883 113.615 22.0863V25.4359H116.118V15.3847H116.111ZM113.615 15.7494C113.615 12.0168 110.593 8.99087 106.866 8.99087C103.138 8.99087 100.117 12.0168 100.117 15.7494C100.117 19.482 103.138 22.5078 106.866 22.5078C110.593 22.5078 113.615 19.482 113.615 15.7494Z" fill="#1E1E1F"/>
<path fill-rule="evenodd" clip-rule="evenodd" d="M145.993 15.3847C145.801 10.4369 141.735 6.48462 136.748 6.48462C131.638 6.48462 127.496 10.6326 127.496 15.7494C127.496 20.8662 131.638 25.0141 136.748 25.0141C139.41 25.0141 141.809 23.8883 143.497 22.0863V25.4359H146V15.3847H145.993ZM143.497 15.7494C143.497 12.0168 140.475 8.99087 136.748 8.99087C133.02 8.99087 129.998 12.0168 129.998 15.7494C129.998 19.482 133.02 22.5078 136.748 22.5078C140.475 22.5078 143.497 19.482 143.497 15.7494Z" fill="#1E1E1F"/>
<path fill-rule="evenodd" clip-rule="evenodd" d="M95.6344 0.5H93.1316V8.09339C91.7932 7.34007 89.5845 6.91044 87.9405 6.91044C82.8309 6.91044 78.6887 11.0584 78.6887 16.1752C78.6887 21.292 82.8309 25.4399 87.9405 25.4399C89.5845 25.4399 91.7932 25.0102 93.1316 24.257V25.4386H95.6344V0.5ZM93.1316 21.1879V11.1624C91.9341 10.0772 89.6827 9.41669 87.9405 9.41669C84.2131 9.41669 81.1915 12.4426 81.1915 16.1752C81.1915 19.9078 84.2131 22.9336 87.9405 22.9336C89.6827 22.9336 91.9341 22.2731 93.1316 21.1879Z" fill="#1E1E1F"/>
<path d="M57.7496 8.20638L48.9158 13.3136V3.09912L57.7496 8.20638Z" fill="#238ACB"/>
<path d="M4.99357 42.8116C4.99357 43.1662 4.90858 43.496 4.73858 43.8011C4.56859 44.106 4.31006 44.3543 3.96298 44.5458C3.61592 44.7373 3.18739 44.8331 2.6774 44.8331C2.18159 44.8331 1.7389 44.7443 1.34932 44.5671C0.966838 44.3826 0.658727 44.1344 0.424985 43.8223C0.198326 43.5032 0.067289 43.1414 0.0318739 42.7371H1.06246C1.08371 42.9499 1.15454 43.1591 1.27495 43.3648C1.40245 43.5634 1.57953 43.7301 1.80618 43.8649C2.03993 43.9926 2.31971 44.0564 2.64553 44.0564C3.07052 44.0564 3.39634 43.9429 3.623 43.7159C3.84966 43.4889 3.96298 43.1981 3.96298 42.8435C3.96298 42.5385 3.88154 42.2903 3.71862 42.0988C3.5628 41.9073 3.36801 41.7583 3.13426 41.6519C2.90052 41.5384 2.58178 41.4178 2.17805 41.2902C1.70349 41.1341 1.321 40.9887 1.03059 40.854C0.747266 40.712 0.502899 40.5029 0.29749 40.2262C0.0991629 39.9496 0 39.5843 0 39.1304C0 38.7402 0.0920795 38.3963 0.276241 38.0984C0.467484 37.8005 0.736641 37.5699 1.08371 37.4068C1.43787 37.2436 1.85223 37.1621 2.32679 37.1621C3.06344 37.1621 3.64779 37.343 4.07986 37.7047C4.51193 38.0593 4.76338 38.5133 4.8342 39.0666H3.79299C3.73633 38.7687 3.58405 38.5062 3.33613 38.2792C3.08823 38.0522 2.75178 37.9388 2.32679 37.9388C1.93723 37.9388 1.62556 38.0416 1.39182 38.2473C1.15808 38.4459 1.04121 38.7296 1.04121 39.0985C1.04121 39.3892 1.11558 39.6268 1.26433 39.8113C1.42016 39.9886 1.6114 40.1305 1.83806 40.2369C2.06472 40.3361 2.37638 40.4497 2.77303 40.5773C3.25468 40.7333 3.64071 40.8823 3.93111 41.0242C4.2286 41.166 4.48005 41.3823 4.68546 41.6732C4.89088 41.9568 4.99357 42.3363 4.99357 42.8116Z" fill="#1E1E1F"/>
<path d="M8.93991 38.843C9.49946 38.843 9.99882 38.9636 10.438 39.2048C10.8842 39.4458 11.2313 39.7934 11.4792 40.2474C11.7341 40.7013 11.8616 41.2333 11.8616 41.8433C11.8616 42.4533 11.7341 42.9852 11.4792 43.4392C11.2313 43.8861 10.8842 44.23 10.438 44.4712C9.99882 44.7123 9.49946 44.833 8.93991 44.833C8.38034 44.833 7.87744 44.7123 7.43121 44.4712C6.99205 44.23 6.64499 43.8861 6.38999 43.4392C6.135 42.9852 6.00751 42.4533 6.00751 41.8433C6.00751 41.2333 6.135 40.7013 6.38999 40.2474C6.64499 39.7934 6.99205 39.4458 7.43121 39.2048C7.87744 38.9636 8.38034 38.843 8.93991 38.843ZM8.93991 39.6942C8.59283 39.6942 8.27055 39.7721 7.97306 39.9282C7.68265 40.0842 7.44537 40.3254 7.26121 40.6517C7.08413 40.9709 6.9956 41.3681 6.9956 41.8433C6.9956 42.3114 7.08413 42.7086 7.26121 43.0349C7.44537 43.3541 7.68265 43.5917 7.97306 43.7477C8.27055 43.9037 8.59283 43.9818 8.93991 43.9818C9.28697 43.9818 9.60571 43.9037 9.89612 43.7477C10.1936 43.5917 10.4309 43.3541 10.6079 43.0349C10.7922 42.7086 10.8842 42.3114 10.8842 41.8433C10.8842 41.3681 10.7922 40.9709 10.6079 40.6517C10.4309 40.3254 10.1936 40.0842 9.89612 39.9282C9.60571 39.7721 9.28697 39.6942 8.93991 39.6942Z" fill="#1E1E1F"/>
<path d="M15.7004 37.5345C15.1834 37.5274 14.8222 37.616 14.6167 37.8005C14.4184 37.9849 14.3192 38.3041 14.3192 38.7581V38.9176H15.7004V39.7688H14.3192V44.7586H13.3523V39.7688H12.513V38.9176H13.3523V38.6836C13.3523 37.2862 14.1351 36.6195 15.7004 36.6834V37.5345Z" fill="#1E1E1F"/>
<path d="M29.5657 38.8928L27.887 44.7338H26.8458L25.2415 39.978L23.6265 44.7338H22.5747L20.9172 38.8928H21.8946L23.1377 43.8082L24.7526 38.8928H25.7621L27.3876 43.7976L28.6412 38.8928H29.5657Z" fill="#1E1E1F"/>
<path d="M32.8549 38.8184C33.4216 38.8184 33.8997 38.9603 34.2892 39.2439C34.6859 39.5277 34.9622 39.9072 35.1179 40.3823V38.8928H36.0848V44.7338H35.1179V43.2443C34.9622 43.7196 34.6859 44.0991 34.2892 44.3827C33.8997 44.6665 33.4216 44.8083 32.8549 44.8083C32.3379 44.8083 31.8774 44.6878 31.4737 44.4466C31.07 44.2055 30.7512 43.8614 30.5175 43.4146C30.2909 42.9607 30.1775 42.4287 30.1775 41.8187C30.1775 41.2087 30.2909 40.6767 30.5175 40.2228C30.7512 39.7689 31.07 39.4213 31.4737 39.1801C31.8774 38.939 32.3379 38.8184 32.8549 38.8184ZM33.1311 39.6801C32.5362 39.6801 32.058 39.8717 31.6968 40.2547C31.3427 40.6307 31.1656 41.152 31.1656 41.8187C31.1656 42.4854 31.3427 43.0103 31.6968 43.3933C32.058 43.7693 32.5362 43.9572 33.1311 43.9572C33.5136 43.9572 33.8536 43.8685 34.1511 43.6912C34.4557 43.5139 34.693 43.2656 34.863 42.9464C35.0329 42.6202 35.1179 42.2442 35.1179 41.8187C35.1179 41.3931 35.0329 41.0172 34.863 40.6909C34.693 40.3647 34.4557 40.1164 34.1511 39.9461C33.8536 39.7689 33.5136 39.6801 33.1311 39.6801Z" fill="#1E1E1F"/>
<path d="M38.5992 40.0738C38.7905 39.6695 39.0702 39.3575 39.4386 39.1376C39.8069 38.9106 40.246 38.7971 40.756 38.7971V39.8504H40.4585C39.9132 39.8504 39.4669 39.9923 39.1198 40.276C38.7727 40.5526 38.5992 41.0137 38.5992 41.6591V44.7339H37.6324V38.8929H38.5992V40.0738Z" fill="#1E1E1F"/>
<path d="M47.0666 41.4888C47.0666 41.6946 47.0525 41.8718 47.0241 42.0208H42.3599C42.3811 42.6876 42.5689 43.1876 42.923 43.5209C43.2842 43.8544 43.7234 44.021 44.2405 44.021C44.7079 44.021 45.0976 43.904 45.4092 43.6699C45.7279 43.4288 45.9227 43.1096 45.9935 42.7124H47.0241C46.9532 43.1167 46.7939 43.4784 46.546 43.7976C46.3051 44.1167 45.99 44.3651 45.6004 44.5423C45.2108 44.7197 44.7717 44.8083 44.283 44.8083C43.7234 44.8083 43.2276 44.6878 42.7955 44.4466C42.3634 44.2055 42.0234 43.8614 41.7755 43.4146C41.5347 42.9607 41.4143 42.4287 41.4143 41.8187C41.4143 41.2087 41.5347 40.6767 41.7755 40.2228C42.0234 39.7689 42.3634 39.4213 42.7955 39.1801C43.2276 38.939 43.7234 38.8184 44.283 38.8184C44.8496 38.8184 45.3419 38.939 45.7598 39.1801C46.1848 39.4213 46.507 39.744 46.7266 40.1483C46.9532 40.5526 47.0666 40.9994 47.0666 41.4888ZM46.0891 41.5527C46.1104 41.1201 46.0395 40.7583 45.8767 40.4675C45.7138 40.1767 45.4907 39.9604 45.2073 39.8185C44.9239 39.6766 44.6158 39.6057 44.283 39.6057C43.7517 39.6057 43.3055 39.7724 42.9443 40.1057C42.583 40.432 42.3883 40.9143 42.3599 41.5527H46.0891Z" fill="#1E1E1F"/>
<path d="M57.2735 40.978C57.2735 41.737 57.1212 42.4001 56.8166 42.9675C56.5121 43.5279 56.0623 43.9641 55.4673 44.2762C54.8794 44.5812 54.1711 44.7336 53.3424 44.7336H50.9625V37.2329H53.3424C54.1711 37.2329 54.8794 37.3855 55.4673 37.6904C56.0623 37.9883 56.5121 38.421 56.8166 38.9884C57.1212 39.5488 57.2735 40.2119 57.2735 40.978ZM53.268 43.8612C54.2455 43.8612 54.9928 43.6095 55.5098 43.1058C56.0269 42.6023 56.2854 41.8929 56.2854 40.978C56.2854 40.063 56.0269 39.3538 55.5098 38.8501C54.9998 38.3394 54.2526 38.0841 53.268 38.0841H51.9293V43.8612H53.268Z" fill="#1E1E1F"/>
<path d="M63.9373 41.4888C63.9373 41.6946 63.9232 41.8718 63.8948 42.0208H59.2306C59.2519 42.6876 59.4396 43.1876 59.7937 43.5209C60.155 43.8544 60.5941 44.021 61.1112 44.021C61.5787 44.021 61.9683 43.904 62.2799 43.6699C62.5986 43.4288 62.7934 43.1096 62.8642 42.7124H63.8948C63.824 43.1167 63.6646 43.4784 63.4167 43.7976C63.1759 44.1167 62.8607 44.3651 62.4711 44.5423C62.0815 44.7197 61.6424 44.8083 61.1537 44.8083C60.5941 44.8083 60.0983 44.6878 59.6662 44.4466C59.2341 44.2055 58.8941 43.8614 58.6463 43.4146C58.4054 42.9607 58.285 42.4287 58.285 41.8187C58.285 41.2087 58.4054 40.6767 58.6463 40.2228C58.8941 39.7689 59.2341 39.4213 59.6662 39.1801C60.0983 38.939 60.5941 38.8184 61.1537 38.8184C61.7203 38.8184 62.2126 38.939 62.6305 39.1801C63.0555 39.4213 63.3777 39.744 63.5974 40.1483C63.824 40.5526 63.9373 40.9994 63.9373 41.4888ZM62.9599 41.5527C62.9811 41.1201 62.9103 40.7583 62.7474 40.4675C62.5845 40.1767 62.3614 39.9604 62.078 39.8185C61.7947 39.6766 61.4866 39.6057 61.1537 39.6057C60.6225 39.6057 60.1762 39.7724 59.815 40.1057C59.4537 40.432 59.259 40.9143 59.2306 41.5527H62.9599Z" fill="#1E1E1F"/>
<path d="M67.4724 43.7018L69.2786 38.8928H70.3198L68.0355 44.7338H66.8881L64.6038 38.8928H65.645L67.4724 43.7018Z" fill="#1E1E1F"/>
<path d="M76.6371 41.4888C76.6371 41.6946 76.6229 41.8718 76.5946 42.0208H71.9304C71.9516 42.6876 72.1393 43.1876 72.4935 43.5209C72.8547 43.8544 73.2939 44.021 73.811 44.021C74.2784 44.021 74.6679 43.904 74.9797 43.6699C75.2984 43.4288 75.4932 43.1096 75.564 42.7124H76.5946C76.5237 43.1167 76.3644 43.4784 76.1165 43.7976C75.8756 44.1167 75.5604 44.3651 75.1709 44.5423C74.7813 44.7197 74.3422 44.8083 73.8535 44.8083C73.2939 44.8083 72.798 44.6878 72.366 44.4466C71.9339 44.2055 71.5939 43.8614 71.346 43.4146C71.1052 42.9607 70.9848 42.4287 70.9848 41.8187C70.9848 41.2087 71.1052 40.6767 71.346 40.2228C71.5939 39.7689 71.9339 39.4213 72.366 39.1801C72.798 38.939 73.2939 38.8184 73.8535 38.8184C74.4201 38.8184 74.9123 38.939 75.3303 39.1801C75.7553 39.4213 76.0775 39.744 76.2971 40.1483C76.5237 40.5526 76.6371 40.9994 76.6371 41.4888ZM75.6596 41.5527C75.6809 41.1201 75.61 40.7583 75.4471 40.4675C75.2842 40.1767 75.061 39.9604 74.7778 39.8185C74.4944 39.6766 74.1863 39.6057 73.8535 39.6057C73.3222 39.6057 72.876 39.7724 72.5148 40.1057C72.1535 40.432 71.9587 40.9143 71.9304 41.5527H75.6596Z" fill="#1E1E1F"/>
<path d="M78.8618 36.8606V44.7337H77.895V36.8606H78.8618Z" fill="#1E1E1F"/>
<path d="M83.0685 38.8184C83.6281 38.8184 84.1275 38.939 84.5666 39.1801C85.0128 39.4213 85.3599 39.7689 85.6078 40.2228C85.8628 40.6767 85.9903 41.2087 85.9903 41.8187C85.9903 42.4287 85.8628 42.9607 85.6078 43.4146C85.3599 43.8614 85.0128 44.2055 84.5666 44.4466C84.1275 44.6878 83.6281 44.8083 83.0685 44.8083C82.509 44.8083 82.006 44.6878 81.5598 44.4466C81.1207 44.2055 80.7736 43.8614 80.5186 43.4146C80.2636 42.9607 80.1361 42.4287 80.1361 41.8187C80.1361 41.2087 80.2636 40.6767 80.5186 40.2228C80.7736 39.7689 81.1207 39.4213 81.5598 39.1801C82.006 38.939 82.509 38.8184 83.0685 38.8184ZM83.0685 39.6695C82.7215 39.6695 82.3992 39.7476 82.1017 39.9036C81.8113 40.0596 81.574 40.3008 81.3898 40.627C81.2128 40.9462 81.1242 41.3435 81.1242 41.8187C81.1242 42.2868 81.2128 42.6841 81.3898 43.0103C81.574 43.3294 81.8113 43.5671 82.1017 43.7231C82.3992 43.8792 82.7215 43.9572 83.0685 43.9572C83.4156 43.9572 83.7344 43.8792 84.0247 43.7231C84.3222 43.5671 84.5596 43.3294 84.7366 43.0103C84.9208 42.6841 85.0128 42.2868 85.0128 41.8187C85.0128 41.3435 84.9208 40.9462 84.7366 40.627C84.5596 40.3008 84.3222 40.0596 84.0247 39.9036C83.7344 39.7476 83.4156 39.6695 83.0685 39.6695Z" fill="#1E1E1F"/>
<path d="M90.4679 38.8184C90.985 38.8184 91.4453 38.939 91.8491 39.1801C92.2528 39.4213 92.568 39.7689 92.7947 40.2228C93.0284 40.6767 93.1453 41.2087 93.1453 41.8187C93.1453 42.4287 93.0284 42.9607 92.7947 43.4146C92.568 43.8614 92.2528 44.2055 91.8491 44.4466C91.4453 44.6878 90.985 44.8083 90.4679 44.8083C89.9012 44.8083 89.4196 44.6665 89.0229 44.3827C88.6334 44.092 88.3642 43.7125 88.2154 43.2443V47.5001H87.2486V38.8928H88.2154V40.3823C88.3642 39.9142 88.6334 39.5383 89.0229 39.2546C89.4196 38.9638 89.9012 38.8184 90.4679 38.8184ZM90.1916 39.6801C89.8163 39.6801 89.4763 39.7689 89.1717 39.9461C88.8672 40.1164 88.6298 40.3647 88.4598 40.6909C88.2898 41.0172 88.2048 41.3931 88.2048 41.8187C88.2048 42.2442 88.2898 42.6202 88.4598 42.9464C88.6298 43.2656 88.8672 43.5139 89.1717 43.6912C89.4763 43.8685 89.8163 43.9572 90.1916 43.9572C90.7937 43.9572 91.2718 43.7693 91.6259 43.3933C91.9872 43.0103 92.1678 42.4854 92.1678 41.8187C92.1678 41.152 91.9872 40.6307 91.6259 40.2547C91.2718 39.8717 90.7937 39.6801 90.1916 39.6801Z" fill="#1E1E1F"/>
<path d="M101.579 38.7971C102.259 38.7971 102.805 39.017 103.216 39.4568C103.633 39.8895 103.842 40.5172 103.842 41.3399V44.7339H102.876V41.425C102.876 40.8505 102.734 40.4108 102.451 40.1058C102.174 39.8008 101.792 39.6483 101.303 39.6483C100.793 39.6483 100.382 39.8185 100.071 40.159C99.7661 40.4924 99.6138 40.9853 99.6138 41.6378V44.7339H98.647V41.425C98.647 40.8505 98.5054 40.4108 98.222 40.1058C97.9387 39.8008 97.5562 39.6483 97.0746 39.6483C96.5575 39.6483 96.1431 39.8185 95.8315 40.159C95.5269 40.4924 95.3746 40.9853 95.3746 41.6378V44.7339H94.4078V38.8929H95.3746V40.2228C95.5162 39.7618 95.7677 39.4107 96.129 39.1695C96.4973 38.9213 96.9187 38.7971 97.3933 38.7971C97.8891 38.7971 98.3176 38.9248 98.6789 39.1801C99.0472 39.4285 99.3092 39.7972 99.4651 40.2866C99.628 39.8115 99.9007 39.4461 100.283 39.1908C100.666 38.9284 101.098 38.7971 101.579 38.7971Z" fill="#1E1E1F"/>
<path d="M110.705 41.4888C110.705 41.6946 110.691 41.8718 110.663 42.0208H105.999C106.02 42.6876 106.208 43.1876 106.562 43.5209C106.923 43.8544 107.363 44.021 107.879 44.021C108.347 44.021 108.737 43.904 109.048 43.6699C109.367 43.4288 109.562 43.1096 109.632 42.7124H110.663C110.593 43.1167 110.433 43.4784 110.185 43.7976C109.945 44.1167 109.629 44.3651 109.239 44.5423C108.85 44.7197 108.41 44.8083 107.922 44.8083C107.363 44.8083 106.867 44.6878 106.434 44.4466C106.002 44.2055 105.662 43.8614 105.414 43.4146C105.174 42.9607 105.053 42.4287 105.053 41.8187C105.053 41.2087 105.174 40.6767 105.414 40.2228C105.662 39.7689 106.002 39.4213 106.434 39.1801C106.867 38.939 107.363 38.8184 107.922 38.8184C108.489 38.8184 108.981 38.939 109.398 39.1801C109.823 39.4213 110.146 39.744 110.365 40.1483C110.593 40.5526 110.705 40.9994 110.705 41.4888ZM109.728 41.5527C109.749 41.1201 109.679 40.7583 109.515 40.4675C109.353 40.1767 109.13 39.9604 108.846 39.8185C108.563 39.6766 108.255 39.6057 107.922 39.6057C107.39 39.6057 106.944 39.7724 106.583 40.1057C106.222 40.432 106.027 40.9143 105.999 41.5527H109.728Z" fill="#1E1E1F"/>
<path d="M115.042 38.7971C115.722 38.7971 116.271 39.017 116.688 39.4568C117.107 39.8895 117.315 40.5172 117.315 41.3399V44.7339H116.348V41.425C116.348 40.8435 116.2 40.3966 115.902 40.0845C115.605 39.7724 115.201 39.6163 114.691 39.6163C114.16 39.6163 113.735 39.7902 113.416 40.1377C113.097 40.4781 112.938 40.9782 112.938 41.6378V44.7339H111.971V38.8929H112.938V40.276C113.087 39.8008 113.349 39.4355 113.724 39.1801C114.107 38.9248 114.546 38.7971 115.042 38.7971Z" fill="#1E1E1F"/>
<path d="M121.58 43.8825V44.7336H120.858C120.263 44.7336 119.816 44.5918 119.519 44.3081C119.229 44.0244 119.083 43.5492 119.083 42.8824V39.7332H118.212V38.8927H119.083V37.4351H120.061V38.8927H121.569V39.7332H120.061V42.9037C120.061 43.2797 120.129 43.5385 120.263 43.6804C120.405 43.8152 120.645 43.8825 120.985 43.8825H121.58Z" fill="#1E1E1F"/>
<path d="M19.9431 43.9233V44.7744H19.2206C18.6256 44.7744 18.1794 44.6325 17.8819 44.3488C17.5915 44.0651 17.4463 43.5898 17.4463 42.9232V39.7739H16.5751V38.9334H17.4463V37.4758H18.4238V38.9334H19.9325V39.7739H18.4238V42.9445C18.4238 43.3203 18.491 43.5792 18.6256 43.7211C18.7673 43.8558 19.0081 43.9233 19.3481 43.9233H19.9431Z" fill="#1E1E1F"/>
</svg>
