<svg width="680" height="186" viewBox="0 0 680 186" fill="none" xmlns="http://www.w3.org/2000/svg">
<path d="M15.9506 41.384L10.6726 37.856V36.848L15.9506 33.32V34.622L11.8626 37.324V37.38L15.9506 40.082V41.384ZM18.1291 42V35.154H19.2211L19.3331 36.05H19.3611C19.5291 35.742 19.7298 35.49 19.9631 35.294C20.1965 35.0887 20.5091 34.986 20.9011 34.986C21.2278 34.986 21.4985 35.084 21.7131 35.28C21.9278 35.476 22.0771 35.77 22.1611 36.162C22.3478 35.8073 22.5578 35.5227 22.7911 35.308C23.0338 35.0933 23.3511 34.986 23.7431 34.986C24.2285 34.986 24.6018 35.1727 24.8631 35.546C25.1338 35.9193 25.2691 36.4467 25.2691 37.128V42H23.9111V37.226C23.9111 36.526 23.7011 36.176 23.2811 36.176C23.0758 36.176 22.9031 36.2553 22.7631 36.414C22.6231 36.5727 22.4691 36.8107 22.3011 37.128V42H21.0971V37.226C21.0971 36.8807 21.0458 36.6193 20.9431 36.442C20.8498 36.2647 20.6958 36.176 20.4811 36.176C20.2758 36.176 20.0938 36.2553 19.9351 36.414C19.7858 36.5727 19.6365 36.8107 19.4871 37.128V42H18.1291ZM30.4157 42.168C29.725 42.168 29.095 42.028 28.5257 41.748C27.9657 41.468 27.5223 41.0573 27.1957 40.516C26.869 39.9747 26.7057 39.326 26.7057 38.57C26.7057 37.8233 26.869 37.184 27.1957 36.652C27.5317 36.12 27.9657 35.7093 28.4977 35.42C29.0297 35.1307 29.599 34.986 30.2057 34.986C30.8777 34.986 31.447 35.126 31.9137 35.406C32.3803 35.6767 32.735 36.0547 32.9777 36.54C33.2297 37.016 33.3557 37.576 33.3557 38.22C33.3557 38.36 33.351 38.5 33.3417 38.64C33.3323 38.7707 33.3183 38.8827 33.2997 38.976H27.6717V37.954H32.4317L32.1237 38.29C32.1237 37.5527 31.9557 37.002 31.6197 36.638C31.2837 36.2647 30.8263 36.078 30.2477 36.078C29.8463 36.078 29.4777 36.176 29.1417 36.372C28.815 36.5587 28.5537 36.8387 28.3577 37.212C28.1617 37.576 28.0637 38.0287 28.0637 38.57C28.0637 39.13 28.171 39.5967 28.3857 39.97C28.6097 40.334 28.9083 40.6093 29.2817 40.796C29.6643 40.9827 30.103 41.076 30.5977 41.076C30.9803 41.076 31.3303 41.0247 31.6477 40.922C31.965 40.81 32.2777 40.6607 32.5857 40.474L33.0757 41.356C32.7303 41.5893 32.3337 41.7853 31.8857 41.944C31.4377 42.0933 30.9477 42.168 30.4157 42.168ZM39.6922 42.168C39.0015 42.168 38.4555 42.0467 38.0542 41.804C37.6622 41.5613 37.3822 41.2253 37.2142 40.796C37.0462 40.3667 36.9622 39.8673 36.9622 39.298V36.274H35.0862V35.238L37.0182 35.154L37.2002 32.998H38.3482V35.154H41.5822V36.274H38.3482V39.298C38.3482 39.6807 38.3995 40.0073 38.5022 40.278C38.6049 40.5393 38.7775 40.7353 39.0202 40.866C39.2629 40.9873 39.5895 41.048 40.0002 41.048C40.3082 41.048 40.5882 41.0247 40.8402 40.978C41.0922 40.922 41.3349 40.852 41.5682 40.768L41.8482 41.776C41.5402 41.8787 41.2089 41.9673 40.8542 42.042C40.5089 42.126 40.1215 42.168 39.6922 42.168ZM45.9587 42.168C45.5201 42.168 45.1234 42.0887 44.7687 41.93C44.4234 41.762 44.1481 41.5333 43.9427 41.244C43.7467 40.9453 43.6487 40.5953 43.6487 40.194C43.6487 39.4287 44.0221 38.8453 44.7687 38.444C45.5247 38.0427 46.7614 37.7767 48.4787 37.646C48.4694 37.366 48.4041 37.1093 48.2827 36.876C48.1707 36.6427 47.9887 36.4607 47.7367 36.33C47.4941 36.19 47.1721 36.12 46.7707 36.12C46.4907 36.12 46.2154 36.1573 45.9447 36.232C45.6741 36.2973 45.4127 36.3907 45.1607 36.512C44.9087 36.6333 44.6707 36.7593 44.4467 36.89L43.9287 35.952C44.1807 35.8027 44.4701 35.6533 44.7967 35.504C45.1234 35.3453 45.4734 35.2193 45.8467 35.126C46.2294 35.0327 46.6167 34.986 47.0087 34.986C47.6434 34.986 48.1707 35.1027 48.5907 35.336C49.0107 35.5693 49.3281 35.9007 49.5427 36.33C49.7574 36.7593 49.8647 37.2773 49.8647 37.884V42H48.7307L48.6187 41.118H48.5767C48.2127 41.398 47.8021 41.6453 47.3447 41.86C46.8874 42.0653 46.4254 42.168 45.9587 42.168ZM46.3507 41.062C46.7147 41.062 47.0741 40.9827 47.4287 40.824C47.7834 40.6653 48.1334 40.4413 48.4787 40.152V38.528C47.5827 38.5933 46.8781 38.696 46.3647 38.836C45.8607 38.976 45.5061 39.1533 45.3007 39.368C45.0954 39.5733 44.9927 39.816 44.9927 40.096C44.9927 40.32 45.0534 40.5067 45.1747 40.656C45.3054 40.796 45.4734 40.8987 45.6787 40.964C45.8841 41.0293 46.1081 41.062 46.3507 41.062Z" fill="#D29955"/>
<path d="M60.6058 42V35.154H61.7398L61.8518 36.26H61.9078C62.2531 35.9053 62.6264 35.6067 63.0278 35.364C63.4291 35.112 63.8958 34.986 64.4278 34.986C65.2211 34.986 65.8044 35.2287 66.1778 35.714C66.5604 36.19 66.7518 36.8713 66.7518 37.758V42H65.3658V37.94C65.3658 37.3427 65.2538 36.904 65.0298 36.624C64.8151 36.3347 64.4511 36.19 63.9378 36.19C63.5738 36.19 63.2471 36.2833 62.9578 36.47C62.6684 36.6473 62.3464 36.918 61.9918 37.282V42H60.6058ZM71.1423 42.168C70.7036 42.168 70.307 42.0887 69.9523 41.93C69.607 41.762 69.3316 41.5333 69.1263 41.244C68.9303 40.9453 68.8323 40.5953 68.8323 40.194C68.8323 39.4287 69.2056 38.8453 69.9523 38.444C70.7083 38.0427 71.945 37.7767 73.6623 37.646C73.653 37.366 73.5876 37.1093 73.4663 36.876C73.3543 36.6427 73.1723 36.4607 72.9203 36.33C72.6776 36.19 72.3556 36.12 71.9543 36.12C71.6743 36.12 71.399 36.1573 71.1283 36.232C70.8576 36.2973 70.5963 36.3907 70.3443 36.512C70.0923 36.6333 69.8543 36.7593 69.6303 36.89L69.1123 35.952C69.3643 35.8027 69.6536 35.6533 69.9803 35.504C70.307 35.3453 70.657 35.2193 71.0303 35.126C71.413 35.0327 71.8003 34.986 72.1923 34.986C72.827 34.986 73.3543 35.1027 73.7743 35.336C74.1943 35.5693 74.5116 35.9007 74.7263 36.33C74.941 36.7593 75.0483 37.2773 75.0483 37.884V42H73.9143L73.8023 41.118H73.7603C73.3963 41.398 72.9856 41.6453 72.5283 41.86C72.071 42.0653 71.609 42.168 71.1423 42.168ZM71.5343 41.062C71.8983 41.062 72.2576 40.9827 72.6123 40.824C72.967 40.6653 73.317 40.4413 73.6623 40.152V38.528C72.7663 38.5933 72.0616 38.696 71.5483 38.836C71.0443 38.976 70.6896 39.1533 70.4843 39.368C70.279 39.5733 70.1763 39.816 70.1763 40.096C70.1763 40.32 70.237 40.5067 70.3583 40.656C70.489 40.796 70.657 40.8987 70.8623 40.964C71.0676 41.0293 71.2916 41.062 71.5343 41.062ZM76.8908 42V35.154H77.9828L78.0948 36.05H78.1228C78.2908 35.742 78.4915 35.49 78.7248 35.294C78.9582 35.0887 79.2708 34.986 79.6628 34.986C79.9895 34.986 80.2602 35.084 80.4748 35.28C80.6895 35.476 80.8388 35.77 80.9228 36.162C81.1095 35.8073 81.3195 35.5227 81.5528 35.308C81.7955 35.0933 82.1128 34.986 82.5048 34.986C82.9902 34.986 83.3635 35.1727 83.6248 35.546C83.8955 35.9193 84.0308 36.4467 84.0308 37.128V42H82.6728V37.226C82.6728 36.526 82.4628 36.176 82.0428 36.176C81.8375 36.176 81.6648 36.2553 81.5248 36.414C81.3848 36.5727 81.2308 36.8107 81.0628 37.128V42H79.8588V37.226C79.8588 36.8807 79.8075 36.6193 79.7048 36.442C79.6115 36.2647 79.4575 36.176 79.2428 36.176C79.0375 36.176 78.8555 36.2553 78.6968 36.414C78.5475 36.5727 78.3982 36.8107 78.2488 37.128V42H76.8908ZM89.1774 42.168C88.4867 42.168 87.8567 42.028 87.2874 41.748C86.7274 41.468 86.284 41.0573 85.9574 40.516C85.6307 39.9747 85.4674 39.326 85.4674 38.57C85.4674 37.8233 85.6307 37.184 85.9574 36.652C86.2934 36.12 86.7274 35.7093 87.2594 35.42C87.7914 35.1307 88.3607 34.986 88.9674 34.986C89.6394 34.986 90.2087 35.126 90.6754 35.406C91.142 35.6767 91.4967 36.0547 91.7394 36.54C91.9914 37.016 92.1174 37.576 92.1174 38.22C92.1174 38.36 92.1127 38.5 92.1034 38.64C92.094 38.7707 92.08 38.8827 92.0614 38.976H86.4334V37.954H91.1934L90.8854 38.29C90.8854 37.5527 90.7174 37.002 90.3814 36.638C90.0454 36.2647 89.588 36.078 89.0094 36.078C88.608 36.078 88.2394 36.176 87.9034 36.372C87.5767 36.5587 87.3154 36.8387 87.1194 37.212C86.9234 37.576 86.8254 38.0287 86.8254 38.57C86.8254 39.13 86.9327 39.5967 87.1474 39.97C87.3714 40.334 87.67 40.6093 88.0434 40.796C88.426 40.9827 88.8647 41.076 89.3594 41.076C89.742 41.076 90.092 41.0247 90.4094 40.922C90.7267 40.81 91.0394 40.6607 91.3474 40.474L91.8374 41.356C91.492 41.5893 91.0954 41.7853 90.6474 41.944C90.1994 42.0933 89.7094 42.168 89.1774 42.168ZM94.0859 36.344V35.336H100.218V36.344H94.0859ZM94.0859 39.424V38.416H100.218V39.424H94.0859ZM198.516 42.168C197.807 42.168 197.168 42.028 196.598 41.748C196.029 41.468 195.576 41.062 195.24 40.53C194.914 39.9887 194.75 39.34 194.75 38.584C194.75 37.828 194.928 37.184 195.282 36.652C195.637 36.1107 196.104 35.7 196.682 35.42C197.27 35.1307 197.91 34.986 198.6 34.986C199.16 34.986 199.65 35.084 200.07 35.28C200.49 35.4667 200.84 35.6953 201.12 35.966L200.448 36.848C200.168 36.624 199.884 36.4513 199.594 36.33C199.314 36.1993 199.006 36.134 198.67 36.134C198.185 36.134 197.751 36.2367 197.368 36.442C196.995 36.6473 196.701 36.9367 196.486 37.31C196.281 37.674 196.178 38.0987 196.178 38.584C196.178 39.0787 196.281 39.508 196.486 39.872C196.692 40.236 196.976 40.5207 197.34 40.726C197.714 40.9313 198.143 41.034 198.628 41.034C199.039 41.034 199.412 40.9547 199.748 40.796C200.084 40.6373 200.388 40.446 200.658 40.222L201.26 41.118C200.878 41.454 200.448 41.7153 199.972 41.902C199.506 42.0793 199.02 42.168 198.516 42.168ZM206.281 42.168C205.683 42.168 205.123 42.028 204.601 41.748C204.087 41.468 203.667 41.062 203.341 40.53C203.023 39.9887 202.865 39.34 202.865 38.584C202.865 37.828 203.023 37.184 203.341 36.652C203.667 36.1107 204.087 35.7 204.601 35.42C205.123 35.1307 205.683 34.986 206.281 34.986C206.878 34.986 207.433 35.1307 207.947 35.42C208.469 35.7 208.889 36.1107 209.207 36.652C209.533 37.184 209.697 37.828 209.697 38.584C209.697 39.34 209.533 39.9887 209.207 40.53C208.889 41.062 208.469 41.468 207.947 41.748C207.433 42.028 206.878 42.168 206.281 42.168ZM206.281 41.034C206.682 41.034 207.032 40.9313 207.331 40.726C207.629 40.5207 207.858 40.236 208.017 39.872C208.185 39.508 208.269 39.0787 208.269 38.584C208.269 38.0987 208.185 37.674 208.017 37.31C207.858 36.9367 207.629 36.6473 207.331 36.442C207.032 36.2367 206.682 36.134 206.281 36.134C205.879 36.134 205.529 36.2367 205.231 36.442C204.932 36.6473 204.699 36.9367 204.531 37.31C204.372 37.674 204.293 38.0987 204.293 38.584C204.293 39.0787 204.372 39.508 204.531 39.872C204.699 40.236 204.932 40.5207 205.231 40.726C205.529 40.9313 205.879 41.034 206.281 41.034ZM211.707 42V35.154H212.841L212.953 36.26H213.009C213.355 35.9053 213.728 35.6067 214.129 35.364C214.531 35.112 214.997 34.986 215.529 34.986C216.323 34.986 216.906 35.2287 217.279 35.714C217.662 36.19 217.853 36.8713 217.853 37.758V42H216.467V37.94C216.467 37.3427 216.355 36.904 216.131 36.624C215.917 36.3347 215.553 36.19 215.039 36.19C214.675 36.19 214.349 36.2833 214.059 36.47C213.77 36.6473 213.448 36.918 213.093 37.282V42H211.707ZM224.372 42.168C223.681 42.168 223.135 42.0467 222.734 41.804C222.342 41.5613 222.062 41.2253 221.894 40.796C221.726 40.3667 221.642 39.8673 221.642 39.298V36.274H219.766V35.238L221.698 35.154L221.88 32.998H223.028V35.154H226.262V36.274H223.028V39.298C223.028 39.6807 223.079 40.0073 223.182 40.278C223.285 40.5393 223.457 40.7353 223.7 40.866C223.943 40.9873 224.269 41.048 224.68 41.048C224.988 41.048 225.268 41.0247 225.52 40.978C225.772 40.922 226.015 40.852 226.248 40.768L226.528 41.776C226.22 41.8787 225.889 41.9673 225.534 42.042C225.189 42.126 224.801 42.168 224.372 42.168ZM231.884 42.168C231.194 42.168 230.564 42.028 229.994 41.748C229.434 41.468 228.991 41.0573 228.664 40.516C228.338 39.9747 228.174 39.326 228.174 38.57C228.174 37.8233 228.338 37.184 228.664 36.652C229 36.12 229.434 35.7093 229.966 35.42C230.498 35.1307 231.068 34.986 231.674 34.986C232.346 34.986 232.916 35.126 233.382 35.406C233.849 35.6767 234.204 36.0547 234.446 36.54C234.698 37.016 234.824 37.576 234.824 38.22C234.824 38.36 234.82 38.5 234.81 38.64C234.801 38.7707 234.787 38.8827 234.768 38.976H229.14V37.954H233.9L233.592 38.29C233.592 37.5527 233.424 37.002 233.088 36.638C232.752 36.2647 232.295 36.078 231.716 36.078C231.315 36.078 230.946 36.176 230.61 36.372C230.284 36.5587 230.022 36.8387 229.826 37.212C229.63 37.576 229.532 38.0287 229.532 38.57C229.532 39.13 229.64 39.5967 229.854 39.97C230.078 40.334 230.377 40.6093 230.75 40.796C231.133 40.9827 231.572 41.076 232.066 41.076C232.449 41.076 232.799 41.0247 233.116 40.922C233.434 40.81 233.746 40.6607 234.054 40.474L234.544 41.356C234.199 41.5893 233.802 41.7853 233.354 41.944C232.906 42.0933 232.416 42.168 231.884 42.168ZM236.891 42V35.154H238.025L238.137 36.26H238.193C238.538 35.9053 238.912 35.6067 239.313 35.364C239.714 35.112 240.181 34.986 240.713 34.986C241.506 34.986 242.09 35.2287 242.463 35.714C242.846 36.19 243.037 36.8713 243.037 37.758V42H241.651V37.94C241.651 37.3427 241.539 36.904 241.315 36.624C241.1 36.3347 240.736 36.19 240.223 36.19C239.859 36.19 239.532 36.2833 239.243 36.47C238.954 36.6473 238.632 36.918 238.277 37.282V42H236.891ZM249.555 42.168C248.865 42.168 248.319 42.0467 247.917 41.804C247.525 41.5613 247.245 41.2253 247.077 40.796C246.909 40.3667 246.825 39.8673 246.825 39.298V36.274H244.949V35.238L246.881 35.154L247.063 32.998H248.211V35.154H251.445V36.274H248.211V39.298C248.211 39.6807 248.263 40.0073 248.365 40.278C248.468 40.5393 248.641 40.7353 248.883 40.866C249.126 40.9873 249.453 41.048 249.863 41.048C250.171 41.048 250.451 41.0247 250.703 40.978C250.955 40.922 251.198 40.852 251.431 40.768L251.711 41.776C251.403 41.8787 251.072 41.9673 250.717 42.042C250.372 42.126 249.985 42.168 249.555 42.168ZM253.582 36.344V35.336H259.714V36.344H253.582ZM253.582 39.424V38.416H259.714V39.424H253.582Z" fill="#4783DD"/>
<path d="M103.432 37.24L103.04 34.048L102.998 32.396H104.762L104.72 34.048L104.328 37.24H103.432ZM106.764 37.24L106.372 34.048L106.33 32.396H108.094L108.052 34.048L107.66 37.24H106.764ZM113.185 42L110.385 35.154H111.785L113.227 38.878C113.358 39.214 113.484 39.5547 113.605 39.9C113.726 40.236 113.843 40.572 113.955 40.908H114.011C114.132 40.572 114.249 40.236 114.361 39.9C114.473 39.5547 114.594 39.214 114.725 38.878L116.167 35.154H117.497L114.753 42H113.185ZM122.419 42V36.274H119.353V35.154H123.805V42H122.419ZM122.993 33.824C122.695 33.824 122.447 33.7353 122.251 33.558C122.055 33.3713 121.957 33.1287 121.957 32.83C121.957 32.5313 122.055 32.2933 122.251 32.116C122.447 31.9293 122.695 31.836 122.993 31.836C123.292 31.836 123.539 31.9293 123.735 32.116C123.931 32.2933 124.029 32.5313 124.029 32.83C124.029 33.1287 123.931 33.3713 123.735 33.558C123.539 33.7353 123.292 33.824 122.993 33.824ZM131.15 42.168C130.459 42.168 129.829 42.028 129.26 41.748C128.7 41.468 128.257 41.0573 127.93 40.516C127.603 39.9747 127.44 39.326 127.44 38.57C127.44 37.8233 127.603 37.184 127.93 36.652C128.266 36.12 128.7 35.7093 129.232 35.42C129.764 35.1307 130.333 34.986 130.94 34.986C131.612 34.986 132.181 35.126 132.648 35.406C133.115 35.6767 133.469 36.0547 133.712 36.54C133.964 37.016 134.09 37.576 134.09 38.22C134.09 38.36 134.085 38.5 134.076 38.64C134.067 38.7707 134.053 38.8827 134.034 38.976H128.406V37.954H133.166L132.858 38.29C132.858 37.5527 132.69 37.002 132.354 36.638C132.018 36.2647 131.561 36.078 130.982 36.078C130.581 36.078 130.212 36.176 129.876 36.372C129.549 36.5587 129.288 36.8387 129.092 37.212C128.896 37.576 128.798 38.0287 128.798 38.57C128.798 39.13 128.905 39.5967 129.12 39.97C129.344 40.334 129.643 40.6093 130.016 40.796C130.399 40.9827 130.837 41.076 131.332 41.076C131.715 41.076 132.065 41.0247 132.382 40.922C132.699 40.81 133.012 40.6607 133.32 40.474L133.81 41.356C133.465 41.5893 133.068 41.7853 132.62 41.944C132.172 42.0933 131.682 42.168 131.15 42.168ZM136.423 42L135.023 35.154H136.395L137.095 38.92C137.16 39.2373 137.216 39.5547 137.263 39.872C137.309 40.1893 137.351 40.5113 137.389 40.838H137.445C137.491 40.5113 137.547 40.1893 137.613 39.872C137.678 39.5547 137.743 39.2373 137.809 38.92L138.551 35.714H139.783L140.511 38.92C140.576 39.2373 140.646 39.5547 140.721 39.872C140.805 40.1893 140.865 40.5113 140.903 40.838H140.959C141.015 40.5113 141.061 40.1893 141.099 39.872C141.136 39.5547 141.183 39.2373 141.239 38.92L141.939 35.154H143.227L141.869 42H140.147L139.475 39.004C139.419 38.752 139.363 38.458 139.307 38.122C139.26 37.786 139.209 37.408 139.153 36.988H139.097C139.05 37.38 138.999 37.744 138.943 38.08C138.896 38.4067 138.845 38.7147 138.789 39.004L138.131 42H136.423ZM144.551 44.8V35.154H145.685L145.797 35.994H145.839C146.147 35.7047 146.502 35.4667 146.903 35.28C147.304 35.084 147.71 34.986 148.121 34.986C148.728 34.986 149.236 35.1307 149.647 35.42C150.067 35.7093 150.384 36.1153 150.599 36.638C150.823 37.1607 150.935 37.772 150.935 38.472C150.935 39.256 150.79 39.9233 150.501 40.474C150.212 41.0247 149.834 41.4447 149.367 41.734C148.9 42.0233 148.396 42.168 147.855 42.168C147.547 42.168 147.216 42.0933 146.861 41.944C146.516 41.7947 146.198 41.5893 145.909 41.328H145.867L145.937 42.56V44.8H144.551ZM147.589 41.02C147.953 41.02 148.28 40.922 148.569 40.726C148.858 40.53 149.087 40.2453 149.255 39.872C149.423 39.4893 149.507 39.0273 149.507 38.486C149.507 38.01 149.442 37.5993 149.311 37.254C149.19 36.8993 149.003 36.6287 148.751 36.442C148.499 36.246 148.163 36.148 147.743 36.148C147.463 36.148 147.169 36.2227 146.861 36.372C146.553 36.512 146.245 36.7453 145.937 37.072V40.306C146.226 40.558 146.52 40.74 146.819 40.852C147.118 40.964 147.374 41.02 147.589 41.02ZM155.914 42.168C155.316 42.168 154.756 42.028 154.234 41.748C153.72 41.468 153.3 41.062 152.974 40.53C152.656 39.9887 152.498 39.34 152.498 38.584C152.498 37.828 152.656 37.184 152.974 36.652C153.3 36.1107 153.72 35.7 154.234 35.42C154.756 35.1307 155.316 34.986 155.914 34.986C156.511 34.986 157.066 35.1307 157.58 35.42C158.102 35.7 158.522 36.1107 158.84 36.652C159.166 37.184 159.33 37.828 159.33 38.584C159.33 39.34 159.166 39.9887 158.84 40.53C158.522 41.062 158.102 41.468 157.58 41.748C157.066 42.028 156.511 42.168 155.914 42.168ZM155.914 41.034C156.315 41.034 156.665 40.9313 156.964 40.726C157.262 40.5207 157.491 40.236 157.65 39.872C157.818 39.508 157.902 39.0787 157.902 38.584C157.902 38.0987 157.818 37.674 157.65 37.31C157.491 36.9367 157.262 36.6473 156.964 36.442C156.665 36.2367 156.315 36.134 155.914 36.134C155.512 36.134 155.162 36.2367 154.864 36.442C154.565 36.6473 154.332 36.9367 154.164 37.31C154.005 37.674 153.926 38.0987 153.926 38.584C153.926 39.0787 154.005 39.508 154.164 39.872C154.332 40.236 154.565 40.5207 154.864 40.726C155.162 40.9313 155.512 41.034 155.914 41.034ZM162.04 42V35.154H163.188L163.3 36.75H163.342C163.697 36.19 164.131 35.756 164.644 35.448C165.157 35.14 165.717 34.986 166.324 34.986C166.585 34.986 166.823 35.0093 167.038 35.056C167.253 35.1027 167.463 35.1727 167.668 35.266L167.36 36.456C167.127 36.372 166.926 36.316 166.758 36.288C166.59 36.2507 166.375 36.232 166.114 36.232C165.619 36.232 165.143 36.372 164.686 36.652C164.229 36.932 163.809 37.4173 163.426 38.108V42H162.04ZM174.005 42.168C173.314 42.168 172.768 42.0467 172.367 41.804C171.975 41.5613 171.695 41.2253 171.527 40.796C171.359 40.3667 171.275 39.8673 171.275 39.298V36.274H169.399V35.238L171.331 35.154L171.513 32.998H172.661V35.154H175.895V36.274H172.661V39.298C172.661 39.6807 172.712 40.0073 172.815 40.278C172.917 40.5393 173.09 40.7353 173.333 40.866C173.575 40.9873 173.902 41.048 174.313 41.048C174.621 41.048 174.901 41.0247 175.153 40.978C175.405 40.922 175.647 40.852 175.881 40.768L176.161 41.776C175.853 41.8787 175.521 41.9673 175.167 42.042C174.821 42.126 174.434 42.168 174.005 42.168ZM178.983 37.24L178.591 34.048L178.549 32.396H180.313L180.271 34.048L179.879 37.24H178.983ZM182.315 37.24L181.923 34.048L181.881 32.396H183.645L183.603 34.048L183.211 37.24H182.315Z" fill="#9E9E9E"/>
<path d="M267.065 37.24L266.673 34.048L266.631 32.396H268.395L268.353 34.048L267.961 37.24H267.065ZM270.397 37.24L270.005 34.048L269.963 32.396H271.727L271.685 34.048L271.293 37.24H270.397ZM274.872 42L273.472 35.154H274.844L275.544 38.92C275.609 39.2373 275.665 39.5547 275.712 39.872C275.758 40.1893 275.8 40.5113 275.838 40.838H275.894C275.94 40.5113 275.996 40.1893 276.062 39.872C276.127 39.5547 276.192 39.2373 276.258 38.92L277 35.714H278.232L278.96 38.92C279.025 39.2373 279.095 39.5547 279.17 39.872C279.254 40.1893 279.314 40.5113 279.352 40.838H279.408C279.464 40.5113 279.51 40.1893 279.548 39.872C279.585 39.5547 279.632 39.2373 279.688 38.92L280.388 35.154H281.676L280.318 42H278.596L277.924 39.004C277.868 38.752 277.812 38.458 277.756 38.122C277.709 37.786 277.658 37.408 277.602 36.988H277.546C277.499 37.38 277.448 37.744 277.392 38.08C277.345 38.4067 277.294 38.7147 277.238 39.004L276.58 42H274.872ZM286.052 42V36.274H282.986V35.154H287.438V42H286.052ZM286.626 33.824C286.328 33.824 286.08 33.7353 285.884 33.558C285.688 33.3713 285.59 33.1287 285.59 32.83C285.59 32.5313 285.688 32.2933 285.884 32.116C286.08 31.9293 286.328 31.836 286.626 31.836C286.925 31.836 287.172 31.9293 287.368 32.116C287.564 32.2933 287.662 32.5313 287.662 32.83C287.662 33.1287 287.564 33.3713 287.368 33.558C287.172 33.7353 286.925 33.824 286.626 33.824ZM293.901 42.168C293.014 42.168 292.3 41.8553 291.759 41.23C291.218 40.5953 290.947 39.7133 290.947 38.584C290.947 37.8467 291.092 37.212 291.381 36.68C291.68 36.1387 292.062 35.7233 292.529 35.434C292.996 35.1353 293.49 34.986 294.013 34.986C294.414 34.986 294.774 35.0607 295.091 35.21C295.408 35.3593 295.702 35.5693 295.973 35.84H296.015L295.945 34.622V32.074H297.331V42H296.197L296.085 41.16H296.043C295.772 41.4307 295.45 41.6687 295.077 41.874C294.704 42.07 294.312 42.168 293.901 42.168ZM294.223 41.02C294.531 41.02 294.825 40.9453 295.105 40.796C295.394 40.6373 295.674 40.404 295.945 40.096V36.848C295.674 36.596 295.404 36.4187 295.133 36.316C294.862 36.204 294.592 36.148 294.321 36.148C293.966 36.148 293.64 36.246 293.341 36.442C293.052 36.638 292.818 36.918 292.641 37.282C292.464 37.646 292.375 38.0753 292.375 38.57C292.375 39.354 292.538 39.9607 292.865 40.39C293.192 40.81 293.644 41.02 294.223 41.02ZM304.059 42.168C303.369 42.168 302.823 42.0467 302.421 41.804C302.029 41.5613 301.749 41.2253 301.581 40.796C301.413 40.3667 301.329 39.8673 301.329 39.298V36.274H299.453V35.238L301.385 35.154L301.567 32.998H302.715V35.154H305.949V36.274H302.715V39.298C302.715 39.6807 302.767 40.0073 302.869 40.278C302.972 40.5393 303.145 40.7353 303.387 40.866C303.63 40.9873 303.957 41.048 304.367 41.048C304.675 41.048 304.955 41.0247 305.207 40.978C305.459 40.922 305.702 40.852 305.935 40.768L306.215 41.776C305.907 41.8787 305.576 41.9673 305.221 42.042C304.876 42.126 304.489 42.168 304.059 42.168ZM308.184 42V32.074H309.57V34.706L309.486 36.246H309.528C309.855 35.9007 310.219 35.6067 310.62 35.364C311.021 35.112 311.483 34.986 312.006 34.986C312.809 34.986 313.397 35.2287 313.77 35.714C314.143 36.19 314.33 36.8713 314.33 37.758V42H312.944V37.94C312.944 37.3427 312.832 36.904 312.608 36.624C312.393 36.3347 312.029 36.19 311.516 36.19C311.152 36.19 310.825 36.2833 310.536 36.47C310.247 36.6473 309.925 36.918 309.57 37.282V42H308.184ZM316.48 36.344V35.336H322.612V36.344H316.48ZM316.48 39.424V38.416H322.612V39.424H316.48ZM327.479 42.168C326.592 42.168 325.878 41.8553 325.337 41.23C324.796 40.5953 324.525 39.7133 324.525 38.584C324.525 37.8467 324.67 37.212 324.959 36.68C325.258 36.1387 325.64 35.7233 326.107 35.434C326.574 35.1353 327.068 34.986 327.591 34.986C327.992 34.986 328.352 35.0607 328.669 35.21C328.986 35.3593 329.28 35.5693 329.551 35.84H329.593L329.523 34.622V32.074H330.909V42H329.775L329.663 41.16H329.621C329.35 41.4307 329.028 41.6687 328.655 41.874C328.282 42.07 327.89 42.168 327.479 42.168ZM327.801 41.02C328.109 41.02 328.403 40.9453 328.683 40.796C328.972 40.6373 329.252 40.404 329.523 40.096V36.848C329.252 36.596 328.982 36.4187 328.711 36.316C328.44 36.204 328.17 36.148 327.899 36.148C327.544 36.148 327.218 36.246 326.919 36.442C326.63 36.638 326.396 36.918 326.219 37.282C326.042 37.646 325.953 38.0753 325.953 38.57C325.953 39.354 326.116 39.9607 326.443 40.39C326.77 40.81 327.222 41.02 327.801 41.02ZM336.755 42.168C336.065 42.168 335.435 42.028 334.865 41.748C334.305 41.468 333.862 41.0573 333.535 40.516C333.209 39.9747 333.045 39.326 333.045 38.57C333.045 37.8233 333.209 37.184 333.535 36.652C333.871 36.12 334.305 35.7093 334.837 35.42C335.369 35.1307 335.939 34.986 336.545 34.986C337.217 34.986 337.787 35.126 338.253 35.406C338.72 35.6767 339.075 36.0547 339.317 36.54C339.569 37.016 339.695 37.576 339.695 38.22C339.695 38.36 339.691 38.5 339.681 38.64C339.672 38.7707 339.658 38.8827 339.639 38.976H334.011V37.954H338.771L338.463 38.29C338.463 37.5527 338.295 37.002 337.959 36.638C337.623 36.2647 337.166 36.078 336.587 36.078C336.186 36.078 335.817 36.176 335.481 36.372C335.155 36.5587 334.893 36.8387 334.697 37.212C334.501 37.576 334.403 38.0287 334.403 38.57C334.403 39.13 334.511 39.5967 334.725 39.97C334.949 40.334 335.248 40.6093 335.621 40.796C336.004 40.9827 336.443 41.076 336.937 41.076C337.32 41.076 337.67 41.0247 337.987 40.922C338.305 40.81 338.617 40.6607 338.925 40.474L339.415 41.356C339.07 41.5893 338.673 41.7853 338.225 41.944C337.777 42.0933 337.287 42.168 336.755 42.168ZM343.974 42L341.174 35.154H342.574L344.016 38.878C344.147 39.214 344.273 39.5547 344.394 39.9C344.515 40.236 344.632 40.572 344.744 40.908H344.8C344.921 40.572 345.038 40.236 345.15 39.9C345.262 39.5547 345.383 39.214 345.514 38.878L346.956 35.154H348.286L345.542 42H343.974ZM353.209 42V36.274H350.143V35.154H354.595V42H353.209ZM353.783 33.824C353.484 33.824 353.237 33.7353 353.041 33.558C352.845 33.3713 352.747 33.1287 352.747 32.83C352.747 32.5313 352.845 32.2933 353.041 32.116C353.237 31.9293 353.484 31.836 353.783 31.836C354.081 31.836 354.329 31.9293 354.525 32.116C354.721 32.2933 354.819 32.5313 354.819 32.83C354.819 33.1287 354.721 33.3713 354.525 33.558C354.329 33.7353 354.081 33.824 353.783 33.824ZM362.149 42.168C361.44 42.168 360.8 42.028 360.231 41.748C359.662 41.468 359.209 41.062 358.873 40.53C358.546 39.9887 358.383 39.34 358.383 38.584C358.383 37.828 358.56 37.184 358.915 36.652C359.27 36.1107 359.736 35.7 360.315 35.42C360.903 35.1307 361.542 34.986 362.233 34.986C362.793 34.986 363.283 35.084 363.703 35.28C364.123 35.4667 364.473 35.6953 364.753 35.966L364.081 36.848C363.801 36.624 363.516 36.4513 363.227 36.33C362.947 36.1993 362.639 36.134 362.303 36.134C361.818 36.134 361.384 36.2367 361.001 36.442C360.628 36.6473 360.334 36.9367 360.119 37.31C359.914 37.674 359.811 38.0987 359.811 38.584C359.811 39.0787 359.914 39.508 360.119 39.872C360.324 40.236 360.609 40.5207 360.973 40.726C361.346 40.9313 361.776 41.034 362.261 41.034C362.672 41.034 363.045 40.9547 363.381 40.796C363.717 40.6373 364.02 40.446 364.291 40.222L364.893 41.118C364.51 41.454 364.081 41.7153 363.605 41.902C363.138 42.0793 362.653 42.168 362.149 42.168ZM370.334 42.168C369.643 42.168 369.013 42.028 368.444 41.748C367.884 41.468 367.44 41.0573 367.114 40.516C366.787 39.9747 366.624 39.326 366.624 38.57C366.624 37.8233 366.787 37.184 367.114 36.652C367.45 36.12 367.884 35.7093 368.416 35.42C368.948 35.1307 369.517 34.986 370.124 34.986C370.796 34.986 371.365 35.126 371.832 35.406C372.298 35.6767 372.653 36.0547 372.896 36.54C373.148 37.016 373.274 37.576 373.274 38.22C373.274 38.36 373.269 38.5 373.26 38.64C373.25 38.7707 373.236 38.8827 373.218 38.976H367.59V37.954H372.35L372.042 38.29C372.042 37.5527 371.874 37.002 371.538 36.638C371.202 36.2647 370.744 36.078 370.166 36.078C369.764 36.078 369.396 36.176 369.06 36.372C368.733 36.5587 368.472 36.8387 368.276 37.212C368.08 37.576 367.982 38.0287 367.982 38.57C367.982 39.13 368.089 39.5967 368.304 39.97C368.528 40.334 368.826 40.6093 369.2 40.796C369.582 40.9827 370.021 41.076 370.516 41.076C370.898 41.076 371.248 41.0247 371.566 40.922C371.883 40.81 372.196 40.6607 372.504 40.474L372.994 41.356C372.648 41.5893 372.252 41.7853 371.804 41.944C371.356 42.0933 370.866 42.168 370.334 42.168ZM375.242 37.884V36.876H381.374V37.884H375.242ZM384.001 42L382.601 35.154H383.973L384.673 38.92C384.738 39.2373 384.794 39.5547 384.841 39.872C384.887 40.1893 384.929 40.5113 384.967 40.838H385.023C385.069 40.5113 385.125 40.1893 385.191 39.872C385.256 39.5547 385.321 39.2373 385.387 38.92L386.129 35.714H387.361L388.089 38.92C388.154 39.2373 388.224 39.5547 388.299 39.872C388.383 40.1893 388.443 40.5113 388.481 40.838H388.537C388.593 40.5113 388.639 40.1893 388.677 39.872C388.714 39.5547 388.761 39.2373 388.817 38.92L389.517 35.154H390.805L389.447 42H387.725L387.053 39.004C386.997 38.752 386.941 38.458 386.885 38.122C386.838 37.786 386.787 37.408 386.731 36.988H386.675C386.628 37.38 386.577 37.744 386.521 38.08C386.474 38.4067 386.423 38.7147 386.367 39.004L385.709 42H384.001ZM395.181 42V36.274H392.115V35.154H396.567V42H395.181ZM395.755 33.824C395.457 33.824 395.209 33.7353 395.013 33.558C394.817 33.3713 394.719 33.1287 394.719 32.83C394.719 32.5313 394.817 32.2933 395.013 32.116C395.209 31.9293 395.457 31.836 395.755 31.836C396.054 31.836 396.301 31.9293 396.497 32.116C396.693 32.2933 396.791 32.5313 396.791 32.83C396.791 33.1287 396.693 33.3713 396.497 33.558C396.301 33.7353 396.054 33.824 395.755 33.824ZM403.03 42.168C402.143 42.168 401.429 41.8553 400.888 41.23C400.346 40.5953 400.076 39.7133 400.076 38.584C400.076 37.8467 400.22 37.212 400.51 36.68C400.808 36.1387 401.191 35.7233 401.658 35.434C402.124 35.1353 402.619 34.986 403.142 34.986C403.543 34.986 403.902 35.0607 404.22 35.21C404.537 35.3593 404.831 35.5693 405.102 35.84H405.144L405.074 34.622V32.074H406.46V42H405.326L405.214 41.16H405.172C404.901 41.4307 404.579 41.6687 404.206 41.874C403.832 42.07 403.44 42.168 403.03 42.168ZM403.352 41.02C403.66 41.02 403.954 40.9453 404.234 40.796C404.523 40.6373 404.803 40.404 405.074 40.096V36.848C404.803 36.596 404.532 36.4187 404.262 36.316C403.991 36.204 403.72 36.148 403.45 36.148C403.095 36.148 402.768 36.246 402.47 36.442C402.18 36.638 401.947 36.918 401.77 37.282C401.592 37.646 401.504 38.0753 401.504 38.57C401.504 39.354 401.667 39.9607 401.994 40.39C402.32 40.81 402.773 41.02 403.352 41.02ZM413.188 42.168C412.498 42.168 411.952 42.0467 411.55 41.804C411.158 41.5613 410.878 41.2253 410.71 40.796C410.542 40.3667 410.458 39.8673 410.458 39.298V36.274H408.582V35.238L410.514 35.154L410.696 32.998H411.844V35.154H415.078V36.274H411.844V39.298C411.844 39.6807 411.896 40.0073 411.998 40.278C412.101 40.5393 412.274 40.7353 412.516 40.866C412.759 40.9873 413.086 41.048 413.496 41.048C413.804 41.048 414.084 41.0247 414.336 40.978C414.588 40.922 414.831 40.852 415.064 40.768L415.344 41.776C415.036 41.8787 414.705 41.9673 414.35 42.042C414.005 42.126 413.618 42.168 413.188 42.168ZM417.313 42V32.074H418.699V34.706L418.615 36.246H418.657C418.983 35.9007 419.347 35.6067 419.749 35.364C420.15 35.112 420.612 34.986 421.135 34.986C421.937 34.986 422.525 35.2287 422.899 35.714C423.272 36.19 423.459 36.8713 423.459 37.758V42H422.073V37.94C422.073 37.3427 421.961 36.904 421.737 36.624C421.522 36.3347 421.158 36.19 420.645 36.19C420.281 36.19 419.954 36.2833 419.665 36.47C419.375 36.6473 419.053 36.918 418.699 37.282V42H417.313ZM427.555 44.996L427.177 44.142C427.784 43.89 428.232 43.5727 428.521 43.19C428.82 42.8073 428.965 42.3453 428.955 41.804L428.731 40.418L429.543 41.608C429.422 41.7293 429.291 41.8133 429.151 41.86C429.011 41.9067 428.871 41.93 428.731 41.93C428.507 41.93 428.302 41.888 428.115 41.804C427.938 41.7107 427.793 41.58 427.681 41.412C427.579 41.2347 427.527 41.0247 427.527 40.782C427.527 40.4087 427.649 40.124 427.891 39.928C428.134 39.7227 428.423 39.62 428.759 39.62C429.207 39.62 429.548 39.7927 429.781 40.138C430.015 40.4833 430.131 40.9593 430.131 41.566C430.131 42.406 429.903 43.1153 429.445 43.694C428.997 44.2727 428.367 44.7067 427.555 44.996Z" fill="#9E9E9E"/>
<path d="M447.566 42V36.274H444.5V35.154H448.952V42H447.566ZM448.14 33.824C447.841 33.824 447.594 33.7353 447.398 33.558C447.202 33.3713 447.104 33.1287 447.104 32.83C447.104 32.5313 447.202 32.2933 447.398 32.116C447.594 31.9293 447.841 31.836 448.14 31.836C448.439 31.836 448.686 31.9293 448.882 32.116C449.078 32.2933 449.176 32.5313 449.176 32.83C449.176 33.1287 449.078 33.3713 448.882 33.558C448.686 33.7353 448.439 33.824 448.14 33.824ZM452.909 42V35.154H454.043L454.155 36.26H454.211C454.556 35.9053 454.929 35.6067 455.331 35.364C455.732 35.112 456.199 34.986 456.731 34.986C457.524 34.986 458.107 35.2287 458.481 35.714C458.863 36.19 459.055 36.8713 459.055 37.758V42H457.669V37.94C457.669 37.3427 457.557 36.904 457.333 36.624C457.118 36.3347 456.754 36.19 456.241 36.19C455.877 36.19 455.55 36.2833 455.261 36.47C454.971 36.6473 454.649 36.918 454.295 37.282V42H452.909ZM464.355 42V36.274H461.289V35.154H465.741V42H464.355ZM464.929 33.824C464.63 33.824 464.383 33.7353 464.187 33.558C463.991 33.3713 463.893 33.1287 463.893 32.83C463.893 32.5313 463.991 32.2933 464.187 32.116C464.383 31.9293 464.63 31.836 464.929 31.836C465.228 31.836 465.475 31.9293 465.671 32.116C465.867 32.2933 465.965 32.5313 465.965 32.83C465.965 33.1287 465.867 33.3713 465.671 33.558C465.475 33.7353 465.228 33.824 464.929 33.824ZM473.968 42.168C473.277 42.168 472.731 42.0467 472.33 41.804C471.938 41.5613 471.658 41.2253 471.49 40.796C471.322 40.3667 471.238 39.8673 471.238 39.298V36.274H469.362V35.238L471.294 35.154L471.476 32.998H472.624V35.154H475.858V36.274H472.624V39.298C472.624 39.6807 472.675 40.0073 472.778 40.278C472.88 40.5393 473.053 40.7353 473.296 40.866C473.538 40.9873 473.865 41.048 474.276 41.048C474.584 41.048 474.864 41.0247 475.116 40.978C475.368 40.922 475.61 40.852 475.844 40.768L476.124 41.776C475.816 41.8787 475.484 41.9673 475.13 42.042C474.784 42.126 474.397 42.168 473.968 42.168ZM481.144 42V36.274H478.078V35.154H482.53V42H481.144ZM481.718 33.824C481.419 33.824 481.172 33.7353 480.976 33.558C480.78 33.3713 480.682 33.1287 480.682 32.83C480.682 32.5313 480.78 32.2933 480.976 32.116C481.172 31.9293 481.419 31.836 481.718 31.836C482.017 31.836 482.264 31.9293 482.46 32.116C482.656 32.2933 482.754 32.5313 482.754 32.83C482.754 33.1287 482.656 33.3713 482.46 33.558C482.264 33.7353 482.017 33.824 481.718 33.824ZM488.629 42.168C488.19 42.168 487.793 42.0887 487.439 41.93C487.093 41.762 486.818 41.5333 486.613 41.244C486.417 40.9453 486.319 40.5953 486.319 40.194C486.319 39.4287 486.692 38.8453 487.439 38.444C488.195 38.0427 489.431 37.7767 491.149 37.646C491.139 37.366 491.074 37.1093 490.953 36.876C490.841 36.6427 490.659 36.4607 490.407 36.33C490.164 36.19 489.842 36.12 489.441 36.12C489.161 36.12 488.885 36.1573 488.615 36.232C488.344 36.2973 488.083 36.3907 487.831 36.512C487.579 36.6333 487.341 36.7593 487.117 36.89L486.599 35.952C486.851 35.8027 487.14 35.6533 487.467 35.504C487.793 35.3453 488.143 35.2193 488.517 35.126C488.899 35.0327 489.287 34.986 489.679 34.986C490.313 34.986 490.841 35.1027 491.261 35.336C491.681 35.5693 491.998 35.9007 492.213 36.33C492.427 36.7593 492.535 37.2773 492.535 37.884V42H491.401L491.289 41.118H491.247C490.883 41.398 490.472 41.6453 490.015 41.86C489.557 42.0653 489.095 42.168 488.629 42.168ZM489.021 41.062C489.385 41.062 489.744 40.9827 490.099 40.824C490.453 40.6653 490.803 40.4413 491.149 40.152V38.528C490.253 38.5933 489.548 38.696 489.035 38.836C488.531 38.976 488.176 39.1533 487.971 39.368C487.765 39.5733 487.663 39.816 487.663 40.096C487.663 40.32 487.723 40.5067 487.845 40.656C487.975 40.796 488.143 40.8987 488.349 40.964C488.554 41.0293 488.778 41.062 489.021 41.062ZM499.291 42.168C498.535 42.168 497.957 41.9487 497.555 41.51C497.154 41.062 496.953 40.4273 496.953 39.606V33.194H494.671V32.074H498.339V39.69C498.339 40.166 498.461 40.5113 498.703 40.726C498.946 40.9313 499.249 41.034 499.613 41.034C499.8 41.034 499.991 41.0107 500.187 40.964C500.393 40.9173 500.617 40.8427 500.859 40.74L501.195 41.776C500.869 41.888 500.565 41.9813 500.285 42.056C500.015 42.1307 499.683 42.168 499.291 42.168ZM503.178 37.884V36.876H509.31V37.884H503.178ZM514.722 42.168C514.078 42.168 513.462 42.0607 512.874 41.846C512.286 41.6313 511.787 41.384 511.376 41.104L511.992 40.208C512.394 40.488 512.828 40.7073 513.294 40.866C513.77 41.0247 514.307 41.104 514.904 41.104C515.427 41.104 515.814 41.0107 516.066 40.824C516.328 40.6373 516.458 40.418 516.458 40.166C516.458 40.0447 516.43 39.9327 516.374 39.83C516.328 39.7273 516.234 39.634 516.094 39.55C515.964 39.4567 515.763 39.368 515.492 39.284C515.231 39.2 514.886 39.1113 514.456 39.018C513.551 38.8313 512.879 38.5747 512.44 38.248C512.011 37.9213 511.796 37.5013 511.796 36.988C511.796 36.4093 512.044 35.9333 512.538 35.56C513.042 35.1773 513.77 34.986 514.722 34.986C515.264 34.986 515.777 35.0793 516.262 35.266C516.757 35.4433 517.177 35.6487 517.522 35.882L516.878 36.75C516.552 36.5353 516.192 36.3673 515.8 36.246C515.418 36.1153 515.016 36.05 514.596 36.05C514.251 36.05 513.976 36.092 513.77 36.176C513.565 36.2507 513.416 36.3533 513.322 36.484C513.229 36.6147 513.182 36.7593 513.182 36.918C513.182 37.1793 513.327 37.3847 513.616 37.534C513.915 37.674 514.396 37.814 515.058 37.954C515.805 38.1127 516.379 38.29 516.78 38.486C517.191 38.682 517.471 38.9107 517.62 39.172C517.779 39.424 517.858 39.7273 517.858 40.082C517.858 40.4647 517.737 40.8147 517.494 41.132C517.252 41.4493 516.897 41.7013 516.43 41.888C515.973 42.0747 515.404 42.168 514.722 42.168ZM523.663 42.168C522.953 42.168 522.314 42.028 521.745 41.748C521.175 41.468 520.723 41.062 520.387 40.53C520.06 39.9887 519.897 39.34 519.897 38.584C519.897 37.828 520.074 37.184 520.429 36.652C520.783 36.1107 521.25 35.7 521.829 35.42C522.417 35.1307 523.056 34.986 523.747 34.986C524.307 34.986 524.797 35.084 525.217 35.28C525.637 35.4667 525.987 35.6953 526.267 35.966L525.595 36.848C525.315 36.624 525.03 36.4513 524.741 36.33C524.461 36.1993 524.153 36.134 523.817 36.134C523.331 36.134 522.897 36.2367 522.515 36.442C522.141 36.6473 521.847 36.9367 521.633 37.31C521.427 37.674 521.325 38.0987 521.325 38.584C521.325 39.0787 521.427 39.508 521.633 39.872C521.838 40.236 522.123 40.5207 522.487 40.726C522.86 40.9313 523.289 41.034 523.775 41.034C524.185 41.034 524.559 40.9547 524.895 40.796C525.231 40.6373 525.534 40.446 525.805 40.222L526.407 41.118C526.024 41.454 525.595 41.7153 525.119 41.902C524.652 42.0793 524.167 42.168 523.663 42.168ZM530.601 42.168C530.163 42.168 529.766 42.0887 529.411 41.93C529.066 41.762 528.791 41.5333 528.585 41.244C528.389 40.9453 528.291 40.5953 528.291 40.194C528.291 39.4287 528.665 38.8453 529.411 38.444C530.167 38.0427 531.404 37.7767 533.121 37.646C533.112 37.366 533.047 37.1093 532.925 36.876C532.813 36.6427 532.631 36.4607 532.379 36.33C532.137 36.19 531.815 36.12 531.413 36.12C531.133 36.12 530.858 36.1573 530.587 36.232C530.317 36.2973 530.055 36.3907 529.803 36.512C529.551 36.6333 529.313 36.7593 529.089 36.89L528.571 35.952C528.823 35.8027 529.113 35.6533 529.439 35.504C529.766 35.3453 530.116 35.2193 530.489 35.126C530.872 35.0327 531.259 34.986 531.651 34.986C532.286 34.986 532.813 35.1027 533.233 35.336C533.653 35.5693 533.971 35.9007 534.185 36.33C534.4 36.7593 534.507 37.2773 534.507 37.884V42H533.373L533.261 41.118H533.219C532.855 41.398 532.445 41.6453 531.987 41.86C531.53 42.0653 531.068 42.168 530.601 42.168ZM530.993 41.062C531.357 41.062 531.717 40.9827 532.071 40.824C532.426 40.6653 532.776 40.4413 533.121 40.152V38.528C532.225 38.5933 531.521 38.696 531.007 38.836C530.503 38.976 530.149 39.1533 529.943 39.368C529.738 39.5733 529.635 39.816 529.635 40.096C529.635 40.32 529.696 40.5067 529.817 40.656C529.948 40.796 530.116 40.8987 530.321 40.964C530.527 41.0293 530.751 41.062 530.993 41.062ZM541.264 42.168C540.508 42.168 539.929 41.9487 539.528 41.51C539.126 41.062 538.926 40.4273 538.926 39.606V33.194H536.644V32.074H540.312V39.69C540.312 40.166 540.433 40.5113 540.676 40.726C540.918 40.9313 541.222 41.034 541.586 41.034C541.772 41.034 541.964 41.0107 542.16 40.964C542.365 40.9173 542.589 40.8427 542.832 40.74L543.168 41.776C542.841 41.888 542.538 41.9813 542.258 42.056C541.987 42.1307 541.656 42.168 541.264 42.168ZM548.636 42.168C547.946 42.168 547.316 42.028 546.746 41.748C546.186 41.468 545.743 41.0573 545.416 40.516C545.09 39.9747 544.926 39.326 544.926 38.57C544.926 37.8233 545.09 37.184 545.416 36.652C545.752 36.12 546.186 35.7093 546.718 35.42C547.25 35.1307 547.82 34.986 548.426 34.986C549.098 34.986 549.668 35.126 550.134 35.406C550.601 35.6767 550.956 36.0547 551.198 36.54C551.45 37.016 551.576 37.576 551.576 38.22C551.576 38.36 551.572 38.5 551.562 38.64C551.553 38.7707 551.539 38.8827 551.52 38.976H545.892V37.954H550.652L550.344 38.29C550.344 37.5527 550.176 37.002 549.84 36.638C549.504 36.2647 549.047 36.078 548.468 36.078C548.067 36.078 547.698 36.176 547.362 36.372C547.036 36.5587 546.774 36.8387 546.578 37.212C546.382 37.576 546.284 38.0287 546.284 38.57C546.284 39.13 546.392 39.5967 546.606 39.97C546.83 40.334 547.129 40.6093 547.502 40.796C547.885 40.9827 548.324 41.076 548.818 41.076C549.201 41.076 549.551 41.0247 549.868 40.922C550.186 40.81 550.498 40.6607 550.806 40.474L551.296 41.356C550.951 41.5893 550.554 41.7853 550.106 41.944C549.658 42.0933 549.168 42.168 548.636 42.168ZM553.545 36.344V35.336H559.677V36.344H553.545ZM553.545 39.424V38.416H559.677V39.424H553.545ZM562.107 42V40.866H564.627V34.65H562.639V33.782C563.003 33.726 563.321 33.6653 563.591 33.6C563.871 33.5347 564.123 33.46 564.347 33.376C564.581 33.292 564.795 33.194 564.991 33.082H566.013V40.866H568.267V42H562.107ZM573.4 42.168C573.045 42.168 572.747 42.0467 572.504 41.804C572.261 41.5613 572.14 41.2487 572.14 40.866C572.14 40.4833 572.261 40.1707 572.504 39.928C572.747 39.6853 573.045 39.564 573.4 39.564C573.764 39.564 574.063 39.6853 574.296 39.928C574.539 40.1707 574.66 40.4833 574.66 40.866C574.66 41.2487 574.539 41.5613 574.296 41.804C574.063 42.0467 573.764 42.168 573.4 42.168ZM581.794 42.168C581.132 42.168 580.553 41.986 580.058 41.622C579.573 41.258 579.195 40.7307 578.924 40.04C578.663 39.34 578.532 38.4953 578.532 37.506C578.532 36.0033 578.826 34.8647 579.414 34.09C580.002 33.306 580.796 32.914 581.794 32.914C582.802 32.914 583.596 33.306 584.174 34.09C584.762 34.8647 585.056 36.0033 585.056 37.506C585.056 38.4953 584.921 39.34 584.65 40.04C584.389 40.7307 584.016 41.258 583.53 41.622C583.045 41.986 582.466 42.168 581.794 42.168ZM581.794 41.062C582.177 41.062 582.518 40.9407 582.816 40.698C583.115 40.4553 583.348 40.0727 583.516 39.55C583.694 39.018 583.782 38.3367 583.782 37.506C583.782 36.6753 583.694 36.0033 583.516 35.49C583.348 34.9673 583.115 34.5893 582.816 34.356C582.518 34.1227 582.177 34.006 581.794 34.006C581.412 34.006 581.071 34.1227 580.772 34.356C580.474 34.5893 580.236 34.9673 580.058 35.49C579.89 36.0033 579.806 36.6753 579.806 37.506C579.806 38.3367 579.89 39.018 580.058 39.55C580.236 40.0727 580.474 40.4553 580.772 40.698C581.071 40.9407 581.412 41.062 581.794 41.062ZM581.794 38.402C581.552 38.402 581.337 38.318 581.15 38.15C580.964 37.9727 580.87 37.7347 580.87 37.436C580.87 37.128 580.964 36.89 581.15 36.722C581.337 36.554 581.552 36.47 581.794 36.47C582.046 36.47 582.261 36.554 582.438 36.722C582.625 36.89 582.718 37.128 582.718 37.436C582.718 37.7347 582.625 37.9727 582.438 38.15C582.261 38.318 582.046 38.402 581.794 38.402ZM588.075 37.24L587.683 34.048L587.641 32.396H589.405L589.363 34.048L588.971 37.24H588.075ZM591.407 37.24L591.015 34.048L590.973 32.396H592.737L592.695 34.048L592.303 37.24H591.407Z" fill="#9E9E9E"/>
<path d="M604.08 44.24L608.672 32.06H609.876L605.284 44.24H604.08ZM612.629 41.384V40.082L616.717 37.38V37.324L612.629 34.622V33.32L617.907 36.848V37.856L612.629 41.384Z" fill="#D29955"/>
<path d="M36.185 63.384L30.907 59.856V58.848L36.185 55.32V56.622L32.097 59.324V59.38L36.185 62.082V63.384ZM38.8675 64V54.074H40.2535V56.706L40.1695 58.246H40.2115C40.5382 57.9007 40.9022 57.6067 41.3035 57.364C41.7048 57.112 42.1668 56.986 42.6895 56.986C43.4922 56.986 44.0802 57.2287 44.4535 57.714C44.8268 58.19 45.0135 58.8713 45.0135 59.758V64H43.6275V59.94C43.6275 59.3427 43.5155 58.904 43.2915 58.624C43.0768 58.3347 42.7128 58.19 42.1995 58.19C41.8355 58.19 41.5088 58.2833 41.2195 58.47C40.9302 58.6473 40.6082 58.918 40.2535 59.282V64H38.8675ZM50.65 64.168C49.9594 64.168 49.3294 64.028 48.76 63.748C48.2 63.468 47.7567 63.0573 47.43 62.516C47.1034 61.9747 46.94 61.326 46.94 60.57C46.94 59.8233 47.1034 59.184 47.43 58.652C47.766 58.12 48.2 57.7093 48.732 57.42C49.264 57.1307 49.8334 56.986 50.44 56.986C51.112 56.986 51.6814 57.126 52.148 57.406C52.6147 57.6767 52.9694 58.0547 53.212 58.54C53.464 59.016 53.59 59.576 53.59 60.22C53.59 60.36 53.5854 60.5 53.576 60.64C53.5667 60.7707 53.5527 60.8827 53.534 60.976H47.906V59.954H52.666L52.358 60.29C52.358 59.5527 52.19 59.002 51.854 58.638C51.518 58.2647 51.0607 58.078 50.482 58.078C50.0807 58.078 49.712 58.176 49.376 58.372C49.0494 58.5587 48.788 58.8387 48.592 59.212C48.396 59.576 48.298 60.0287 48.298 60.57C48.298 61.13 48.4054 61.5967 48.62 61.97C48.844 62.334 49.1427 62.6093 49.516 62.796C49.8987 62.9827 50.3374 63.076 50.832 63.076C51.2147 63.076 51.5647 63.0247 51.882 62.922C52.1994 62.81 52.512 62.6607 52.82 62.474L53.31 63.356C52.9647 63.5893 52.568 63.7853 52.12 63.944C51.672 64.0933 51.182 64.168 50.65 64.168ZM57.7986 64.168C57.3599 64.168 56.9632 64.0887 56.6086 63.93C56.2632 63.762 55.9879 63.5333 55.7826 63.244C55.5866 62.9453 55.4886 62.5953 55.4886 62.194C55.4886 61.4287 55.8619 60.8453 56.6086 60.444C57.3646 60.0427 58.6012 59.7767 60.3186 59.646C60.3092 59.366 60.2439 59.1093 60.1226 58.876C60.0106 58.6427 59.8286 58.4607 59.5766 58.33C59.3339 58.19 59.0119 58.12 58.6106 58.12C58.3306 58.12 58.0552 58.1573 57.7846 58.232C57.5139 58.2973 57.2526 58.3907 57.0006 58.512C56.7486 58.6333 56.5106 58.7593 56.2866 58.89L55.7686 57.952C56.0206 57.8027 56.3099 57.6533 56.6366 57.504C56.9632 57.3453 57.3132 57.2193 57.6866 57.126C58.0692 57.0327 58.4566 56.986 58.8486 56.986C59.4832 56.986 60.0106 57.1027 60.4306 57.336C60.8506 57.5693 61.1679 57.9007 61.3826 58.33C61.5972 58.7593 61.7046 59.2773 61.7046 59.884V64H60.5706L60.4586 63.118H60.4166C60.0526 63.398 59.6419 63.6453 59.1846 63.86C58.7272 64.0653 58.2652 64.168 57.7986 64.168ZM58.1906 63.062C58.5546 63.062 58.9139 62.9827 59.2686 62.824C59.6232 62.6653 59.9732 62.4413 60.3186 62.152V60.528C59.4226 60.5933 58.7179 60.696 58.2046 60.836C57.7006 60.976 57.3459 61.1533 57.1406 61.368C56.9352 61.5733 56.8326 61.816 56.8326 62.096C56.8326 62.32 56.8932 62.5067 57.0146 62.656C57.1452 62.796 57.3132 62.8987 57.5186 62.964C57.7239 63.0293 57.9479 63.062 58.1906 63.062ZM66.5571 64.168C65.6704 64.168 64.9564 63.8553 64.4151 63.23C63.8738 62.5953 63.6031 61.7133 63.6031 60.584C63.6031 59.8467 63.7478 59.212 64.0371 58.68C64.3358 58.1387 64.7184 57.7233 65.1851 57.434C65.6518 57.1353 66.1464 56.986 66.6691 56.986C67.0704 56.986 67.4298 57.0607 67.7471 57.21C68.0644 57.3593 68.3584 57.5693 68.6291 57.84H68.6711L68.6011 56.622V54.074H69.9871V64H68.8531L68.7411 63.16H68.6991C68.4284 63.4307 68.1064 63.6687 67.7331 63.874C67.3598 64.07 66.9678 64.168 66.5571 64.168ZM66.8791 63.02C67.1871 63.02 67.4811 62.9453 67.7611 62.796C68.0504 62.6373 68.3304 62.404 68.6011 62.096V58.848C68.3304 58.596 68.0598 58.4187 67.7891 58.316C67.5184 58.204 67.2478 58.148 66.9771 58.148C66.6224 58.148 66.2958 58.246 65.9971 58.442C65.7078 58.638 65.4744 58.918 65.2971 59.282C65.1198 59.646 65.0311 60.0753 65.0311 60.57C65.0311 61.354 65.1944 61.9607 65.5211 62.39C65.8478 62.81 66.3004 63.02 66.8791 63.02ZM72.6696 63.384V62.082L76.7576 59.38V59.324L72.6696 56.622V55.32L77.9476 58.848V59.856L72.6696 63.384Z" fill="#D29955"/>
<path d="M76.3386 122.35C73.9053 122.35 71.7053 121.933 69.7386 121.1C67.8053 120.267 66.272 119.067 65.1386 117.5C64.0053 115.933 63.422 114.083 63.3886 111.95H70.8886C70.9886 113.383 71.4886 114.517 72.3886 115.35C73.322 116.183 74.5886 116.6 76.1886 116.6C77.822 116.6 79.1053 116.217 80.0386 115.45C80.972 114.65 81.4386 113.617 81.4386 112.35C81.4386 111.317 81.122 110.467 80.4886 109.8C79.8553 109.133 79.0553 108.617 78.0886 108.25C77.1553 107.85 75.8553 107.417 74.1886 106.95C71.922 106.283 70.072 105.633 68.6386 105C67.2386 104.333 66.022 103.35 64.9886 102.05C63.9886 100.717 63.4886 98.95 63.4886 96.75C63.4886 94.6833 64.0053 92.8833 65.0386 91.35C66.072 89.8167 67.522 88.65 69.3886 87.85C71.2553 87.0167 73.3886 86.6 75.7886 86.6C79.3886 86.6 82.3053 87.4833 84.5386 89.25C86.8053 90.9833 88.0553 93.4167 88.2886 96.55H80.5886C80.522 95.35 80.0053 94.3667 79.0386 93.6C78.1053 92.8 76.8553 92.4 75.2886 92.4C73.922 92.4 72.822 92.75 71.9886 93.45C71.1886 94.15 70.7886 95.1667 70.7886 96.5C70.7886 97.4333 71.0886 98.2167 71.6886 98.85C72.322 99.45 73.0886 99.95 73.9886 100.35C74.922 100.717 76.222 101.15 77.8886 101.65C80.1553 102.317 82.0053 102.983 83.4386 103.65C84.872 104.317 86.1053 105.317 87.1386 106.65C88.172 107.983 88.6886 109.733 88.6886 111.9C88.6886 113.767 88.2053 115.5 87.2386 117.1C86.272 118.7 84.8553 119.983 82.9886 120.95C81.122 121.883 78.9053 122.35 76.3386 122.35ZM107.057 122.45C104.391 122.45 101.991 121.867 99.8574 120.7C97.724 119.5 96.0407 117.817 94.8074 115.65C93.6074 113.483 93.0074 110.983 93.0074 108.15C93.0074 105.317 93.624 102.817 94.8574 100.65C96.124 98.4833 97.8407 96.8167 100.007 95.65C102.174 94.45 104.591 93.85 107.257 93.85C109.924 93.85 112.341 94.45 114.507 95.65C116.674 96.8167 118.374 98.4833 119.607 100.65C120.874 102.817 121.507 105.317 121.507 108.15C121.507 110.983 120.857 113.483 119.557 115.65C118.291 117.817 116.557 119.5 114.357 120.7C112.191 121.867 109.757 122.45 107.057 122.45ZM107.057 116.35C108.324 116.35 109.507 116.05 110.607 115.45C111.741 114.817 112.641 113.883 113.307 112.65C113.974 111.417 114.307 109.917 114.307 108.15C114.307 105.517 113.607 103.5 112.207 102.1C110.841 100.667 109.157 99.95 107.157 99.95C105.157 99.95 103.474 100.667 102.107 102.1C100.774 103.5 100.107 105.517 100.107 108.15C100.107 110.783 100.757 112.817 102.057 114.25C103.391 115.65 105.057 116.35 107.057 116.35ZM139.342 100.05H134.492V122H127.392V100.05H124.242V94.3H127.392V92.9C127.392 89.5 128.359 87 130.292 85.4C132.225 83.8 135.142 83.05 139.042 83.15V89.05C137.342 89.0167 136.159 89.3 135.492 89.9C134.825 90.5 134.492 91.5833 134.492 93.15V94.3H139.342V100.05ZM152.028 100.05V113.45C152.028 114.383 152.245 115.067 152.678 115.5C153.145 115.9 153.912 116.1 154.978 116.1H158.228V122H153.828C147.928 122 144.978 119.133 144.978 113.4V100.05H141.678V94.3H144.978V87.45H152.028V94.3H158.228V100.05H152.028ZM201.663 94.3L193.563 122H186.013L180.963 102.65L175.913 122H168.313L160.163 94.3H167.263L172.163 115.4L177.463 94.3H184.863L190.063 115.35L194.963 94.3H201.663ZM203.651 108.05C203.651 105.25 204.201 102.767 205.301 100.6C206.434 98.4333 207.951 96.7667 209.851 95.6C211.784 94.4333 213.934 93.85 216.301 93.85C218.367 93.85 220.167 94.2667 221.701 95.1C223.267 95.9333 224.517 96.9833 225.451 98.25V94.3H232.501V122H225.451V117.95C224.551 119.25 223.301 120.333 221.701 121.2C220.134 122.033 218.317 122.45 216.251 122.45C213.917 122.45 211.784 121.85 209.851 120.65C207.951 119.45 206.434 117.767 205.301 115.6C204.201 113.4 203.651 110.883 203.651 108.05ZM225.451 108.15C225.451 106.45 225.117 105 224.451 103.8C223.784 102.567 222.884 101.633 221.751 101C220.617 100.333 219.401 100 218.101 100C216.801 100 215.601 100.317 214.501 100.95C213.401 101.583 212.501 102.517 211.801 103.75C211.134 104.95 210.801 106.383 210.801 108.05C210.801 109.717 211.134 111.183 211.801 112.45C212.501 113.683 213.401 114.633 214.501 115.3C215.634 115.967 216.834 116.3 218.101 116.3C219.401 116.3 220.617 115.983 221.751 115.35C222.884 114.683 223.784 113.75 224.451 112.55C225.117 111.317 225.451 109.85 225.451 108.15ZM246.337 98.6C247.237 97.1333 248.404 95.9833 249.837 95.15C251.304 94.3167 252.971 93.9 254.837 93.9V101.25H252.987C250.787 101.25 249.121 101.767 247.987 102.8C246.887 103.833 246.337 105.633 246.337 108.2V122H239.337V94.3H246.337V98.6ZM285.302 107.55C285.302 108.55 285.236 109.45 285.102 110.25H264.852C265.019 112.25 265.719 113.817 266.952 114.95C268.186 116.083 269.702 116.65 271.502 116.65C274.102 116.65 275.952 115.533 277.052 113.3H284.602C283.802 115.967 282.269 118.167 280.002 119.9C277.736 121.6 274.952 122.45 271.652 122.45C268.986 122.45 266.586 121.867 264.452 120.7C262.352 119.5 260.702 117.817 259.502 115.65C258.336 113.483 257.752 110.983 257.752 108.15C257.752 105.283 258.336 102.767 259.502 100.6C260.669 98.4333 262.302 96.7667 264.402 95.6C266.502 94.4333 268.919 93.85 271.652 93.85C274.286 93.85 276.636 94.4167 278.702 95.55C280.802 96.6833 282.419 98.3 283.552 100.4C284.719 102.467 285.302 104.85 285.302 107.55ZM278.052 105.55C278.019 103.75 277.369 102.317 276.102 101.25C274.836 100.15 273.286 99.6 271.452 99.6C269.719 99.6 268.252 100.133 267.052 101.2C265.886 102.233 265.169 103.683 264.902 105.55H278.052ZM314.526 87.1C318.192 87.1 321.409 87.8167 324.176 89.25C326.976 90.6833 329.126 92.7333 330.626 95.4C332.159 98.0333 332.926 101.1 332.926 104.6C332.926 108.1 332.159 111.167 330.626 113.8C329.126 116.4 326.976 118.417 324.176 119.85C321.409 121.283 318.192 122 314.526 122H302.326V87.1H314.526ZM314.276 116.05C317.942 116.05 320.776 115.05 322.776 113.05C324.776 111.05 325.776 108.233 325.776 104.6C325.776 100.967 324.776 98.1333 322.776 96.1C320.776 94.0333 317.942 93 314.276 93H309.326V116.05H314.276ZM363.916 107.55C363.916 108.55 363.849 109.45 363.716 110.25H343.466C343.632 112.25 344.332 113.817 345.566 114.95C346.799 116.083 348.316 116.65 350.116 116.65C352.716 116.65 354.566 115.533 355.666 113.3H363.216C362.416 115.967 360.882 118.167 358.616 119.9C356.349 121.6 353.566 122.45 350.266 122.45C347.599 122.45 345.199 121.867 343.066 120.7C340.966 119.5 339.316 117.817 338.116 115.65C336.949 113.483 336.366 110.983 336.366 108.15C336.366 105.283 336.949 102.767 338.116 100.6C339.282 98.4333 340.916 96.7667 343.016 95.6C345.116 94.4333 347.532 93.85 350.266 93.85C352.899 93.85 355.249 94.4167 357.316 95.55C359.416 96.6833 361.032 98.3 362.166 100.4C363.332 102.467 363.916 104.85 363.916 107.55ZM356.666 105.55C356.632 103.75 355.982 102.317 354.716 101.25C353.449 100.15 351.899 99.6 350.066 99.6C348.332 99.6 346.866 100.133 345.666 101.2C344.499 102.233 343.782 103.683 343.516 105.55H356.666ZM380.575 115.55L387.575 94.3H395.025L384.775 122H376.275L366.075 94.3H373.575L380.575 115.55ZM424.707 107.55C424.707 108.55 424.64 109.45 424.507 110.25H404.257C404.423 112.25 405.123 113.817 406.357 114.95C407.59 116.083 409.107 116.65 410.907 116.65C413.507 116.65 415.357 115.533 416.457 113.3H424.007C423.207 115.967 421.673 118.167 419.407 119.9C417.14 121.6 414.357 122.45 411.057 122.45C408.39 122.45 405.99 121.867 403.857 120.7C401.757 119.5 400.107 117.817 398.907 115.65C397.74 113.483 397.157 110.983 397.157 108.15C397.157 105.283 397.74 102.767 398.907 100.6C400.073 98.4333 401.707 96.7667 403.807 95.6C405.907 94.4333 408.323 93.85 411.057 93.85C413.69 93.85 416.04 94.4167 418.107 95.55C420.207 96.6833 421.823 98.3 422.957 100.4C424.123 102.467 424.707 104.85 424.707 107.55ZM417.457 105.55C417.423 103.75 416.773 102.317 415.507 101.25C414.24 100.15 412.69 99.6 410.857 99.6C409.123 99.6 407.657 100.133 406.457 101.2C405.29 102.233 404.573 103.683 404.307 105.55H417.457ZM436.816 85V122H429.816V85H436.816ZM456.032 122.45C453.365 122.45 450.965 121.867 448.832 120.7C446.699 119.5 445.015 117.817 443.782 115.65C442.582 113.483 441.982 110.983 441.982 108.15C441.982 105.317 442.599 102.817 443.832 100.65C445.099 98.4833 446.815 96.8167 448.982 95.65C451.149 94.45 453.565 93.85 456.232 93.85C458.899 93.85 461.315 94.45 463.482 95.65C465.649 96.8167 467.349 98.4833 468.582 100.65C469.849 102.817 470.482 105.317 470.482 108.15C470.482 110.983 469.832 113.483 468.532 115.65C467.265 117.817 465.532 119.5 463.332 120.7C461.165 121.867 458.732 122.45 456.032 122.45ZM456.032 116.35C457.299 116.35 458.482 116.05 459.582 115.45C460.715 114.817 461.615 113.883 462.282 112.65C462.949 111.417 463.282 109.917 463.282 108.15C463.282 105.517 462.582 103.5 461.182 102.1C459.815 100.667 458.132 99.95 456.132 99.95C454.132 99.95 452.449 100.667 451.082 102.1C449.749 103.5 449.082 105.517 449.082 108.15C449.082 110.783 449.732 112.817 451.032 114.25C452.365 115.65 454.032 116.35 456.032 116.35ZM482.617 98.3C483.517 97.0333 484.75 95.9833 486.317 95.15C487.917 94.2833 489.733 93.85 491.767 93.85C494.133 93.85 496.267 94.4333 498.167 95.6C500.1 96.7667 501.617 98.4333 502.717 100.6C503.85 102.733 504.417 105.217 504.417 108.05C504.417 110.883 503.85 113.4 502.717 115.6C501.617 117.767 500.1 119.45 498.167 120.65C496.267 121.85 494.133 122.45 491.767 122.45C489.733 122.45 487.933 122.033 486.367 121.2C484.833 120.367 483.583 119.317 482.617 118.05V135.2H475.617V94.3H482.617V98.3ZM497.267 108.05C497.267 106.383 496.917 104.95 496.217 103.75C495.55 102.517 494.65 101.583 493.517 100.95C492.417 100.317 491.217 100 489.917 100C488.65 100 487.45 100.333 486.317 101C485.217 101.633 484.317 102.567 483.617 103.8C482.95 105.033 482.617 106.483 482.617 108.15C482.617 109.817 482.95 111.267 483.617 112.5C484.317 113.733 485.217 114.683 486.317 115.35C487.45 115.983 488.65 116.3 489.917 116.3C491.217 116.3 492.417 115.967 493.517 115.3C494.65 114.633 495.55 113.683 496.217 112.45C496.917 111.217 497.267 109.75 497.267 108.05ZM543.903 93.9C547.303 93.9 550.037 94.95 552.103 97.05C554.203 99.1167 555.253 102.017 555.253 105.75V122H548.253V106.7C548.253 104.533 547.703 102.883 546.603 101.75C545.503 100.583 544.003 100 542.103 100C540.203 100 538.687 100.583 537.553 101.75C536.453 102.883 535.903 104.533 535.903 106.7V122H528.903V106.7C528.903 104.533 528.353 102.883 527.253 101.75C526.153 100.583 524.653 100 522.753 100C520.82 100 519.287 100.583 518.153 101.75C517.053 102.883 516.503 104.533 516.503 106.7V122H509.503V94.3H516.503V97.65C517.403 96.4833 518.553 95.5667 519.953 94.9C521.387 94.2333 522.953 93.9 524.653 93.9C526.82 93.9 528.753 94.3667 530.453 95.3C532.153 96.2 533.47 97.5 534.403 99.2C535.303 97.6 536.603 96.3167 538.303 95.35C540.037 94.3833 541.903 93.9 543.903 93.9ZM587.646 107.55C587.646 108.55 587.579 109.45 587.446 110.25H567.196C567.363 112.25 568.063 113.817 569.296 114.95C570.529 116.083 572.046 116.65 573.846 116.65C576.446 116.65 578.296 115.533 579.396 113.3H586.946C586.146 115.967 584.613 118.167 582.346 119.9C580.079 121.6 577.296 122.45 573.996 122.45C571.329 122.45 568.929 121.867 566.796 120.7C564.696 119.5 563.046 117.817 561.846 115.65C560.679 113.483 560.096 110.983 560.096 108.15C560.096 105.283 560.679 102.767 561.846 100.6C563.013 98.4333 564.646 96.7667 566.746 95.6C568.846 94.4333 571.263 93.85 573.996 93.85C576.629 93.85 578.979 94.4167 581.046 95.55C583.146 96.6833 584.763 98.3 585.896 100.4C587.063 102.467 587.646 104.85 587.646 107.55ZM580.396 105.55C580.363 103.75 579.713 102.317 578.446 101.25C577.179 100.15 575.629 99.6 573.796 99.6C572.063 99.6 570.596 100.133 569.396 101.2C568.229 102.233 567.513 103.683 567.246 105.55H580.396ZM608.105 93.9C611.405 93.9 614.072 94.95 616.105 97.05C618.139 99.1167 619.155 102.017 619.155 105.75V122H612.155V106.7C612.155 104.5 611.605 102.817 610.505 101.65C609.405 100.45 607.905 99.85 606.005 99.85C604.072 99.85 602.539 100.45 601.405 101.65C600.305 102.817 599.755 104.5 599.755 106.7V122H592.755V94.3H599.755V97.75C600.689 96.55 601.872 95.6167 603.305 94.95C604.772 94.25 606.372 93.9 608.105 93.9ZM633.962 100.05V113.45C633.962 114.383 634.179 115.067 634.612 115.5C635.079 115.9 635.845 116.1 636.912 116.1H640.162V122H635.762C629.862 122 626.912 119.133 626.912 113.4V100.05H623.612V94.3H626.912V87.45H633.962V94.3H640.162V100.05H633.962Z" fill="white"/>
<path d="M35.9877 154.384L30.7097 150.856V149.848L35.9877 146.32V147.622L31.8997 150.324V150.38L35.9877 153.082V154.384ZM38.7402 157.24L43.3322 145.06H44.5362L39.9442 157.24H38.7402ZM47.0648 155V145.074H48.4508V147.706L48.3668 149.246H48.4088C48.7354 148.901 49.0994 148.607 49.5008 148.364C49.9021 148.112 50.3641 147.986 50.8868 147.986C51.6894 147.986 52.2774 148.229 52.6508 148.714C53.0241 149.19 53.2108 149.871 53.2108 150.758V155H51.8248V150.94C51.8248 150.343 51.7128 149.904 51.4888 149.624C51.2741 149.335 50.9101 149.19 50.3968 149.19C50.0328 149.19 49.7061 149.283 49.4168 149.47C49.1274 149.647 48.8054 149.918 48.4508 150.282V155H47.0648ZM58.8473 155.168C58.1566 155.168 57.5266 155.028 56.9573 154.748C56.3973 154.468 55.954 154.057 55.6273 153.516C55.3006 152.975 55.1373 152.326 55.1373 151.57C55.1373 150.823 55.3006 150.184 55.6273 149.652C55.9633 149.12 56.3973 148.709 56.9293 148.42C57.4613 148.131 58.0306 147.986 58.6373 147.986C59.3093 147.986 59.8786 148.126 60.3453 148.406C60.812 148.677 61.1666 149.055 61.4093 149.54C61.6613 150.016 61.7873 150.576 61.7873 151.22C61.7873 151.36 61.7826 151.5 61.7733 151.64C61.764 151.771 61.75 151.883 61.7313 151.976H56.1033V150.954H60.8633L60.5553 151.29C60.5553 150.553 60.3873 150.002 60.0513 149.638C59.7153 149.265 59.258 149.078 58.6793 149.078C58.278 149.078 57.9093 149.176 57.5733 149.372C57.2466 149.559 56.9853 149.839 56.7893 150.212C56.5933 150.576 56.4953 151.029 56.4953 151.57C56.4953 152.13 56.6026 152.597 56.8173 152.97C57.0413 153.334 57.34 153.609 57.7133 153.796C58.096 153.983 58.5346 154.076 59.0293 154.076C59.412 154.076 59.762 154.025 60.0793 153.922C60.3966 153.81 60.7093 153.661 61.0173 153.474L61.5073 154.356C61.162 154.589 60.7653 154.785 60.3173 154.944C59.8693 155.093 59.3793 155.168 58.8473 155.168ZM65.9958 155.168C65.5572 155.168 65.1605 155.089 64.8058 154.93C64.4605 154.762 64.1852 154.533 63.9798 154.244C63.7838 153.945 63.6858 153.595 63.6858 153.194C63.6858 152.429 64.0592 151.845 64.8058 151.444C65.5618 151.043 66.7985 150.777 68.5158 150.646C68.5065 150.366 68.4412 150.109 68.3198 149.876C68.2078 149.643 68.0258 149.461 67.7738 149.33C67.5312 149.19 67.2092 149.12 66.8078 149.12C66.5278 149.12 66.2525 149.157 65.9818 149.232C65.7112 149.297 65.4498 149.391 65.1978 149.512C64.9458 149.633 64.7078 149.759 64.4838 149.89L63.9658 148.952C64.2178 148.803 64.5072 148.653 64.8338 148.504C65.1605 148.345 65.5105 148.219 65.8838 148.126C66.2665 148.033 66.6538 147.986 67.0458 147.986C67.6805 147.986 68.2078 148.103 68.6278 148.336C69.0478 148.569 69.3652 148.901 69.5798 149.33C69.7945 149.759 69.9018 150.277 69.9018 150.884V155H68.7678L68.6558 154.118H68.6138C68.2498 154.398 67.8392 154.645 67.3818 154.86C66.9245 155.065 66.4625 155.168 65.9958 155.168ZM66.3878 154.062C66.7518 154.062 67.1112 153.983 67.4658 153.824C67.8205 153.665 68.1705 153.441 68.5158 153.152V151.528C67.6198 151.593 66.9152 151.696 66.4018 151.836C65.8978 151.976 65.5432 152.153 65.3378 152.368C65.1325 152.573 65.0298 152.816 65.0298 153.096C65.0298 153.32 65.0905 153.507 65.2118 153.656C65.3425 153.796 65.5105 153.899 65.7158 153.964C65.9212 154.029 66.1452 154.062 66.3878 154.062ZM74.7544 155.168C73.8677 155.168 73.1537 154.855 72.6124 154.23C72.071 153.595 71.8004 152.713 71.8004 151.584C71.8004 150.847 71.945 150.212 72.2344 149.68C72.533 149.139 72.9157 148.723 73.3824 148.434C73.849 148.135 74.3437 147.986 74.8664 147.986C75.2677 147.986 75.627 148.061 75.9444 148.21C76.2617 148.359 76.5557 148.569 76.8264 148.84H76.8684L76.7984 147.622V145.074H78.1844V155H77.0504L76.9384 154.16H76.8964C76.6257 154.431 76.3037 154.669 75.9304 154.874C75.557 155.07 75.165 155.168 74.7544 155.168ZM75.0764 154.02C75.3844 154.02 75.6784 153.945 75.9584 153.796C76.2477 153.637 76.5277 153.404 76.7984 153.096V149.848C76.5277 149.596 76.257 149.419 75.9864 149.316C75.7157 149.204 75.445 149.148 75.1744 149.148C74.8197 149.148 74.493 149.246 74.1944 149.442C73.905 149.638 73.6717 149.918 73.4944 150.282C73.317 150.646 73.2284 151.075 73.2284 151.57C73.2284 152.354 73.3917 152.961 73.7184 153.39C74.045 153.81 74.4977 154.02 75.0764 154.02ZM80.8669 154.384V153.082L84.9549 150.38V150.324L80.8669 147.622V146.32L86.1449 149.848V150.856L80.8669 154.384Z" fill="#D29955"/>
</svg>
