<svg width="69" height="48" viewBox="0 0 69 48" fill="none" xmlns="http://www.w3.org/2000/svg">
<rect width="69" height="48" fill="white"/>
<path fill-rule="evenodd" clip-rule="evenodd" d="M23.683 0.191406L35.9093 5.47846V20.7454L47.2218 25.6373V41.7868L35.2947 47.7403L23.9494 42.2118L12.6799 47.8466L0.453125 41.8985V25.7436L11.7749 20.8477V5.48385L23.683 0.191406ZM23.0874 40.9658V27.3905L13.4253 31.6847V45.7968L23.0874 40.9658ZM34.4093 20.6107L24.4371 25.0428V11.425L34.4093 7.1127V20.6107ZM24.5874 40.8541L34.5407 45.7043V31.5835L24.5874 27.2723V40.8541ZM26.2225 26.3458L35.2871 30.2721L44.6026 26.1389L35.0971 22.0284L26.2225 26.3458ZM21.4622 26.4713L13.005 22.2427L12.6712 22.0944L3.09272 26.2364L12.6712 30.3784L21.4622 26.4713ZM22.9371 11.4196V25.0155L13.6454 20.8859L13.2749 20.7006V7.12533L22.9371 11.4196ZM23.6912 1.82922L14.3716 5.97126L23.6912 10.1133L33.2697 5.97126L23.6912 1.82922ZM1.95312 27.3778L11.9253 31.6901V45.8115L1.95312 40.9601V27.3778ZM36.0407 31.5788L45.7218 27.2833V40.8591L36.0407 45.6914V31.5788Z" fill="#7E7E7E"/>
</svg>
