<svg width="69" height="48" viewBox="0 0 69 48" fill="none" xmlns="http://www.w3.org/2000/svg">
<rect width="69" height="48" fill="white"/>
<path fill-rule="evenodd" clip-rule="evenodd" d="M39.0697 8.50403C39.348 8.02698 39.1868 7.41466 38.7098 7.13638C38.2327 6.8581 37.6204 7.01924 37.3421 7.49629L18.6754 39.4963C18.3972 39.9733 18.5583 40.5857 19.0354 40.8639C19.5124 41.1422 20.1247 40.9811 20.403 40.504L39.0697 8.50403ZM12.6238 11.4835C13.0143 11.874 13.0143 12.5072 12.6238 12.8977L2.66421 22.8573L12.6238 32.8168C13.0143 33.2074 13.0143 33.8405 12.6238 34.2311C12.2332 34.6216 11.6001 34.6216 11.2096 34.2311L0.542893 23.5644C0.152369 23.1739 0.152369 22.5407 0.542893 22.1502L11.2096 11.4835C11.6001 11.093 12.2332 11.093 12.6238 11.4835ZM46.259 11.4835C45.8685 11.874 45.8685 12.5072 46.259 12.8977L56.2186 22.8573L46.259 32.8168C45.8685 33.2074 45.8685 33.8405 46.259 34.2311C46.6496 34.6216 47.2827 34.6216 47.6733 34.2311L58.3399 23.5644C58.7304 23.1739 58.7304 22.5407 58.3399 22.1502L47.6733 11.4835C47.2827 11.093 46.6496 11.093 46.259 11.4835Z" fill="#7E7E7E"/>
</svg>
