<svg width="70" height="48" viewBox="0 0 70 48" fill="none" xmlns="http://www.w3.org/2000/svg">
<rect x="0.5" width="69" height="48" fill="white"/>
<path fill-rule="evenodd" clip-rule="evenodd" d="M57.8692 12.4902L56.0617 11.4467C56.0735 11.2835 56.0793 11.1197 56.0793 10.9568C56.0793 10.7938 56.0734 10.6301 56.0617 10.4669L57.8692 9.42333C58.0426 9.32323 58.169 9.15839 58.2208 8.96503C58.2726 8.77175 58.2455 8.56576 58.1455 8.39242L55.9352 4.56429C55.8351 4.39095 55.6702 4.26448 55.4769 4.21268C55.2837 4.16089 55.0777 4.1879 54.9043 4.28807L53.0971 5.33154C52.826 5.14731 52.5424 4.98326 52.2484 4.84051V2.75469C52.2484 2.33794 51.9104 2 51.4937 2H47.0733C46.6565 2 46.3186 2.33794 46.3186 2.75469V4.84051C46.0245 4.98326 45.741 5.14731 45.4698 5.33154L43.6626 4.28807C43.4894 4.1879 43.2834 4.16073 43.09 4.21268C42.8966 4.26448 42.7318 4.39095 42.6317 4.56429L40.4216 8.39242C40.2131 8.7534 40.3368 9.21488 40.6978 9.42333L42.5052 10.4669C42.4935 10.6301 42.4876 10.7939 42.4876 10.9568C42.4876 11.1198 42.4935 11.2835 42.5052 11.4467L40.6978 12.4902C40.3369 12.6986 40.2131 13.1602 40.4216 13.5212L42.6317 17.3493C42.7318 17.5226 42.8967 17.6491 43.09 17.7009C43.2832 17.7528 43.4893 17.7257 43.6626 17.6255L45.4698 16.582C45.741 16.7663 46.0245 16.9303 46.3186 17.0731V19.1589C46.3186 19.5756 46.6565 19.9136 47.0733 19.9136H51.4937C51.9104 19.9136 52.2484 19.5756 52.2484 19.1589V17.0731C52.5424 16.9303 52.826 16.7663 53.0971 16.582L54.9043 17.6255C55.0776 17.7256 55.2836 17.7528 55.4769 17.7009C55.6703 17.6491 55.8351 17.5226 55.9352 17.3493L58.1455 13.5212C58.2455 13.3478 58.2726 13.1418 58.2208 12.9485C58.169 12.7551 58.0426 12.5903 57.8692 12.4902ZM55.0054 15.9409L53.4247 15.0282C53.156 14.8732 52.8195 14.8983 52.5768 15.0919C52.1633 15.4216 51.7061 15.6862 51.2174 15.8784C50.9287 15.9919 50.739 16.2705 50.739 16.5807V18.4042H47.828V16.5807C47.828 16.2706 47.6382 15.9919 47.3495 15.8784C46.8609 15.6862 46.4036 15.4216 45.9902 15.0919C45.7475 14.8982 45.411 14.8732 45.1422 15.0282L43.5615 15.9409L42.1061 13.42L43.6861 12.5077C43.9546 12.3528 44.1009 12.0494 44.0552 11.7429C44.0166 11.4836 43.997 11.2191 43.997 10.9568C43.997 10.6945 44.0166 10.43 44.0552 10.1706C44.1009 9.86415 43.9546 9.56076 43.6861 9.40585L42.1061 8.49355L43.5615 5.97255L45.1422 6.88525C45.4111 7.0404 45.7476 7.0153 45.9902 6.82162C46.4036 6.49194 46.8609 6.22732 47.3495 6.03507C47.6382 5.92163 47.828 5.64303 47.828 5.33281V3.50931H50.739V5.33281C50.739 5.64295 50.9287 5.92155 51.2174 6.03507C51.7061 6.22732 52.1633 6.49194 52.5768 6.82162C52.8195 7.0153 53.156 7.0404 53.4247 6.88525L55.0054 5.97255L56.461 8.49355L54.8808 9.40585C54.6124 9.56076 54.466 9.86415 54.5117 10.1706C54.5503 10.43 54.57 10.6945 54.57 10.9568C54.57 11.2191 54.5503 11.4836 54.5117 11.7429C54.466 12.0494 54.6124 12.3528 54.8808 12.5077L56.461 13.42L55.0054 15.9409ZM46.2188 10.9568C46.2188 9.26992 47.5911 7.89764 49.278 7.89764C50.9648 7.89764 52.3371 9.26992 52.3371 10.9568C52.3371 12.6436 50.9648 14.0159 49.278 14.0159C47.5911 14.0159 46.2188 12.6436 46.2188 10.9568ZM47.7281 10.9567C47.7281 11.8113 48.4234 12.5064 49.278 12.5064C50.1325 12.5064 50.8277 11.8113 50.8277 10.9567C50.8277 10.1021 50.1325 9.40695 49.278 9.40695C48.4234 9.40695 47.7281 10.1021 47.7281 10.9567ZM9.61079 12.4076C8.86356 12.4076 8.25781 13.0133 8.25781 13.7606C8.25781 14.5078 8.86356 15.1135 9.61079 15.1135C10.358 15.1135 10.9638 14.5078 10.9638 13.7606C10.9638 13.0133 10.358 12.4076 9.61079 12.4076ZM14.1186 12.4076C13.3714 12.4076 12.7656 13.0133 12.7656 13.7606C12.7656 14.5078 13.3714 15.1135 14.1186 15.1135C14.8658 15.1135 15.4716 14.5078 15.4716 13.7606C15.4716 13.0133 14.8658 12.4076 14.1186 12.4076ZM15.2065 35.3424H17.0457L13.2898 25.2374H11.4013L7.61719 35.3424H9.44934L10.3231 32.7704H14.2975L15.2065 35.3424ZM12.4513 27.3726L13.8536 31.4033H10.76L12.1482 27.3726C12.1999 27.2176 12.2469 27.0062 12.2892 26.7384H12.3174C12.3643 27.0296 12.409 27.241 12.4513 27.3726ZM20.1111 35.3424V31.6781H21.457C22.5939 31.6781 23.4958 31.3657 24.1629 30.7409C24.83 30.1161 25.1636 29.3128 25.1636 28.3309C25.1636 27.3491 24.8441 26.5881 24.2052 26.0478C23.5663 25.5076 22.6667 25.2374 21.5063 25.2374H18.441V35.3424H20.1111ZM20.1111 30.3111V26.6186H21.3301C22.7113 26.6186 23.4019 27.2129 23.4019 28.4014C23.4019 29.0074 23.214 29.4772 22.8381 29.8108C22.4623 30.1443 21.915 30.3111 21.1963 30.3111H20.1111ZM28.553 31.6781V35.3424H26.883V25.2374H29.9483C31.1087 25.2374 32.0083 25.5076 32.6472 26.0478C33.2861 26.5881 33.6056 27.3491 33.6056 28.3309C33.6056 29.3128 33.272 30.1161 32.6049 30.7409C31.9378 31.3657 31.0358 31.6781 29.899 31.6781H28.553ZM28.553 26.6186V30.3111H29.6382C30.357 30.3111 30.9043 30.1443 31.2801 29.8108C31.656 29.4772 31.8439 29.0074 31.8439 28.4014C31.8439 27.2129 31.1533 26.6186 29.7721 26.6186H28.553ZM4.75 5.25C2.12665 5.25 0 7.37665 0 10V40.5C0 43.1234 2.12665 45.25 4.75 45.25H50.75C53.3734 45.25 55.5 43.1234 55.5 40.5V20.5H54V40.5C54 42.2949 52.5449 43.75 50.75 43.75H4.75C2.95507 43.75 1.5 42.2949 1.5 40.5V10C1.5 8.20507 2.95508 6.75 4.75 6.75H38.25V5.25H4.75Z" fill="#7E7E7E"/>
</svg>
