<svg width="69" height="48" viewBox="0 0 69 48" fill="none" xmlns="http://www.w3.org/2000/svg">
<rect width="69" height="48" fill="white"/>
<path fill-rule="evenodd" clip-rule="evenodd" d="M43.8432 2.96147C43.618 2.88189 43.4238 2.93754 43.3264 3.0363C40.4852 5.91747 36.6164 8.28127 33.0939 9.90249C31.3284 10.7151 29.6342 11.3483 28.179 11.7693C27.1286 12.0732 26.1663 12.2774 25.3773 12.3459V27.9809C32.9779 28.2572 39.5364 32.6652 42.9989 35.8837C43.0861 35.9648 43.3456 36.0436 43.6972 35.9121C44.0531 35.7789 44.1245 35.5809 44.1245 35.5175V3.26519C44.1245 3.17335 44.0644 3.03967 43.8432 2.96147ZM23.8773 27.9673V12.3323C21.6308 12.233 18.3988 12.1255 15.2306 12.0917C11.6907 12.054 8.28777 12.1095 6.4133 12.3595C4.34202 12.6356 3.02722 13.9727 2.35965 16.0136C1.68056 18.0898 1.70193 20.8454 2.36838 23.7072C2.84583 25.7574 4.22551 26.891 5.83942 27.4921C7.48061 28.1034 9.31376 28.1366 10.4869 27.9743L10.538 27.9673H23.8773ZM44.343 1.54721C44.9897 1.77578 45.6245 2.37093 45.6245 3.26519V35.5175C45.6245 36.4682 44.8742 37.0733 44.2227 37.317C43.5669 37.5623 42.6333 37.5918 41.9777 36.9824C38.5303 33.7779 32.0026 29.4673 24.6273 29.4673H22.2773L29.1299 41.6963L23.6315 44.4929L23.5845 44.5094C22.3892 44.9294 19.6005 45.0819 17.7967 42.4513C16.2864 40.2488 12.2297 33.1586 10.179 29.517C8.84245 29.6303 7.01495 29.5306 5.31587 28.8978C3.35987 28.1692 1.52708 26.7081 0.907473 24.0474C0.202598 21.0206 0.14211 17.9682 0.933982 15.5473C1.73738 13.0911 3.44636 11.2418 6.21505 10.8726C8.21255 10.6063 11.7207 10.5542 15.2466 10.5918C18.7904 10.6296 22.4102 10.759 24.6632 10.8669L24.6679 10.8671C25.2963 10.9012 26.3669 10.732 27.7621 10.3284C29.1358 9.93098 30.7595 9.32562 32.4668 8.53988C35.8898 6.96447 39.5862 4.69275 42.2584 1.98306C42.8534 1.37968 43.7003 1.32004 44.343 1.54721ZM11.8732 29.4673H20.5578L27.058 41.0673L23.0438 43.1089C22.2231 43.3769 20.3045 43.4562 19.0338 41.603C17.6557 39.5932 14.0163 33.2592 11.8732 29.4673ZM4.84375 16.3886C4.84375 15.9744 5.17954 15.6386 5.59375 15.6386H11.2588C11.673 15.6386 12.0088 15.9744 12.0088 16.3886C12.0088 16.8028 11.673 17.1386 11.2588 17.1386H5.59375C5.17954 17.1386 4.84375 16.8028 4.84375 16.3886ZM5.59375 19.0473C5.17954 19.0473 4.84375 19.3831 4.84375 19.7973C4.84375 20.2115 5.17954 20.5473 5.59375 20.5473H11.2588C11.673 20.5473 12.0088 20.2115 12.0088 19.7973C12.0088 19.3831 11.673 19.0473 11.2588 19.0473H5.59375ZM50.1603 10.608C50.4319 10.2953 50.9056 10.2619 51.2184 10.5335C52.4775 11.627 53.9856 13.634 54.4291 16.1498C54.8817 18.7174 54.2056 21.7121 51.2569 24.6607C50.964 24.9536 50.4891 24.9536 50.1962 24.6607C49.9034 24.3678 49.9034 23.8929 50.1962 23.6001C52.8267 20.9696 53.3129 18.4583 52.9519 16.4102C52.5817 14.3102 51.3003 12.5914 50.2348 11.666C49.9221 11.3944 49.8887 10.9207 50.1603 10.608ZM55.7027 4.98362C55.39 4.71201 54.9163 4.74536 54.6447 5.05809C54.3731 5.37083 54.4064 5.84453 54.7192 6.11614C56.7748 7.90139 59.2443 11.207 59.961 15.2729C60.6685 19.287 59.6873 24.1432 54.6806 29.1499C54.3877 29.4428 54.3877 29.9177 54.6806 30.2106C54.9735 30.5035 55.4484 30.5035 55.7413 30.2106C61.0662 24.8857 62.2373 19.5461 61.4382 15.0125C60.6482 10.5308 57.9519 6.937 55.7027 4.98362Z" fill="#7E7E7E"/>
</svg>
