<svg width="90" height="37" viewBox="0 0 90 37" fill="none" xmlns="http://www.w3.org/2000/svg">
<path fill-rule="evenodd" clip-rule="evenodd" d="M49.7925 23.3281H57.0298C57.8777 23.3281 58.6852 23.1517 59.3413 22.8353C60.4365 22.3165 60.9563 21.6264 60.9563 20.7185V18.8197C60.9563 18.0934 60.3608 17.393 59.1697 16.9209C58.4843 16.6708 57.7621 16.5444 57.0348 16.5474H53.9966C52.9771 16.5474 52.4976 16.2361 52.3614 15.5409C52.3412 15.4631 52.3412 15.3852 52.3412 15.3022V14.1349C52.3412 14.0727 52.3412 13.9948 52.3614 13.917C52.4976 13.3826 52.7651 13.2426 53.6534 13.1388H61.0623V11.4164H54.0117C52.9922 11.4164 52.4472 11.4786 51.9728 11.6343C50.489 12.1012 49.8379 12.8587 49.8379 14.1868V15.6913C49.8379 16.8586 51.1097 17.8496 53.2698 18.0778C53.502 18.0986 53.7493 18.0986 54.0016 18.0986H56.6008C56.7017 18.0986 56.7926 18.0986 56.8683 18.1193C57.6556 18.1971 58.0039 18.3372 58.231 18.6381C58.3824 18.7938 58.4228 18.9339 58.4228 19.1154V20.62C58.4228 20.7964 58.3067 21.035 58.0695 21.2322C57.8323 21.4293 57.4739 21.5694 56.9894 21.5953C56.8885 21.5953 56.838 21.6161 56.7371 21.6161H49.7925V23.3281ZM76.617 20.3398C76.617 22.1037 77.909 23.0895 80.488 23.2866L81.2198 23.3281H87.7606V21.6161H81.1643C79.6502 21.6161 79.1455 21.2425 79.1455 20.3294V11.4216H76.622V20.345L76.617 20.3398ZM62.5512 20.4176V14.2906C62.5512 12.7341 63.6262 11.7795 65.7307 11.489L66.402 11.4475H71.1764C71.4287 11.4475 71.6407 11.4683 71.8829 11.489C73.9825 11.7847 75.0373 12.7341 75.0373 14.2906V20.4228C75.0373 21.6887 74.5932 22.3631 73.5535 22.8093L76.0164 25.1024H73.1094L71.1057 23.2451L69.0869 23.3644H66.3919C65.9477 23.3644 65.4481 23.3126 64.8778 23.1673C63.283 22.7107 62.4906 21.8392 62.4906 20.4176H62.5512ZM65.2664 20.2827C65.2664 20.3606 65.3068 20.4384 65.327 20.5421C65.4632 21.2529 66.1143 21.6472 67.1136 21.6472H69.3847L67.3054 19.7069H70.2124L72.0394 21.4085C72.3927 21.2114 72.5946 20.9312 72.6753 20.5785C72.6955 20.5006 72.6955 20.4021 72.6955 20.3191V14.4566C72.6955 14.3788 72.6955 14.3009 72.6753 14.2179C72.539 13.5435 71.888 13.1699 70.9089 13.1699H67.1237C66.0134 13.1699 65.2765 13.6628 65.2765 14.4566L65.2664 20.2827Z" fill="#CE8B2C"/>
<path fill-rule="evenodd" clip-rule="evenodd" d="M16.3867 23.3385H18.89V13.1492L22.7963 22.0311C23.2405 23.0998 23.8764 23.4941 25.1078 23.4941C26.3393 23.4941 26.9348 23.0998 27.3991 22.0311L31.2853 13.1492V23.3385H33.8088V13.1492C33.8088 12.1635 33.4252 11.6862 32.6177 11.4268C30.715 10.8353 29.4381 11.3489 28.8628 12.6719L25.0271 21.4552L21.3327 12.6719C20.7776 11.3489 19.4855 10.8353 17.5627 11.4268C16.7753 11.6862 16.3867 12.1531 16.3867 13.1492V23.3385V23.3385ZM35.8831 15.048H38.4065V20.6511C38.3863 20.9624 38.5075 21.6783 39.9206 21.6991H45.3309V15.0065H47.8544V24.1634C47.8544 26.4202 45.1391 26.913 43.8673 26.9338H35.9436V25.2114H43.8926C45.5076 25.035 45.3158 24.2049 45.3158 23.9247V23.2503H39.9812C37.4981 23.2295 35.9032 22.1089 35.8831 20.8119V15.048V15.048Z" fill="#00678C"/>
</svg>
