<svg width="54" height="37" viewBox="0 0 54 37" fill="none" xmlns="http://www.w3.org/2000/svg">
<path d="M2 18.3334C2 25.6971 13.3073 31.6667 27.2551 31.6667C41.2028 31.6667 52.5101 25.6971 52.5101 18.3334C52.5101 10.9697 41.2028 5 27.2551 5C13.3073 5 2 10.9698 2 18.3334Z" fill="url(#paint0_radial_712_102)"/>
<path d="M27.2551 30.6765C40.6582 30.6765 51.5237 25.1503 51.5237 18.3332C51.5237 11.5162 40.6582 5.98997 27.2551 5.98997C13.8521 5.98997 2.98657 11.5162 2.98657 18.3332C2.98657 25.1503 13.8521 30.6765 27.2551 30.6765Z" fill="#777BB3"/>
<path d="M15.7212 19.8638C16.8233 19.8638 17.646 19.6599 18.1665 19.2579C18.6815 18.86 19.0372 18.1704 19.2236 17.2086C19.3974 16.3096 19.3312 15.6819 19.0269 15.3432C18.7156 14.9972 18.0428 14.8217 17.027 14.8217H15.2659L14.2894 19.8639H15.7211L15.7212 19.8638ZM9.96059 26.0749C9.87884 26.0749 9.80119 26.0382 9.74922 25.9748C9.72352 25.9435 9.70503 25.9069 9.69508 25.8676C9.68513 25.8283 9.68397 25.7872 9.69167 25.7474L12.2793 12.3856C12.2914 12.323 12.3249 12.2665 12.374 12.2259C12.4231 12.1853 12.4847 12.1631 12.5483 12.1631H18.1253C19.878 12.1631 21.1826 12.6398 22.0026 13.5829C22.827 14.5299 23.0816 15.8539 22.7592 17.5177C22.628 18.1955 22.4024 18.825 22.0887 19.3888C21.7745 19.953 21.3594 20.4751 20.8547 20.9408C20.2503 21.5085 19.5663 21.9201 18.8235 22.1623C18.0925 22.4013 17.1537 22.5226 16.0331 22.5226H13.7749L13.13 25.8525C13.1179 25.9151 13.0844 25.9716 13.0353 26.0122C12.9863 26.0528 12.9247 26.0751 12.8611 26.0751H9.96059V26.0749Z" fill="black"/>
<path d="M15.492 15.0966H17.0273C18.2531 15.0966 18.6791 15.3666 18.8238 15.5275C19.0638 15.7947 19.1091 16.3579 18.9548 17.1563C18.7815 18.0502 18.4601 18.6839 17.9996 19.0398C17.528 19.4041 16.7615 19.5888 15.7214 19.5888H14.622L15.4919 15.0966H15.492ZM18.1254 11.888H12.5484C12.4213 11.888 12.298 11.9324 12.1999 12.0136C12.1017 12.0948 12.0348 12.2078 12.0105 12.3331L9.4229 25.695C9.40749 25.7747 9.40981 25.8567 9.42972 25.9354C9.44962 26.014 9.4866 26.0872 9.53801 26.1498C9.58942 26.2124 9.65398 26.2628 9.72708 26.2974C9.80018 26.332 9.88 26.35 9.96083 26.35H12.861C12.9882 26.35 13.1115 26.3056 13.2097 26.2244C13.3078 26.1432 13.3748 26.0302 13.3991 25.9049L14.0008 22.7975H16.0333C17.1826 22.7975 18.1501 22.6717 18.9088 22.4238C19.6889 22.1694 20.4069 21.738 21.0421 21.1418C21.5675 20.6566 22.0012 20.1121 22.3282 19.523C22.6552 18.934 22.8918 18.2768 23.0286 17.5702C23.368 15.8188 23.0923 14.4163 22.2093 13.402C21.3349 12.3974 19.9609 11.8881 18.1256 11.8881M13.9573 20.1389H15.7214C16.8906 20.1389 17.7617 19.918 18.3339 19.4757C18.9061 19.0335 19.2923 18.2954 19.4929 17.2611C19.6847 16.2681 19.5974 15.5673 19.2307 15.159C18.864 14.7507 18.1291 14.5466 17.0275 14.5466H15.0403L13.9574 20.1388M18.1257 12.438C19.8034 12.438 21.0274 12.8799 21.7967 13.7637C22.566 14.6474 22.7975 15.8812 22.4906 17.4651C22.3643 18.1176 22.1506 18.7141 21.8498 19.2546C21.549 19.7951 21.1554 20.2899 20.6695 20.7383C20.0904 21.2822 19.447 21.6697 18.7391 21.9008C18.0312 22.1322 17.1296 22.2475 16.0334 22.2475H13.5492L12.8614 25.7999H9.96119L12.5484 12.438H18.1255" fill="white"/>
<path d="M29.4092 22.5226C29.3274 22.5226 29.2498 22.4859 29.1978 22.4225C29.1458 22.3591 29.1246 22.2758 29.1403 22.1951L30.2848 16.283C30.3937 15.7207 30.3669 15.3171 30.2093 15.1466C30.1128 15.0424 29.8231 14.8676 28.9664 14.8676H26.8926L25.4535 22.2999C25.4414 22.3626 25.4079 22.4191 25.3588 22.4597C25.3097 22.5003 25.2481 22.5225 25.1845 22.5225H22.3071C22.2667 22.5225 22.2268 22.5136 22.1902 22.4962C22.1537 22.4789 22.1214 22.4537 22.0957 22.4224C22.07 22.3912 22.0515 22.3545 22.0415 22.3152C22.0316 22.2759 22.0304 22.2349 22.0381 22.1951L24.6257 8.83326C24.6379 8.77061 24.6714 8.71414 24.7204 8.67355C24.7695 8.63295 24.8311 8.61076 24.8947 8.61076H27.7721C27.8125 8.61076 27.8524 8.61973 27.889 8.63704C27.9256 8.65434 27.9578 8.67954 27.9836 8.71083C28.0093 8.74213 28.0278 8.77875 28.0377 8.81806C28.0477 8.85738 28.0488 8.89841 28.0411 8.93823L27.4167 12.1632H29.6475C31.347 12.1632 32.4993 12.4639 33.1707 13.0825C33.8558 13.7136 34.0683 14.7226 33.8053 16.0822L32.6013 22.3001C32.5892 22.3628 32.5557 22.4193 32.5067 22.4599C32.4576 22.5005 32.3959 22.5227 32.3323 22.5227H29.4093L29.4092 22.5226Z" fill="black"/>
<path d="M27.772 8.33555H24.8946C24.7674 8.33554 24.6441 8.37995 24.546 8.46115C24.4478 8.54236 24.3809 8.65531 24.3566 8.78064L21.769 22.1424C21.7536 22.2221 21.7559 22.3041 21.7758 22.3828C21.7957 22.4614 21.8327 22.5346 21.8841 22.5972C21.9355 22.6598 22.0001 22.7102 22.0732 22.7448C22.1463 22.7794 22.2262 22.7974 22.307 22.7974H25.1844C25.3116 22.7974 25.4348 22.753 25.533 22.6718C25.6311 22.5905 25.6981 22.4776 25.7224 22.3523L27.1184 15.1424H28.9663C29.8216 15.1424 30.0011 15.3258 30.0083 15.3336C30.0602 15.3896 30.1284 15.649 30.0158 16.2302L28.8712 22.1424C28.8558 22.2221 28.8581 22.3041 28.878 22.3828C28.898 22.4614 28.9349 22.5346 28.9864 22.5972C29.0378 22.6598 29.1024 22.7102 29.1755 22.7448C29.2486 22.7794 29.3284 22.7974 29.4092 22.7974H32.3323C32.4595 22.7974 32.5828 22.753 32.6809 22.6718C32.7791 22.5905 32.846 22.4776 32.8703 22.3523L34.0742 16.1343C34.3568 14.6749 34.1151 13.5799 33.3563 12.8798C32.6321 12.2124 31.419 11.8879 29.6477 11.8879H27.7491L28.3103 8.99048C28.3257 8.91084 28.3234 8.82876 28.3035 8.75012C28.2836 8.67148 28.2466 8.59823 28.1952 8.53563C28.1438 8.47302 28.0792 8.42261 28.0061 8.388C27.9329 8.3534 27.8531 8.33545 27.7723 8.33545M27.7723 8.88551L27.0844 12.438H29.6477C31.2606 12.438 32.3731 12.7205 32.9855 13.2849C33.5979 13.8492 33.7811 14.7645 33.5365 16.0295L32.3326 22.2473H29.4095L30.5541 16.3353C30.6843 15.6628 30.6365 15.204 30.4103 14.9594C30.1841 14.7148 29.7027 14.5924 28.9666 14.5924H26.6667L25.1845 22.2473H22.3072L24.8948 8.88551H27.7722" fill="white"/>
<path d="M38.3579 19.8638C39.46 19.8638 40.2827 19.6599 40.8032 19.2579C41.3182 18.86 41.6739 18.1706 41.8604 17.2086C42.0343 16.3096 41.968 15.6819 41.6636 15.3432C41.3524 14.9972 40.6795 14.8217 39.6638 14.8217H37.9026L36.9262 19.8639H38.3578L38.3579 19.8638ZM32.5975 26.0749C32.5158 26.0749 32.4381 26.0382 32.3861 25.9748C32.3604 25.9435 32.3419 25.9069 32.3319 25.8676C32.322 25.8283 32.3208 25.7872 32.3285 25.7474L34.9161 12.3856C34.9283 12.323 34.9618 12.2665 35.0109 12.2259C35.06 12.1853 35.1216 12.1631 35.1852 12.1631H40.7621C42.515 12.1631 43.8194 12.6398 44.6395 13.5829C45.4639 14.5299 45.7183 15.8537 45.3961 17.5177C45.2648 18.1955 45.0392 18.825 44.7255 19.3888C44.4113 19.953 43.9962 20.4751 43.4914 20.9408C42.8871 21.5085 42.2031 21.9201 41.4603 22.1623C40.7292 22.4013 39.7905 22.5226 38.6698 22.5226H36.4113L35.7667 25.8525C35.7546 25.9152 35.7211 25.9717 35.672 26.0123C35.6229 26.0529 35.5612 26.0751 35.4976 26.0751H32.5974L32.5975 26.0749Z" fill="black"/>
<path d="M38.1287 15.0968H39.664C40.8899 15.0968 41.3158 15.3668 41.4605 15.5276C41.7007 15.7948 41.746 16.358 41.5916 17.1564C41.4182 18.0502 41.0968 18.684 40.6363 19.0399C40.1648 19.4043 39.3982 19.5889 38.3582 19.5889H37.259L38.1288 15.0968H38.1287ZM40.7622 11.8881H35.1852C35.058 11.8881 34.9348 11.9325 34.8366 12.0137C34.7385 12.0949 34.6715 12.2079 34.6473 12.3332L32.0597 25.6952C32.0443 25.7748 32.0467 25.8569 32.0666 25.9355C32.0865 26.0141 32.1234 26.0873 32.1748 26.1499C32.2263 26.2125 32.2908 26.2629 32.3639 26.2975C32.437 26.3321 32.5168 26.3501 32.5977 26.3501H35.4979C35.6251 26.3501 35.7483 26.3057 35.8465 26.2245C35.9447 26.1433 36.0116 26.0303 36.0359 25.905L36.6376 22.7976H38.67C39.8193 22.7976 40.7868 22.6719 41.5456 22.4239C42.3256 22.1695 43.0436 21.7381 43.679 21.1417C44.2044 20.6567 44.637 20.1122 44.965 19.5232C45.2929 18.9341 45.5286 18.2769 45.6654 17.5703C46.0047 15.8188 45.7291 14.4163 44.846 13.402C43.9717 12.3975 42.5978 11.8882 40.7624 11.8882M36.5941 20.139H38.3582C39.5274 20.139 40.3984 19.9181 40.9706 19.4759C41.5428 19.0336 41.929 18.2955 42.1296 17.2612C42.3216 16.2682 42.2342 15.5674 41.8675 15.1591C41.5007 14.7508 40.7658 14.5467 39.6642 14.5467H37.6771L36.5942 20.1389M40.7625 12.4382C42.4402 12.4382 43.6641 12.88 44.4334 13.7638C45.2027 14.6476 45.4343 15.8813 45.1274 17.4652C45.001 18.1177 44.7874 18.7142 44.4866 19.2547C44.1858 19.7953 43.7922 20.29 43.3062 20.7384C42.7271 21.2823 42.0838 21.6698 41.3758 21.9009C40.6679 22.1324 39.7663 22.2476 38.6702 22.2476H36.186L35.4981 25.8H32.5979L35.1856 12.4382H40.7625" fill="white"/>
<defs>
<radialGradient id="paint0_radial_712_102" cx="0" cy="0" r="1" gradientUnits="userSpaceOnUse" gradientTransform="translate(17.1633 9.68766) scale(33.1635 33.2837)">
<stop stop-color="#AEB2D5"/>
<stop offset="0.3" stop-color="#AEB2D5"/>
<stop offset="0.75" stop-color="#484C89"/>
<stop offset="1" stop-color="#484C89"/>
</radialGradient>
</defs>
</svg>
