<svg width="122" height="37" viewBox="0 0 122 37" fill="none" xmlns="http://www.w3.org/2000/svg">
<path d="M35.5654 18.0708H31.3106V13.7918H35.7964C37.4383 13.7918 38.2593 14.516 38.2593 15.9647C38.2593 17.369 37.361 18.0715 35.5654 18.0715M38.6234 13.7419C38.0367 13.2198 37.2246 12.9587 36.1763 12.9587L30.083 12.9925V23.2298H31.3106L31.2996 18.8716H35.8338C36.9705 18.8716 37.8659 18.6105 38.5189 18.0884C39.1719 17.5663 39.4986 16.8417 39.4986 15.9152C39.4986 14.9886 39.2071 14.2644 38.6241 13.7419H38.6234ZM46.5698 21.08C46.4524 21.4149 46.2519 21.7146 45.9872 21.9509C45.4372 22.4877 44.5982 22.7557 43.4696 22.7557C42.4503 22.7557 41.6686 22.499 41.123 21.9732C40.5774 21.4474 40.3042 20.7533 40.3042 19.8785C40.3042 19.4231 40.3757 19.0186 40.5183 18.6659C40.661 18.3132 40.8681 18.0154 41.1395 17.7727C41.7041 17.2583 42.4807 17.0009 43.47 17.0009C45.6612 17.0009 46.7572 17.9601 46.7572 19.8785C46.7572 20.3342 46.6948 20.7346 46.5738 21.08M46.7964 17.3034C46.0484 16.6214 44.9411 16.2767 43.4737 16.2767C42.0877 16.2767 41.0163 16.625 40.2609 17.3217C39.5789 17.9524 39.2343 18.803 39.2343 19.8744C39.2343 20.9378 39.5863 21.7958 40.2903 22.4484C40.6789 22.8004 41.1318 23.0556 41.6491 23.2133C42.1665 23.371 42.7733 23.4498 43.47 23.4498C44.9293 23.4498 46.0367 23.1125 46.8037 22.4378C47.4857 21.8218 47.8304 20.9711 47.8304 19.8741C47.8304 18.7741 47.4857 17.9161 46.7964 17.2993V17.3034ZM56.0797 21.3759C56.0797 22.7539 54.8451 23.4428 52.3763 23.4428C51.6217 23.4428 50.9859 23.3952 50.4697 23.2991C49.9534 23.203 49.5336 23.0443 49.2113 22.8232C48.9625 22.6549 48.7587 22.4283 48.6176 22.1632C48.471 21.8918 48.3756 21.5508 48.3316 21.1365L49.4804 21.1255C49.4804 21.6682 49.6813 22.0671 50.0836 22.3238C50.5151 22.6318 51.2789 22.7858 52.3763 22.7858C54.1019 22.7858 54.965 22.3531 54.965 21.4885C54.965 20.9825 54.6717 20.6349 54.0967 20.4435C53.9794 20.4068 53.2816 20.3097 52.0067 20.1524C50.7318 19.9951 49.9314 19.8535 49.6168 19.7289C48.9355 19.4575 48.5949 18.9699 48.5949 18.2666C48.5949 17.5773 48.8992 17.0639 49.5116 16.7273C49.8122 16.588 50.1881 16.4802 50.6394 16.4028C51.0908 16.3255 51.6133 16.2873 52.2073 16.2873C54.584 16.2873 55.7724 17.0331 55.7724 18.524H54.6797C54.6797 17.4753 53.8437 16.9473 52.1736 16.9473C51.3236 16.9473 50.6897 17.0573 50.272 17.2663C49.8544 17.4753 49.6458 17.8053 49.6458 18.2453C49.6458 18.656 49.9281 18.953 50.492 19.1363C50.822 19.2317 51.5803 19.3417 52.7676 19.4663C53.8302 19.5617 54.5595 19.6973 54.9551 19.8697C55.7104 20.163 56.0874 20.6617 56.0874 21.3646L56.0797 21.3759ZM60.5919 23.2434L60.1244 23.3094L59.8329 23.3314C59.0849 23.3314 58.5495 23.2232 58.2148 23.0061C57.88 22.7891 57.7187 22.4096 57.7187 21.8695V17.1926H56.3598V16.5055H57.7117L57.7227 14.2982H58.7699V16.5055H60.5937V17.2036L58.7699 17.1926V21.7382C58.7699 22.0766 58.8597 22.3102 59.0394 22.4349C59.2191 22.5595 59.5395 22.6277 60.0015 22.6277C60.0675 22.6351 60.1409 22.6329 60.2215 22.6204C60.3438 22.5986 60.4649 22.571 60.5845 22.5375L60.5955 23.2342L60.5919 23.2434ZM67.8354 21.6924C67.5494 21.927 67.2238 22.106 66.8575 22.2314C66.4912 22.3568 66.0699 22.4147 65.5939 22.4147C63.4035 22.4147 62.3086 21.5101 62.3086 19.7014C62.3086 18.8591 62.5887 18.1999 63.1494 17.7236C63.71 17.2473 64.4987 17.0093 65.5173 17.0093C66.5429 17.0093 67.3213 17.2495 67.8522 17.7291C68.3832 18.2087 68.649 18.8518 68.649 19.6577C68.649 20.5366 68.3777 21.2142 67.8357 21.6902M69.6966 16.5073H68.6494L68.6384 17.6623C68.1764 17.193 67.8464 16.8971 67.6484 16.7724C67.0617 16.4498 66.3034 16.2892 65.3725 16.2892C64.0092 16.2892 62.9679 16.6008 62.2499 17.2234C61.5679 17.7954 61.2277 18.623 61.2277 19.7072C61.2277 20.2426 61.3138 20.72 61.4862 21.1372C61.6585 21.5545 61.91 21.9157 62.2404 22.2086C62.9598 22.8092 63.9766 23.1099 65.2911 23.1099C66.8692 23.1099 67.9886 22.6783 68.6497 21.8148V23.0102C68.6497 23.7728 68.4096 24.3624 67.9296 24.7804C67.4496 25.1984 66.6598 25.4038 65.5602 25.4038C64.5262 25.4038 63.7899 25.2571 63.3503 24.977C63.0203 24.7581 62.793 24.3786 62.6683 23.8385H61.5903C61.7076 24.5927 62.0303 25.1383 62.5436 25.4749C63.145 25.8628 64.157 26.0568 65.587 26.0568C68.3223 26.0568 69.6936 25.04 69.6936 23.0061V16.5103L69.6966 16.5073ZM75.3616 17.1868C75.0462 17.1354 74.7536 17.1134 74.483 17.1134C72.7615 17.1134 71.901 18.0576 71.901 19.9452V23.2283H70.8648L70.8538 16.5103L71.9013 16.5205V17.7195H71.9563C72.1323 17.2473 72.411 16.889 72.7916 16.6452C73.2089 16.4091 73.8315 16.291 74.6594 16.291H75.3623V17.193L75.3616 17.1868ZM76.3358 19.4447C76.4678 18.6813 76.7648 18.0902 77.2257 17.6715C77.5264 17.4295 77.8674 17.2473 78.248 17.1263C78.6286 17.0053 79.0546 16.9444 79.5342 16.9444C80.4648 16.9444 81.2209 17.1996 81.8149 17.71C82.4089 18.2204 82.6993 18.799 82.6993 19.4443H76.3358M82.8012 17.3719C82.4346 17.0042 81.9799 16.7325 81.4372 16.5557C80.8946 16.379 80.2639 16.291 79.5306 16.291C78.1739 16.291 77.1216 16.6063 76.3728 17.237C75.6241 17.8677 75.2508 18.7257 75.2508 19.8117C75.2508 20.8978 75.6102 21.7551 76.3288 22.3967C77.1062 23.1007 78.1988 23.4527 79.6171 23.4527C80.1818 23.4527 80.7035 23.3886 81.1839 23.261C81.6642 23.1334 82.084 22.9522 82.443 22.7183C83.0737 22.2655 83.4726 21.7063 83.642 21.0426H82.5097C82.1211 22.1914 81.1542 22.766 79.6079 22.766C78.516 22.766 77.6767 22.4851 77.0908 21.9234C76.5848 21.4419 76.3325 20.8182 76.3325 20.0519H83.7989C83.7989 18.9123 83.4689 18.0187 82.7979 17.3752L82.8012 17.3719Z" fill="#231F20"/>
<path d="M94.8673 20.4847C94.8673 22.4794 93.2588 23.4767 90.0413 23.4767C88.1137 23.4767 86.7064 23.1332 85.8198 22.4501C85.0938 21.8854 84.7316 21.0245 84.7316 19.8658H86.0266C86.0266 21.7277 87.365 22.6587 90.0409 22.6587C91.3242 22.6587 92.2519 22.468 92.8276 22.0874C93.3116 21.7508 93.5536 21.2232 93.5536 20.5056C93.5536 19.795 93.2236 19.2971 92.5636 19.0111C92.1896 18.8571 91.2802 18.6628 89.8246 18.4288C87.9986 18.1502 86.815 17.8722 86.2723 17.5939C85.4876 17.1833 85.099 16.4877 85.099 15.5061C85.099 14.5906 85.429 13.9093 86.1 13.4623C86.8186 12.9717 88.0506 12.7261 89.7952 12.7261C92.9486 12.7261 94.5252 13.7733 94.5252 15.8677H93.2188C93.2188 14.2983 92.048 13.5144 89.7069 13.5144C88.5324 13.5144 87.6737 13.6721 87.1307 13.9911C86.6166 14.3284 86.3607 14.8234 86.3607 15.4761C86.3607 16.1581 86.6907 16.6384 87.3507 16.9171C87.7027 17.0784 88.7367 17.3021 90.4527 17.5881C92.066 17.8301 93.155 18.1124 93.716 18.4314C94.486 18.8274 94.871 19.5131 94.871 20.4847H94.8673ZM105.391 21.5026C104.907 21.8902 104.36 22.1809 103.751 22.3753C103.142 22.5696 102.459 22.666 101.703 22.666C100.162 22.666 98.9164 22.2506 97.9653 21.4201C97.0142 20.5896 96.5401 19.4826 96.5401 18.0992C96.5401 16.6575 97.0112 15.534 97.9543 14.7288C98.8974 13.9236 100.147 13.5214 101.703 13.5214C103.281 13.5214 104.521 13.9423 105.424 14.7838C105.9 15.1945 106.252 15.6733 106.48 16.2222C106.708 16.7711 106.821 17.397 106.821 18.0996C106.821 19.534 106.344 20.6684 105.39 21.5022M106.079 22.1813C106.753 21.7054 107.253 21.129 107.576 20.4514C107.899 19.7738 108.06 18.992 108.06 18.1054C108.06 16.5159 107.532 15.2454 106.476 14.2818C105.912 13.7546 105.23 13.3626 104.43 13.1063C103.631 12.85 102.718 12.7213 101.691 12.7213C99.6967 12.7213 98.1347 13.2053 96.998 14.1715C95.8614 15.1376 95.293 16.4492 95.293 18.1047C95.293 19.7158 95.8665 21.016 97.0138 22.0046C98.1611 22.9931 99.7282 23.4877 101.714 23.4877C102.492 23.4877 103.169 23.4353 103.748 23.3301C104.327 23.2248 104.819 23.0635 105.222 22.8461L107.136 24.1723L107.935 23.4382L106.082 22.1817L106.079 22.1813ZM117.757 23.2289H108.903V12.9769L110.12 12.9549V22.3698H117.764L117.753 23.2256L117.757 23.2289Z" fill="#367FAF"/>
<path d="M21.6866 21.5075C21.8098 20.6385 21.7728 20.5109 22.5366 20.6517L22.7309 20.6664C23.3183 20.6891 24.0865 20.5865 24.5378 20.4086C25.5095 20.0266 26.0852 19.3886 25.1274 19.5561C22.9421 19.9382 22.7918 19.3105 22.7918 19.3105C25.0992 16.4083 26.0639 12.724 25.2316 11.822C22.9564 9.36279 19.0294 10.5259 18.9597 10.5563L18.9388 10.56C18.5069 10.4841 18.0236 10.439 17.481 10.4316C16.4921 10.4177 15.7419 10.6516 15.1724 11.0172C15.1724 11.0172 8.15957 8.56785 8.4859 14.0972C8.55557 15.2735 10.4751 22.9973 12.7642 20.6642C13.6009 19.811 14.4098 19.0897 14.4098 19.0897C14.8316 19.3259 15.3144 19.4304 15.7961 19.3897L15.835 19.3614C15.8229 19.4678 15.8277 19.5704 15.8508 19.6936C15.2612 20.2521 15.4342 20.35 14.255 20.556C13.0623 20.7643 13.763 21.1354 14.2206 21.2325C14.7753 21.3499 16.0587 21.5167 16.9258 20.4882L16.8914 20.6055C17.1224 20.7625 17.107 21.733 17.14 22.4268C17.173 23.1205 17.228 23.7677 17.3944 24.1494C17.5609 24.5311 17.7582 25.5134 19.3077 25.2325C20.6028 24.9971 21.5931 24.6587 21.6837 21.509" fill="#231F20"/>
<path d="M21.6866 21.5075C21.8098 20.6385 21.7728 20.5109 22.5366 20.6517L22.7309 20.6664C23.3183 20.6891 24.0865 20.5865 24.5378 20.4086C25.5095 20.0266 26.0852 19.3886 25.1274 19.5561C22.9421 19.9382 22.7918 19.3105 22.7918 19.3105C25.0992 16.4083 26.0639 12.724 25.2316 11.822C22.9564 9.36279 19.0294 10.5259 18.9597 10.5563L18.9388 10.56C18.5069 10.4841 18.0236 10.439 17.481 10.4316C16.4921 10.4177 15.7419 10.6516 15.1724 11.0172C15.1724 11.0172 8.15957 8.56785 8.4859 14.0972C8.55557 15.2735 10.4751 22.9973 12.7642 20.6642C13.6009 19.811 14.4098 19.0897 14.4098 19.0897C14.8316 19.3259 15.3144 19.4304 15.7961 19.3897L15.835 19.3614C15.8229 19.4678 15.8277 19.5704 15.8508 19.6936C15.2612 20.2521 15.4342 20.35 14.255 20.556C13.0623 20.7643 13.763 21.1354 14.2206 21.2325C14.7753 21.3499 16.0587 21.5167 16.9258 20.4882L16.8914 20.6055C17.1224 20.7625 17.107 21.733 17.14 22.4268C17.173 23.1205 17.228 23.7677 17.3944 24.1494C17.5609 24.5311 17.7582 25.5134 19.3077 25.2325C20.6028 24.9971 21.5931 24.6587 21.6837 21.509" stroke="#231F20" stroke-width="1.50627"/>
<path d="M25.1273 19.5559C22.942 19.938 22.7916 19.3103 22.7916 19.3103C25.0991 16.4077 26.0638 12.7235 25.2314 11.8218C22.9603 9.3626 19.0296 10.526 18.96 10.5565L18.9387 10.5601C18.5068 10.4842 18.0235 10.4391 17.4805 10.4318C16.4916 10.4182 15.7414 10.6518 15.1723 11.0174C15.1723 11.0174 8.15908 8.56803 8.48541 14.0974C8.55508 15.2736 10.4742 22.9978 12.7637 20.6644C13.6004 19.8111 14.4089 19.0899 14.4089 19.0899C14.8307 19.3261 15.3136 19.4306 15.7953 19.3898L15.8345 19.3616C15.8224 19.4679 15.8279 19.5706 15.8503 19.6938C15.2607 20.2522 15.4337 20.3501 14.2553 20.5562C13.0621 20.7645 13.7632 21.1355 14.2208 21.2327C14.7756 21.35 16.0589 21.5169 16.9261 20.4884L16.8916 20.6057C17.1226 20.7626 17.285 21.6261 17.2583 22.4097C17.2315 23.1933 17.2128 23.7297 17.395 24.1499C17.5773 24.5701 17.7588 25.5139 19.309 25.233C20.6041 24.9976 21.2755 24.3882 21.3686 23.3711C21.4346 22.648 21.5849 22.7551 21.5941 22.1087L21.7144 21.8029C21.853 20.8228 21.7364 20.5067 22.5342 20.6537L22.7286 20.6684C23.316 20.6911 24.0845 20.5885 24.5355 20.4106C25.5072 20.0286 26.0828 19.3906 25.1251 19.5581L25.1273 19.5559Z" fill="#417BA2"/>
<path d="M17.0232 20.1178C16.9631 21.9413 17.0379 23.7779 17.2487 24.2245C17.4596 24.6711 17.9102 25.539 19.4605 25.2574C20.7555 25.022 21.2267 24.5666 21.4309 23.5612C21.5776 22.8216 21.872 20.7672 21.9091 20.3466M15.165 10.9754C15.165 10.9754 8.14331 8.54437 8.47331 14.0763C8.54665 15.2525 10.4621 22.9767 12.7523 20.6396C13.589 19.7864 14.3455 19.1172 14.3455 19.1172M18.96 10.5317C18.7169 10.5962 22.8639 9.2469 25.2204 11.7993C26.0528 12.7013 25.0884 16.3855 22.7806 19.2881" stroke="white" stroke-width="0.501967" stroke-linecap="round" stroke-linejoin="round"/>
<path d="M22.7768 19.2879C22.7768 19.2879 22.9234 19.9149 25.1124 19.5328C26.0702 19.3652 25.4938 20.0032 24.5221 20.3857C23.725 20.6992 21.9378 20.7795 21.9089 20.3464C21.8337 19.2281 22.8494 19.568 22.776 19.2879C22.71 19.0356 22.2554 18.7881 21.9547 18.1706C21.6925 17.6316 18.3577 13.4986 22.8794 14.1124C23.0452 14.083 21.6999 10.4662 17.4674 10.4076C13.235 10.3489 13.3754 14.8186 13.3754 14.8186" stroke="white" stroke-width="0.501967" stroke-linecap="round" stroke-linejoin="bevel"/>
<path d="M15.839 19.6701C15.2487 20.2285 15.4225 20.3264 14.2433 20.5325C13.0501 20.7415 13.7512 21.1118 14.2088 21.209C14.7636 21.3263 16.0469 21.4932 16.9141 20.4639C17.1781 20.1504 16.9126 19.6499 16.55 19.5231C16.3747 19.4615 16.1404 19.3845 15.8386 19.6697L15.839 19.6701Z" stroke="white" stroke-width="0.501967" stroke-linejoin="round"/>
<path d="M15.8004 19.661C15.741 19.3325 15.9276 18.9423 16.1278 18.4847C16.4285 17.7991 17.1222 17.1127 16.5678 14.9365C16.1542 13.3147 13.3789 14.5992 13.3778 14.8192C13.3767 15.0392 13.5032 15.9338 13.3312 16.9752C13.1068 18.3348 14.3517 19.4843 15.785 19.3669" stroke="white" stroke-width="0.501967" stroke-linecap="round" stroke-linejoin="round"/>
<path d="M15.1398 14.7856C15.1273 14.8608 15.3022 15.0606 15.5299 15.0878C15.7576 15.1149 15.9516 14.958 15.9644 14.8832C15.9773 14.8084 15.8024 14.7255 15.5743 14.6984C15.3462 14.6712 15.1519 14.7108 15.1398 14.7856Z" fill="white" stroke="white" stroke-width="0.1672"/>
<path d="M22.0668 14.6322C22.0793 14.7074 21.9048 14.9072 21.6767 14.9344C21.4486 14.9615 21.2543 14.8046 21.2418 14.729C21.2294 14.6535 21.4043 14.5714 21.632 14.5442C21.8597 14.5171 22.0536 14.5563 22.0665 14.6315L22.0668 14.6322Z" fill="white" stroke="white" stroke-width="0.0836"/>
<path d="M22.8807 14.1129C22.9181 14.7021 22.7311 15.1029 22.7073 15.7306C22.6725 16.6422 23.2199 17.685 22.3949 18.73" stroke="white" stroke-width="0.501967" stroke-linecap="round" stroke-linejoin="round"/>
</svg>
