<svg width="99" height="37" viewBox="0 0 99 37" fill="none" xmlns="http://www.w3.org/2000/svg">
<path d="M54.071 12.3925C54.071 13.1456 53.4526 13.8175 52.6461 13.8175C52.0276 13.8175 51.4901 13.9789 51.0331 14.3283C50.5224 14.6512 50.1191 15.108 49.7966 15.6187C49.1514 16.479 48.8294 17.5004 48.6946 17.8765V22.9842C48.6946 23.7638 48.0227 24.4091 47.2162 24.4091C46.8391 24.4064 46.4783 24.2554 46.2116 23.9887C45.945 23.7221 45.794 23.3613 45.7913 22.9842V12.3925C45.7913 11.6129 46.4361 10.9947 47.2162 10.9947C48.0227 10.9947 48.6946 11.6131 48.6946 12.3925V12.5808C48.8558 12.3925 49.069 12.1777 49.2591 12.0431C50.1463 11.4519 51.3019 10.9676 52.6461 10.9947C53.4526 10.9947 54.071 11.6131 54.071 12.3925V12.3925ZM53.2805 17.6887C53.3076 14.0328 56.157 10.9682 59.8393 10.9682C63.334 10.9682 66.1007 13.5757 66.318 17.2046V17.339C66.318 17.3931 66.318 17.527 66.291 17.5809C66.2078 18.2262 65.6457 18.6564 64.8931 18.6564H56.3467C56.4811 19.2748 56.7767 19.9735 57.2607 20.4308C57.8253 21.076 58.9005 21.5595 59.8412 21.6402C60.8089 21.7207 61.963 21.479 62.637 20.9683C63.2013 20.3767 64.3036 20.4576 64.6531 20.8851C65.0025 21.2595 65.2713 22.0683 64.6531 22.6324C63.3357 23.8418 61.7498 24.4068 59.841 24.4068C56.1587 24.3804 53.3092 21.3427 53.2822 17.6868L53.2805 17.6887ZM56.2107 16.3715H63.8179C63.5491 15.2961 62.1781 13.7103 59.8393 13.5221C57.5547 13.6294 56.4278 15.2694 56.2105 16.3715H56.2107ZM80.015 22.9578C80.015 23.7374 79.3697 24.4097 78.563 24.4097C77.8349 24.4097 77.2729 23.899 77.1381 23.2538C76.1188 23.9527 74.8264 24.4097 73.4822 24.4097C69.8533 24.4097 66.95 21.3452 66.95 17.7161C66.95 14.0332 69.8533 10.9687 73.4822 10.9687C74.7996 10.9687 76.0897 11.3986 77.0842 12.0976V7.04398C77.0842 6.26433 77.7295 5.59202 78.5626 5.59202C79.3691 5.59202 80.0146 6.26391 80.0146 7.04398V22.958L80.015 22.9578ZM73.4828 13.8986C72.5151 13.8986 71.6279 14.3017 70.9562 15.0007C70.2843 15.6726 69.8808 16.6403 69.8808 17.7157C69.8808 18.735 70.2839 19.7048 70.9562 20.3769C71.6281 21.0758 72.5151 21.4794 73.4828 21.4794C74.4771 21.4794 75.3377 21.0762 76.0096 20.3769C76.6815 19.705 77.085 18.7371 77.085 17.7157C77.085 16.6403 76.6819 15.673 76.0096 15.0007C75.3377 14.3017 74.4773 13.8986 73.4828 13.8986ZM85.1301 7.60813C85.1301 8.41461 84.5119 9.08651 83.6782 9.08651C82.8717 9.08651 82.2266 8.41461 82.2266 7.60813V7.04357C82.2258 6.85271 82.2628 6.66359 82.3355 6.48711C82.4081 6.31063 82.515 6.15028 82.65 6.01531C82.7849 5.88035 82.9453 5.77344 83.1217 5.70075C83.2982 5.62807 83.4873 5.59104 83.6782 5.59181C84.5117 5.59181 85.1301 6.23708 85.1301 7.04378V7.60813ZM85.1301 12.4757V22.9598C85.1301 23.7663 84.5119 24.4118 83.6782 24.4118C83.4873 24.4126 83.2982 24.3755 83.1217 24.3029C82.9453 24.2302 82.7849 24.1233 82.65 23.9883C82.515 23.8533 82.4081 23.693 82.3355 23.5165C82.2628 23.34 82.2258 23.1509 82.2266 22.9601V12.4759C82.2266 11.6158 82.8715 10.9974 83.6782 10.9974C84.5119 10.9974 85.1301 11.6158 85.1301 12.4759V12.4757ZM86.9773 20.5635C87.4612 19.9186 88.4022 19.8379 88.9934 20.3486C89.6924 20.9402 90.9022 21.558 91.9504 21.5314C92.6785 21.5314 93.3483 21.2897 93.7785 21.0207C94.1529 20.6983 94.2621 20.4295 94.2621 20.2142C94.2621 20.0798 94.2351 20.0262 94.1816 19.9452C94.1546 19.8647 94.0472 19.7572 93.8321 19.6228C93.4577 19.3539 92.6494 19.058 91.6817 18.8698H91.6546C90.8211 18.7086 90.0146 18.4954 89.3159 18.1709C88.5878 17.8214 87.943 17.3377 87.461 16.612C87.1656 16.1281 87.0042 15.5365 87.0042 14.9187C87.0042 13.682 87.7031 12.6336 88.5901 11.9615C89.531 11.3167 90.6599 10.9672 91.8967 10.9672C93.7514 10.9672 95.0686 11.8544 95.929 12.4456C96.5742 12.8758 96.7623 13.763 96.3589 14.4346C95.929 15.0799 95.0418 15.2682 94.3699 14.8091C93.5097 14.2447 92.7569 13.8143 91.8945 13.8143C91.2226 13.8143 90.631 14.0294 90.2815 14.2982C89.932 14.5403 89.8515 14.7822 89.8515 14.9166C89.8515 15.024 89.8515 15.051 89.9052 15.1315C89.9322 15.1852 90.0127 15.2927 90.201 15.4003C90.5505 15.6422 91.2494 15.8841 92.1634 16.0455L92.1905 16.0726H92.2175C93.1047 16.2336 93.9378 16.4757 94.7175 16.852C95.4455 17.1745 96.1694 17.6853 96.6262 18.438C96.9487 18.9755 97.1369 19.5939 97.1369 20.2123C97.1369 21.5295 96.4089 22.6316 95.4432 23.3326C94.4755 24.0045 93.2657 24.4081 91.9485 24.4081C89.8517 24.381 88.239 23.4137 87.1637 22.5534C86.5721 22.0695 86.4918 21.1555 86.9753 20.5639L86.9773 20.5635Z" fill="#636466"/>
<path d="M36.0002 26.3859C34.1118 27.3702 24.3291 31.3925 22.2464 32.4781C20.1638 33.5637 19.0068 33.5536 17.3616 32.7672C15.7164 31.9809 5.30589 27.7756 3.43061 26.8793C2.49328 26.4312 2.00049 26.0535 2.00049 25.6961V22.1192C2.00049 22.1192 15.5535 19.1687 17.7416 18.3838C19.9298 17.599 20.6886 17.5726 22.5506 18.2528C24.4125 18.933 35.5463 20.9437 37.3864 21.6177L37.3856 25.1436C37.3858 25.4972 36.9612 25.8852 36.0002 26.3861V26.3859Z" fill="#A41E11"/>
<path d="M36.0001 22.808C34.1117 23.7919 24.3291 27.8146 22.2464 28.9002C20.1637 29.9859 19.0067 29.9757 17.3615 29.1894C15.7163 28.4031 5.30585 24.1974 3.43057 23.3014C1.55529 22.4055 1.51597 21.7881 3.35818 21.0669L17.7418 15.4983C19.9297 14.7136 20.6888 14.687 22.5507 15.3672C24.4127 16.0474 34.1373 19.9199 35.9772 20.5939C37.8172 21.2679 37.8885 21.8239 35.998 22.8082L36.0001 22.808Z" fill="#D82C20"/>
<path d="M36.0002 20.5529C34.1118 21.5373 24.3291 25.5595 22.2464 26.6458C20.1638 27.7321 19.0068 27.7208 17.3616 26.9343C15.7164 26.1478 5.30589 21.9427 3.43061 21.0464C2.49328 20.5983 2.00049 20.2205 2.00049 19.8636V16.2863C2.00049 16.2863 15.5535 13.336 17.7416 12.5509C19.9298 11.7659 20.6886 11.7396 22.5506 12.4199C24.4125 13.1001 35.5463 15.1104 37.3864 15.7845L37.3856 19.3111C37.3858 19.6647 36.9612 20.0525 36.0002 20.5534V20.5529Z" fill="#A41E11"/>
<path d="M36.0001 16.9752C34.1117 17.9596 24.3291 21.9818 22.2464 23.0681C20.1637 24.1544 19.0067 24.1431 17.3615 23.3566C15.7163 22.5701 5.30585 18.3648 3.43057 17.4687C1.55529 16.5725 1.51597 15.9555 3.35818 15.2339L17.7418 9.66571C19.9297 8.88086 20.6888 8.85444 22.5507 9.53466C24.4127 10.2149 34.1373 14.0871 35.9772 14.7613C37.8172 15.4355 37.8885 15.9913 35.998 16.9757L36.0001 16.9752Z" fill="#D82C20"/>
<path d="M36.0002 14.5036C34.1118 15.488 24.3291 19.5106 22.2464 20.5985C20.1638 21.6865 19.0068 21.6736 17.3616 20.8871C15.7164 20.1006 5.30589 15.8953 3.43061 14.9991C2.49328 14.5511 2.00049 14.1733 2.00049 13.8163V10.2372C2.00049 10.2372 15.5535 7.28686 17.7416 6.50201C19.9298 5.71716 20.6886 5.69074 22.5506 6.37096C24.4125 7.05118 35.5463 9.06146 37.3864 9.73565L37.3856 13.262C37.3858 13.6152 36.9612 14.0031 36.0002 14.5038V14.5036Z" fill="#A41E11"/>
<path d="M36.0001 10.9259C34.1117 11.9103 24.3291 15.9329 22.2464 17.0188C20.1637 18.1046 19.0067 18.0938 17.3615 17.3075C15.7163 16.5212 5.30585 12.3157 3.43057 11.4195C1.55529 10.5234 1.51597 9.90622 3.35818 9.18481L17.7418 3.61659C19.9297 2.83153 20.6888 2.80532 22.5507 3.48554C24.4127 4.16575 34.1373 8.03801 35.9772 8.71219C37.8172 9.38638 37.8885 9.942 35.998 10.9261L36.0001 10.9259Z" fill="#D82C20"/>
<path d="M19.469 7.60811L15.9285 7.28984L18.5704 6.33712L17.7799 4.87476L20.2553 5.84204L22.5851 5.07861L21.9548 6.5909L24.3325 7.48122L21.2663 7.79949L20.5798 9.45115L19.469 7.60811ZM14.6721 13.1206L22.8722 11.8621L20.3968 15.4941L14.6721 13.1206Z" fill="white"/>
<path d="M12.4609 11.7969C14.8814 11.7969 16.8436 11.0363 16.8436 10.098C16.8436 9.15978 14.8814 8.39917 12.4609 8.39917C10.0403 8.39917 8.07812 9.15978 8.07812 10.098C8.07812 11.0363 10.0403 11.7969 12.4609 11.7969Z" fill="white"/>
<path d="M32.8073 9.85054L27.9604 11.7643V7.93054L32.8073 9.85054Z" fill="#7A0C00"/>
<path d="M27.9562 7.9325V11.7663L27.4299 11.9743L22.5831 10.0605L27.9562 7.9325Z" fill="#AD2115"/>
</svg>
