<svg width="40" height="34" viewBox="0 0 40 34" fill="none" xmlns="http://www.w3.org/2000/svg">
<path opacity="0.5" d="M3.125 8.25H1.875C0.78125 8.25 0 7.46875 0 6.375V2.625C0 1.60938 0.78125 0.75 1.875 0.75H5.625C6.64062 0.75 7.5 1.60938 7.5 2.625V6.375C7.5 7.46875 6.64062 8.25 5.625 8.25H4.375V17H10V15.125C10 14.1094 10.7812 13.25 11.875 13.25H15.625C16.6406 13.25 17.5 14.1094 17.5 15.125V18.875C17.5 19.9688 16.6406 20.75 15.625 20.75H11.875C10.7812 20.75 10 19.9688 10 18.875V18.25H4.375V27.625C4.375 28.7188 5.15625 29.5 6.25 29.5H10V27.625C10 26.6094 10.7812 25.75 11.875 25.75H15.625C16.6406 25.75 17.5 26.6094 17.5 27.625V31.375C17.5 32.4688 16.6406 33.25 15.625 33.25H11.875C10.7812 33.25 10 32.4688 10 31.375V30.75H6.25C4.45312 30.75 3.125 29.4219 3.125 27.625V8.25ZM1.25 2.625V6.375C1.25 6.76562 1.48438 7 1.875 7H5.625C5.9375 7 6.25 6.76562 6.25 6.375V2.625C6.25 2.3125 5.9375 2 5.625 2H1.875C1.48438 2 1.25 2.3125 1.25 2.625ZM11.25 31.375C11.25 31.7656 11.4844 32 11.875 32H15.625C15.9375 32 16.25 31.7656 16.25 31.375V27.625C16.25 27.3125 15.9375 27 15.625 27H11.875C11.4844 27 11.25 27.3125 11.25 27.625V31.375ZM11.875 19.5H15.625C15.9375 19.5 16.25 19.2656 16.25 18.875V15.125C16.25 14.8125 15.9375 14.5 15.625 14.5H11.875C11.4844 14.5 11.25 14.8125 11.25 15.125V18.875C11.25 19.2656 11.4844 19.5 11.875 19.5ZM13.125 4.5C13.125 4.1875 13.3594 3.875 13.75 3.875H38.75C39.0625 3.875 39.375 4.1875 39.375 4.5C39.375 4.89062 39.0625 5.125 38.75 5.125H13.75C13.3594 5.125 13.125 4.89062 13.125 4.5ZM23.125 17C23.125 16.6875 23.3594 16.375 23.75 16.375H38.75C39.0625 16.375 39.375 16.6875 39.375 17C39.375 17.3906 39.0625 17.625 38.75 17.625H23.75C23.3594 17.625 23.125 17.3906 23.125 17ZM23.125 29.5C23.125 29.1875 23.3594 28.875 23.75 28.875H38.75C39.0625 28.875 39.375 29.1875 39.375 29.5C39.375 29.8906 39.0625 30.125 38.75 30.125H23.75C23.3594 30.125 23.125 29.8906 23.125 29.5Z" fill="#0C0C0D"/>
</svg>
