<svg width="40" height="40" viewBox="0 0 40 40" fill="none" xmlns="http://www.w3.org/2000/svg">
<path opacity="0.5" d="M13.75 20C13.75 16.5625 16.4844 13.75 20 13.75C23.4375 13.75 26.25 16.5625 26.25 20C26.25 23.5156 23.4375 26.25 20 26.25C16.4844 26.25 13.75 23.5156 13.75 20ZM20 15C17.1875 15 15 17.2656 15 20C15 22.8125 17.1875 25 20 25C22.7344 25 25 22.8125 25 20C25 17.2656 22.7344 15 20 15ZM33.2031 6.875C34.2969 6.48438 35.5469 6.95312 36.0938 7.96875L38.4375 12.1094C39.0625 13.125 38.8281 14.375 37.9688 15.1562L34.8438 18.0469C34.9219 18.6719 35 19.375 35 20C35 20.7031 34.9219 21.4062 34.8438 22.0312L37.9688 24.9219C38.8281 25.7031 39.0625 26.9531 38.4375 27.9688L36.0938 32.1094C35.5469 33.125 34.2969 33.5938 33.2031 33.2031L29.1406 31.9531C28.0469 32.7344 26.875 33.3594 25.7031 33.9062L24.7656 38.0469C24.5312 39.2188 23.5156 40 22.3438 40H17.5781C16.4062 40 15.3906 39.2188 15.1562 38.0469L14.2188 33.9062C13.0469 33.3594 11.875 32.7344 10.7812 31.9531L6.71875 33.2031C5.625 33.5938 4.375 33.125 3.82812 32.1094L1.48438 27.9688C0.859375 26.9531 1.09375 25.7031 1.95312 24.9219L5.07812 22.0312C5 21.4062 5 20.7031 5 20C5 19.375 5 18.6719 5.07812 18.0469L1.95312 15.1562C1.09375 14.375 0.859375 13.125 1.48438 12.1094L3.82812 7.96875C4.375 6.95312 5.625 6.48438 6.71875 6.875L10.7812 8.125C11.875 7.34375 13.0469 6.64062 14.2188 6.17188L15.1562 2.03125C15.3906 0.859375 16.4062 0 17.5781 0H22.3438C23.5156 0 24.5312 0.859375 24.7656 2.03125L25.7031 6.17188C26.875 6.64062 28.0469 7.34375 29.1406 8.125L33.2031 6.875ZM11.5625 9.14062L11.0156 9.53125L6.32812 8.04688C5.78125 7.89062 5.23438 8.125 4.92188 8.59375L2.57812 12.7344C2.26562 13.2031 2.34375 13.8281 2.8125 14.2188L6.40625 17.5781L6.32812 18.2031C6.25 18.8281 6.25 19.4531 6.25 20C6.25 20.625 6.25 21.25 6.32812 21.875L6.40625 22.5L2.8125 25.7812C2.34375 26.1719 2.26562 26.875 2.57812 27.3438L4.92188 31.4844C5.23438 31.9531 5.78125 32.1875 6.32812 32.0312L11.0156 30.5469L11.5625 30.9375C12.5 31.6406 13.5938 32.2656 14.6875 32.7344L15.3125 32.9688L16.4062 37.8125C16.4844 38.3594 17.0312 38.75 17.5781 38.75H22.3438C22.8906 38.75 23.4375 38.3594 23.5156 37.8125L24.6094 32.9688L25.2344 32.7344C26.3281 32.2656 27.4219 31.6406 28.3594 30.9375L28.9062 30.5469L33.5938 32.0312C34.1406 32.1875 34.6875 31.9531 35 31.4844L37.3438 27.3438C37.6562 26.875 37.5781 26.1719 37.1094 25.7812L33.5156 22.5L33.5938 21.875C33.6719 21.25 33.75 20.625 33.75 20C33.75 19.4531 33.6719 18.8281 33.5938 18.2031L33.5156 17.5781L37.1094 14.2188C37.5781 13.8281 37.6562 13.2031 37.3438 12.7344L35 8.59375C34.6875 8.125 34.1406 7.89062 33.5938 8.04688L28.9062 9.53125L28.3594 9.14062C27.4219 8.4375 26.3281 7.8125 25.2344 7.34375L24.6094 7.10938L23.5156 2.26562C23.4375 1.71875 22.8906 1.25 22.3438 1.25H17.5781C17.0312 1.25 16.4844 1.71875 16.4062 2.26562L15.3125 7.10938L14.6875 7.34375C13.5938 7.8125 12.5 8.4375 11.5625 9.14062Z" fill="#0C0C0D"/>
</svg>
