<svg width="65" height="37" viewBox="0 0 65 37" fill="none" xmlns="http://www.w3.org/2000/svg">
<path fill-rule="evenodd" clip-rule="evenodd" d="M21.6402 7.77307H26.4467L14.31 28.6875L2.09351 7.77307H7.00934L14.31 20.364L21.6402 7.77307Z" fill="#41B883"/>
<path fill-rule="evenodd" clip-rule="evenodd" d="M17.0979 7.7688H21.6693L14.3037 20.3859L6.99731 7.7688H11.4973L14.3037 12.6262L17.0979 7.7688Z" fill="#35495E"/>
<path fill-rule="evenodd" clip-rule="evenodd" d="M29.3148 11.8977C29.3148 11.7434 29.4005 11.6148 29.5718 11.512C29.7431 11.4091 29.9221 11.3577 30.109 11.3577C30.3685 11.3577 30.5295 11.4554 30.5917 11.6508L33.3325 20.8156L36.0576 11.6508C36.1303 11.4554 36.286 11.3577 36.5248 11.3577C36.7221 11.3577 36.9063 11.4142 37.0776 11.5274C37.2489 11.6405 37.3346 11.7691 37.3346 11.9131C37.3346 11.9234 37.332 11.9388 37.3268 11.9594C37.3216 11.98 37.319 12.0005 37.319 12.0211L34.1578 22.2814C34.0436 22.5797 33.7685 22.7288 33.3325 22.7288C32.8965 22.7288 32.6317 22.5796 32.5383 22.2814L29.3461 12.0211C29.3253 11.9594 29.315 11.9183 29.315 11.8977H29.3148ZM37.4573 19.7972V15.7858C37.4573 15.6623 37.5222 15.5543 37.6519 15.4618C37.7817 15.3692 37.9348 15.3229 38.1113 15.3229C38.2774 15.3229 38.4254 15.3718 38.5551 15.4695C38.6849 15.5672 38.7498 15.6726 38.7498 15.7858V19.7972C38.7498 20.26 38.9263 20.6766 39.2793 21.0469C39.6322 21.4172 40.0527 21.6024 40.5406 21.6024C41.0182 21.6024 41.4334 21.4198 41.7864 21.0546C42.1394 20.6895 42.3159 20.2703 42.3159 19.7972V15.7701C42.3159 15.6569 42.3807 15.5541 42.5105 15.4615C42.6403 15.369 42.7934 15.3227 42.9699 15.3227C43.1568 15.3227 43.3099 15.3664 43.4293 15.4538C43.5487 15.5412 43.6084 15.6467 43.6084 15.7701V19.7972C43.6084 20.5892 43.3047 21.2809 42.6974 21.8724C42.0901 22.4638 41.3712 22.7595 40.5406 22.7595C39.6997 22.7595 38.9756 22.4638 38.3683 21.8724C37.761 21.2809 37.4573 20.5892 37.4573 19.7972H37.4573ZM44.6652 19.7663V18.1463C44.6652 17.3543 44.9688 16.6703 45.5762 16.0942C46.1835 15.5182 46.9128 15.2302 47.7641 15.2302C48.5738 15.2302 49.2746 15.5002 49.8663 16.0403C50.4581 16.5803 50.754 17.2566 50.754 18.0692C50.754 18.3674 50.7176 18.6066 50.645 18.7866C50.5723 18.9666 50.4607 19.0952 50.3102 19.1723C50.1596 19.2495 50.0195 19.2983 49.8897 19.3189C49.7599 19.3395 49.586 19.3498 49.368 19.3498H45.9576V19.8126C45.9576 20.3784 46.1627 20.8309 46.5727 21.1704C46.9828 21.5098 47.5148 21.6795 48.1689 21.6795C48.5115 21.6795 48.81 21.6281 49.0643 21.5253C49.3186 21.4224 49.5237 21.3221 49.6794 21.2244C49.8351 21.1267 49.9597 21.0778 50.0531 21.0778C50.1985 21.0778 50.3231 21.1421 50.4269 21.2707C50.5307 21.3993 50.5826 21.5304 50.5826 21.6641C50.5826 21.9007 50.3464 22.1424 49.8741 22.3893C49.4017 22.6361 48.8177 22.7596 48.1222 22.7596C47.1048 22.7596 46.2743 22.4844 45.6306 21.9341C44.987 21.3838 44.6651 20.6612 44.6651 19.7664L44.6652 19.7663ZM45.9577 18.4857H48.8386C49.1085 18.4857 49.2901 18.4523 49.3836 18.3854C49.4771 18.3186 49.5237 18.1874 49.5237 17.992C49.5237 17.5292 49.3524 17.1229 49.0099 16.7731C48.6673 16.4234 48.2468 16.2485 47.7485 16.2485C47.2606 16.2485 46.8401 16.4105 46.4871 16.7345C46.1342 17.0585 45.9577 17.4571 45.9577 17.9303L45.9577 18.4857ZM51.4061 21.9263C51.4061 21.7 51.484 21.5072 51.6397 21.3478C51.7954 21.1883 51.9875 21.1086 52.2159 21.1086C52.4339 21.1086 52.6207 21.1883 52.7765 21.3478C52.9322 21.5072 53.01 21.7 53.01 21.9263C53.01 22.1423 52.9322 22.3301 52.7765 22.4895C52.6207 22.6489 52.4339 22.7286 52.2159 22.7286C51.9875 22.7286 51.7954 22.6489 51.6397 22.4895C51.484 22.3301 51.4061 22.1423 51.4061 21.9263ZM52.5565 25.6139C52.5565 25.4493 52.6084 25.313 52.7122 25.205C52.8161 25.097 52.9406 25.043 53.086 25.043C53.4909 25.043 53.7556 24.8939 53.8802 24.5956C54.0048 24.2973 54.067 23.8499 54.067 23.2533V15.7702C54.067 15.6365 54.1268 15.5285 54.2461 15.4462C54.3655 15.3639 54.5186 15.3228 54.7055 15.3228C54.8924 15.3228 55.0481 15.3639 55.1727 15.4462C55.2973 15.5285 55.3596 15.6365 55.3596 15.7702V23.2533C55.3596 24.1482 55.1831 24.8579 54.8301 25.3825C54.4771 25.907 53.9425 26.1693 53.2262 26.1693C52.7797 26.1693 52.5565 25.9842 52.5565 25.6139L52.5565 25.6139ZM53.8957 12.5764C53.8957 12.381 53.9736 12.2113 54.1293 12.0673C54.285 11.9233 54.4771 11.8513 54.7055 11.8513C54.9235 11.8513 55.1104 11.9233 55.2661 12.0673C55.4218 12.2113 55.4997 12.381 55.4997 12.5764C55.4997 12.7719 55.4218 12.9442 55.2661 13.0933C55.1104 13.2424 54.9235 13.317 54.7055 13.317C54.4875 13.317 54.298 13.2424 54.1371 13.0933C53.9762 12.9441 53.8957 12.7719 53.8957 12.5764H53.8957ZM56.3231 21.5868C56.3231 21.4531 56.3671 21.3219 56.4554 21.1934C56.5437 21.0648 56.6501 21.0005 56.7746 21.0005C56.8577 21.0005 56.9771 21.0622 57.1328 21.1857C57.2885 21.3091 57.5117 21.4299 57.8024 21.5482C58.0931 21.6665 58.4357 21.7257 58.8302 21.7257C59.3493 21.7257 59.7256 21.6331 59.9592 21.4479C60.1927 21.2628 60.3095 21.0314 60.3095 20.7536C60.3095 20.4142 60.1798 20.1442 59.9202 19.9436C59.6607 19.743 59.3441 19.5913 58.9703 19.4885C58.5966 19.3856 58.2228 19.2725 57.8491 19.149C57.4754 19.0256 57.1587 18.8199 56.8992 18.5319C56.6396 18.2439 56.5099 17.8633 56.5099 17.3901C56.5099 16.8038 56.7201 16.2973 57.1405 15.8704C57.561 15.4435 58.202 15.2301 59.0637 15.2301C59.6139 15.2301 60.1174 15.315 60.5742 15.4847C61.031 15.6544 61.2594 15.8472 61.2594 16.0632C61.2594 16.1867 61.2101 16.3255 61.1115 16.4798C61.0128 16.6341 60.8909 16.7113 60.7455 16.7113C60.704 16.7113 60.5041 16.6367 60.146 16.4875C59.7878 16.3384 59.4322 16.2638 59.0793 16.2638C58.6017 16.2638 58.2461 16.3744 58.0126 16.5955C57.779 16.8167 57.6622 17.0661 57.6622 17.3438C57.6622 17.6318 57.792 17.8582 58.0515 18.0227C58.311 18.1873 58.6303 18.3159 59.0092 18.4084C59.3881 18.501 59.7645 18.6142 60.1382 18.7479C60.5119 18.8816 60.8286 19.1105 61.0881 19.4345C61.3477 19.7585 61.4774 20.1776 61.4774 20.6919C61.4774 21.3297 61.249 21.8337 60.7923 22.2039C60.3355 22.5742 59.697 22.7594 58.8769 22.7594C58.1709 22.7594 57.5688 22.6334 57.0705 22.3814C56.5722 22.1294 56.323 21.8645 56.323 21.5868L56.3231 21.5868Z" fill="#010101"/>
</svg>
