<svg width="44" height="44" viewBox="0 0 44 44" fill="none" xmlns="http://www.w3.org/2000/svg">
<rect width="44" height="44" rx="22" fill="white"/>
<path fill-rule="evenodd" clip-rule="evenodd" d="M26.2071 16.2386L30.7891 21.4239C31.0703 21.7421 31.0703 22.2579 30.7891 22.5761L26.2071 27.7614C25.9259 28.0795 25.47 28.0795 25.1888 27.7614C24.9077 27.4432 24.9077 26.9273 25.1888 26.6091L28.5418 22.8148H13.8148C13.3648 22.8148 13 22.45 13 22V22C13 21.55 13.3648 21.1852 13.8148 21.1852H28.5418L25.1888 17.3909C24.9077 17.0727 24.9077 16.5568 25.1888 16.2386C25.47 15.9205 25.9259 15.9205 26.2071 16.2386Z" fill="#585858"/>
</svg>
