<svg width="44" height="44" viewBox="0 0 44 44" fill="none" xmlns="http://www.w3.org/2000/svg">
<rect width="44" height="44" rx="22" transform="matrix(-1 0 0 1 44 0)" fill="white"/>
<path fill-rule="evenodd" clip-rule="evenodd" d="M17.7929 16.2386L13.2109 21.4239C12.9297 21.7421 12.9297 22.2579 13.2109 22.5761L17.7929 27.7614C18.0741 28.0795 18.53 28.0795 18.8112 27.7614C19.0923 27.4432 19.0923 26.9273 18.8112 26.6091L15.4582 22.8148H30.1852C30.6352 22.8148 31 22.45 31 22V22C31 21.55 30.6352 21.1852 30.1852 21.1852H15.4582L18.8112 17.3909C19.0923 17.0727 19.0923 16.5568 18.8112 16.2386C18.53 15.9205 18.0741 15.9205 17.7929 16.2386Z" fill="#585858"/>
</svg>
