<svg width="71" height="48" viewBox="0 0 71 48" fill="none" xmlns="http://www.w3.org/2000/svg">
<rect x="1.25" width="69" height="48" fill="white"/>
<path fill-rule="evenodd" clip-rule="evenodd" d="M58.6192 12.4902L56.8117 11.4467C56.8235 11.2835 56.8293 11.1197 56.8293 10.9568C56.8293 10.7938 56.8234 10.6301 56.8117 10.4669L58.6192 9.42333C58.7926 9.32323 58.919 9.15839 58.9708 8.96503C59.0226 8.77175 58.9955 8.56576 58.8955 8.39242L56.6852 4.56429C56.5851 4.39095 56.4202 4.26448 56.2269 4.21268C56.0337 4.16089 55.8277 4.1879 55.6543 4.28807L53.8471 5.33154C53.576 5.14731 53.2924 4.98326 52.9984 4.84051V2.75469C52.9984 2.33794 52.6604 2 52.2437 2H47.8233C47.4065 2 47.0686 2.33794 47.0686 2.75469V4.84051C46.7745 4.98326 46.491 5.14731 46.2198 5.33154L44.4126 4.28807C44.2394 4.1879 44.0334 4.16073 43.84 4.21268C43.6466 4.26448 43.4818 4.39095 43.3817 4.56429L41.1716 8.39242C40.9631 8.7534 41.0868 9.21488 41.4478 9.42333L43.2552 10.4669C43.2435 10.6301 43.2376 10.7939 43.2376 10.9568C43.2376 11.1198 43.2435 11.2835 43.2552 11.4467L41.4478 12.4902C41.0869 12.6986 40.9631 13.1602 41.1716 13.5212L43.3817 17.3493C43.4818 17.5226 43.6467 17.6491 43.84 17.7009C44.0332 17.7528 44.2393 17.7257 44.4126 17.6255L46.2198 16.582C46.491 16.7663 46.7745 16.9303 47.0686 17.0731V19.1589C47.0686 19.5756 47.4065 19.9136 47.8233 19.9136H52.2437C52.6604 19.9136 52.9984 19.5756 52.9984 19.1589V17.0731C53.2924 16.9303 53.576 16.7663 53.8471 16.582L55.6543 17.6255C55.8276 17.7256 56.0336 17.7528 56.2269 17.7009C56.4203 17.6491 56.5851 17.5226 56.6852 17.3493L58.8955 13.5212C58.9955 13.3478 59.0226 13.1418 58.9708 12.9485C58.919 12.7551 58.7926 12.5903 58.6192 12.4902ZM55.7554 15.9409L54.1747 15.0282C53.906 14.8732 53.5695 14.8983 53.3268 15.0919C52.9133 15.4216 52.4561 15.6862 51.9674 15.8784C51.6787 15.9919 51.489 16.2705 51.489 16.5807V18.4042H48.578V16.5807C48.578 16.2706 48.3882 15.9919 48.0995 15.8784C47.6109 15.6862 47.1536 15.4216 46.7402 15.0919C46.4975 14.8982 46.161 14.8732 45.8922 15.0282L44.3115 15.9409L42.8561 13.42L44.4361 12.5077C44.7046 12.3528 44.8509 12.0494 44.8052 11.7429C44.7666 11.4836 44.747 11.2191 44.747 10.9568C44.747 10.6945 44.7666 10.43 44.8052 10.1706C44.8509 9.86415 44.7046 9.56076 44.4361 9.40585L42.8561 8.49355L44.3115 5.97255L45.8922 6.88525C46.1611 7.0404 46.4976 7.0153 46.7402 6.82162C47.1536 6.49194 47.6109 6.22732 48.0995 6.03507C48.3882 5.92163 48.578 5.64303 48.578 5.33281V3.50931H51.489V5.33281C51.489 5.64295 51.6787 5.92155 51.9674 6.03507C52.4561 6.22732 52.9133 6.49194 53.3268 6.82162C53.5695 7.0153 53.906 7.0404 54.1747 6.88525L55.7554 5.97255L57.211 8.49355L55.6308 9.40585C55.3624 9.56076 55.216 9.86415 55.2617 10.1706C55.3003 10.43 55.32 10.6945 55.32 10.9568C55.32 11.2191 55.3003 11.4836 55.2617 11.7429C55.216 12.0494 55.3624 12.3528 55.6308 12.5077L57.211 13.42L55.7554 15.9409ZM46.9688 10.9568C46.9688 9.26992 48.3411 7.89764 50.028 7.89764C51.7148 7.89764 53.0871 9.26992 53.0871 10.9568C53.0871 12.6436 51.7148 14.0159 50.028 14.0159C48.3411 14.0159 46.9688 12.6436 46.9688 10.9568ZM48.4781 10.9567C48.4781 11.8113 49.1734 12.5064 50.028 12.5064C50.8825 12.5064 51.5777 11.8113 51.5777 10.9567C51.5777 10.1021 50.8825 9.40695 50.028 9.40695C49.1734 9.40695 48.4781 10.1021 48.4781 10.9567ZM10.3608 12.4076C9.61356 12.4076 9.00781 13.0133 9.00781 13.7606C9.00781 14.5078 9.61356 15.1135 10.3608 15.1135C11.108 15.1135 11.7138 14.5078 11.7138 13.7606C11.7138 13.0133 11.108 12.4076 10.3608 12.4076ZM14.8686 12.4076C14.1214 12.4076 13.5156 13.0133 13.5156 13.7606C13.5156 14.5078 14.1214 15.1135 14.8686 15.1135C15.6158 15.1135 16.2216 14.5078 16.2216 13.7606C16.2216 13.0133 15.6158 12.4076 14.8686 12.4076ZM15.9565 35.3424H17.7957L14.0398 25.2374H12.1513L8.36719 35.3424H10.1993L11.0731 32.7704H15.0475L15.9565 35.3424ZM13.2013 27.3726L14.6036 31.4033H11.51L12.8982 27.3726C12.9499 27.2176 12.9969 27.0062 13.0392 26.7384H13.0674C13.1143 27.0296 13.159 27.241 13.2013 27.3726ZM20.8611 35.3424V31.6781H22.207C23.3439 31.6781 24.2458 31.3657 24.9129 30.7409C25.58 30.1161 25.9136 29.3128 25.9136 28.3309C25.9136 27.3491 25.5941 26.5881 24.9552 26.0478C24.3163 25.5076 23.4167 25.2374 22.2563 25.2374H19.191V35.3424H20.8611ZM20.8611 30.3111V26.6186H22.0801C23.4613 26.6186 24.1519 27.2129 24.1519 28.4014C24.1519 29.0074 23.964 29.4772 23.5881 29.8108C23.2123 30.1443 22.665 30.3111 21.9463 30.3111H20.8611ZM29.303 31.6781V35.3424H27.633V25.2374H30.6983C31.8587 25.2374 32.7583 25.5076 33.3972 26.0478C34.0361 26.5881 34.3556 27.3491 34.3556 28.3309C34.3556 29.3128 34.022 30.1161 33.3549 30.7409C32.6878 31.3657 31.7858 31.6781 30.649 31.6781H29.303ZM29.303 26.6186V30.3111H30.3882C31.107 30.3111 31.6543 30.1443 32.0301 29.8108C32.406 29.4772 32.5939 29.0074 32.5939 28.4014C32.5939 27.2129 31.9033 26.6186 30.5221 26.6186H29.303ZM5.5 5.25C2.87665 5.25 0.75 7.37665 0.75 10V40.5C0.75 43.1234 2.87665 45.25 5.5 45.25H51.5C54.1234 45.25 56.25 43.1234 56.25 40.5V20.5H54.75V40.5C54.75 42.2949 53.2949 43.75 51.5 43.75H5.5C3.70507 43.75 2.25 42.2949 2.25 40.5V10C2.25 8.20507 3.70508 6.75 5.5 6.75H39V5.25H5.5Z" fill="#7E7E7E"/>
</svg>
