<svg width="70" height="48" viewBox="0 0 70 48" fill="none" xmlns="http://www.w3.org/2000/svg">
<rect x="0.25" width="69" height="48" fill="white"/>
<path fill-rule="evenodd" clip-rule="evenodd" d="M23.933 0.191345L36.1593 5.4784V20.7453L47.4718 25.6372V41.7868L35.5447 47.7402L24.1994 42.2118L12.9299 47.8465L0.703125 41.8984V25.7435L12.0249 20.8476V5.48379L23.933 0.191345ZM23.3374 40.9657V27.3904L13.6753 31.6847V45.7968L23.3374 40.9657ZM34.6593 20.6107L24.6871 25.0428V11.4249L34.6593 7.11264V20.6107ZM24.8374 40.8541L34.7907 45.7042V31.5834L24.8374 27.2722V40.8541ZM26.4725 26.3458L35.5371 30.2721L44.8526 26.1388L35.3471 22.0284L26.4725 26.3458ZM21.7122 26.4713L13.255 22.2427L12.9212 22.0943L3.34272 26.2363L12.9212 30.3784L21.7122 26.4713ZM23.1871 11.4195V25.0154L13.8954 20.8858L13.5249 20.7006V7.12527L23.1871 11.4195ZM23.9412 1.82915L14.6216 5.9712L23.9412 10.1132L33.5197 5.9712L23.9412 1.82915ZM2.20312 27.3778L12.1753 31.6901V45.8114L2.20312 40.9601V27.3778ZM36.2907 31.5787L45.9718 27.2833V40.859L36.2907 45.6914V31.5787Z" fill="#7E7E7E"/>
</svg>
