<svg width="70" height="48" viewBox="0 0 70 48" fill="none" xmlns="http://www.w3.org/2000/svg">
<rect x="0.75" width="69" height="48" fill="white"/>
<path fill-rule="evenodd" clip-rule="evenodd" d="M39.8197 8.50403C40.098 8.02698 39.9368 7.41466 39.4598 7.13638C38.9827 6.8581 38.3704 7.01924 38.0921 7.49629L19.4254 39.4963C19.1472 39.9733 19.3083 40.5857 19.7854 40.8639C20.2624 41.1422 20.8747 40.9811 21.153 40.504L39.8197 8.50403ZM13.3738 11.4835C13.7643 11.874 13.7643 12.5072 13.3738 12.8977L3.41421 22.8573L13.3738 32.8168C13.7643 33.2074 13.7643 33.8405 13.3738 34.2311C12.9832 34.6216 12.3501 34.6216 11.9596 34.2311L1.29289 23.5644C0.902369 23.1739 0.902369 22.5407 1.29289 22.1502L11.9596 11.4835C12.3501 11.093 12.9832 11.093 13.3738 11.4835ZM47.009 11.4835C46.6185 11.874 46.6185 12.5072 47.009 12.8977L56.9686 22.8573L47.009 32.8168C46.6185 33.2074 46.6185 33.8405 47.009 34.2311C47.3996 34.6216 48.0327 34.6216 48.4233 34.2311L59.0899 23.5644C59.4804 23.1739 59.4804 22.5407 59.0899 22.1502L48.4233 11.4835C48.0327 11.093 47.3996 11.093 47.009 11.4835Z" fill="#7E7E7E"/>
</svg>
