<svg width="70" height="48" viewBox="0 0 70 48" fill="none" xmlns="http://www.w3.org/2000/svg">
<rect x="0.25" width="69" height="48" fill="white"/>
<path fill-rule="evenodd" clip-rule="evenodd" d="M44.0932 2.96147C43.868 2.88189 43.6738 2.93754 43.5764 3.0363C40.7352 5.91747 36.8664 8.28127 33.3439 9.90249C31.5784 10.7151 29.8842 11.3483 28.429 11.7693C27.3786 12.0732 26.4163 12.2774 25.6273 12.3459V27.9809C33.2279 28.2572 39.7864 32.6652 43.2489 35.8837C43.3361 35.9648 43.5956 36.0436 43.9472 35.9121C44.3031 35.7789 44.3745 35.5809 44.3745 35.5175V3.26519C44.3745 3.17335 44.3144 3.03967 44.0932 2.96147ZM24.1273 27.9673V12.3323C21.8808 12.233 18.6488 12.1255 15.4806 12.0917C11.9407 12.054 8.53777 12.1095 6.6633 12.3595C4.59202 12.6356 3.27722 13.9727 2.60965 16.0136C1.93056 18.0898 1.95193 20.8454 2.61838 23.7072C3.09583 25.7574 4.47551 26.891 6.08942 27.4921C7.73061 28.1034 9.56376 28.1366 10.7369 27.9743L10.788 27.9673H24.1273ZM44.593 1.54721C45.2397 1.77578 45.8745 2.37093 45.8745 3.26519V35.5175C45.8745 36.4682 45.1242 37.0733 44.4727 37.317C43.8169 37.5623 42.8833 37.5918 42.2277 36.9824C38.7803 33.7779 32.2526 29.4673 24.8773 29.4673H22.5273L29.3799 41.6963L23.8815 44.4929L23.8345 44.5094C22.6392 44.9294 19.8505 45.0819 18.0467 42.4513C16.5364 40.2488 12.4797 33.1586 10.429 29.517C9.09245 29.6303 7.26495 29.5306 5.56587 28.8978C3.60987 28.1692 1.77708 26.7081 1.15747 24.0474C0.452598 21.0206 0.39211 17.9682 1.18398 15.5473C1.98738 13.0911 3.69636 11.2418 6.46505 10.8726C8.46255 10.6063 11.9707 10.5542 15.4966 10.5918C19.0404 10.6296 22.6602 10.759 24.9132 10.8669L24.9179 10.8671C25.5463 10.9012 26.6169 10.732 28.0121 10.3284C29.3858 9.93098 31.0095 9.32562 32.7168 8.53988C36.1398 6.96447 39.8362 4.69275 42.5084 1.98306C43.1034 1.37968 43.9503 1.32004 44.593 1.54721ZM12.1232 29.4673H20.8078L27.308 41.0673L23.2938 43.1089C22.4731 43.3769 20.5545 43.4562 19.2838 41.603C17.9057 39.5932 14.2663 33.2592 12.1232 29.4673ZM5.09375 16.3886C5.09375 15.9744 5.42954 15.6386 5.84375 15.6386H11.5088C11.923 15.6386 12.2588 15.9744 12.2588 16.3886C12.2588 16.8028 11.923 17.1386 11.5088 17.1386H5.84375C5.42954 17.1386 5.09375 16.8028 5.09375 16.3886ZM5.84375 19.0473C5.42954 19.0473 5.09375 19.3831 5.09375 19.7973C5.09375 20.2115 5.42954 20.5473 5.84375 20.5473H11.5088C11.923 20.5473 12.2588 20.2115 12.2588 19.7973C12.2588 19.3831 11.923 19.0473 11.5088 19.0473H5.84375ZM50.4103 10.608C50.6819 10.2953 51.1556 10.2619 51.4684 10.5335C52.7275 11.627 54.2356 13.634 54.6791 16.1498C55.1317 18.7174 54.4556 21.7121 51.5069 24.6607C51.214 24.9536 50.7391 24.9536 50.4462 24.6607C50.1534 24.3678 50.1534 23.8929 50.4462 23.6001C53.0767 20.9696 53.5629 18.4583 53.2019 16.4102C52.8317 14.3102 51.5503 12.5914 50.4848 11.666C50.1721 11.3944 50.1387 10.9207 50.4103 10.608ZM55.9527 4.98362C55.64 4.71201 55.1663 4.74536 54.8947 5.05809C54.6231 5.37083 54.6564 5.84453 54.9692 6.11614C57.0248 7.90139 59.4943 11.207 60.211 15.2729C60.9185 19.287 59.9373 24.1432 54.9306 29.1499C54.6377 29.4428 54.6377 29.9177 54.9306 30.2106C55.2235 30.5035 55.6984 30.5035 55.9913 30.2106C61.3162 24.8857 62.4873 19.5461 61.6882 15.0125C60.8982 10.5308 58.2019 6.937 55.9527 4.98362Z" fill="#7E7E7E"/>
</svg>
