<svg width="612" height="253" viewBox="0 0 612 253" fill="none" xmlns="http://www.w3.org/2000/svg">
<path d="M600.733 83.6823C600.733 79.5696 597.399 76.2357 593.286 76.2357L494.521 76.2357C490.408 76.2357 487.074 79.5697 487.074 83.6823L487.074 235.161C487.074 239.274 490.408 242.608 494.521 242.608L593.286 242.608C597.399 242.608 600.733 239.274 600.733 235.161L600.733 83.6823Z" stroke="#8292A3" stroke-width="0.783856"/>
<path d="M548.014 233.636C548.014 235.91 546.171 237.753 543.898 237.753C541.624 237.753 539.781 235.91 539.781 233.636C539.781 231.363 541.624 229.52 543.898 229.52C546.171 229.52 548.014 231.363 548.014 233.636Z" stroke="#8292A3" stroke-width="0.783856"/>
<path d="M545.944 85.9035C545.944 87.0277 545.033 87.9391 543.908 87.9391C542.784 87.9391 541.873 87.0277 541.873 85.9035C541.873 84.7792 542.784 83.8678 543.908 83.8678C545.033 83.8678 545.944 84.7792 545.944 85.9035Z" stroke="#8292A3" stroke-width="0.783856"/>
<path d="M590.327 94.2674L496.782 94.2674L496.782 224.573L590.327 224.573L590.327 94.2674Z" stroke="#8292A3" stroke-width="0.783856"/>
<path d="M590.327 94.2674L496.782 94.2674L496.782 224.573L590.327 224.573L590.327 94.2674Z" stroke="#8292A3" stroke-width="0.783856"/>
<path d="M56.9284 153.446C56.9284 150.199 54.2963 147.567 51.0495 147.567H17.1552C13.9084 147.567 11.2763 150.199 11.2763 153.446V236.534C11.2763 239.781 13.9084 242.413 17.1552 242.413H51.0495C54.2963 242.413 56.9284 239.781 56.9284 236.534V153.446Z" stroke="#8292A3" stroke-width="0.783856"/>
<path d="M36.7018 234.99C36.7018 236.551 35.4364 237.816 33.8754 237.816C32.3144 237.816 31.049 236.551 31.049 234.99C31.049 233.429 32.3144 232.163 33.8754 232.163C35.4364 232.163 36.7018 233.429 36.7018 234.99Z" stroke="#8292A3" stroke-width="0.783856"/>
<path d="M34.4049 152.232C34.4049 152.523 34.1687 152.759 33.8774 152.759C33.586 152.759 33.3498 152.523 33.3498 152.232C33.3498 151.94 33.586 151.704 33.8774 151.704C34.1687 151.704 34.4049 151.94 34.4049 152.232Z" stroke="#8292A3" stroke-width="0.783856"/>
<path d="M37.6159 155.451C37.6159 155.742 37.3797 155.978 37.0883 155.978H30.6516C30.3602 155.978 30.124 155.742 30.124 155.451C30.124 155.159 30.3602 154.923 30.6516 154.923H37.0883C37.3797 154.923 37.6159 155.159 37.6159 155.451Z" stroke="#8292A3" stroke-width="0.783856"/>
<path d="M52.7878 158.141H15.4114V228.161H52.7878V158.141Z" stroke="#8292A3" stroke-width="0.783856"/>
<path d="M52.7878 158.141H15.4114V228.161H52.7878V158.141Z" stroke="#8292A3" stroke-width="0.783856"/>
<path d="M108.775 21.7579C108.775 15.4806 113.863 10.3919 120.141 10.3919H423.661C429.938 10.3919 435.027 15.4806 435.027 21.7578V222.617H108.775V21.7579Z" stroke="#8292A3" stroke-width="0.783856"/>
<path d="M66.0169 231.047C66.0169 237.325 71.1056 242.413 77.3828 242.413H466.424C472.701 242.413 477.79 237.325 477.79 231.047V222.609H66.0169V231.047Z" stroke="#8292A3" stroke-width="0.783856"/>
<path d="M66.0169 232.911H477.79V222.609H66.0169V232.911Z" stroke="#8292A3" stroke-width="0.783856"/>
<path d="M225.121 222.741C225.325 226.437 228.387 229.372 232.134 229.372H311.681C315.428 229.372 318.49 226.437 318.693 222.741H225.121Z" stroke="#8292A3" stroke-width="0.783856"/>
<path d="M268.728 24.2536C268.728 26.2238 270.325 27.821 272.295 27.821C274.265 27.821 275.863 26.2238 275.863 24.2536C275.863 22.2834 274.265 20.6863 272.295 20.6863C270.325 20.6863 268.728 22.2834 268.728 24.2536Z" stroke="#8292A3" stroke-width="0.783856"/>
<path d="M123.033 34.9393H422.362V212.323H123.033V34.9393Z" stroke="#8292A3" stroke-width="0.783856"/>
<path d="M123.033 34.9393H422.362V212.323H123.033V34.9393Z" stroke="#8292A3" stroke-width="0.783856"/>
</svg>
