<svg width="146" height="48" viewBox="0 0 146 48" fill="none" xmlns="http://www.w3.org/2000/svg">
<path fill-rule="evenodd" clip-rule="evenodd" d="M66.7952 6.48462C65.6787 6.48462 64.0005 6.74723 62.5547 7.58916C61.0463 8.46756 59.7656 10.0093 59.7656 12.4112V25.4359H62.2684V12.4112C62.2684 11.0732 62.9149 10.2787 63.8129 9.7557C64.7747 9.19558 65.9857 8.99087 66.7952 8.99087H67.1576V6.48462H66.7952Z" fill="#1E1E1F"/>
<path fill-rule="evenodd" clip-rule="evenodd" d="M72.2294 0.5H69.7266V19.9545C69.7266 21.4307 70.0291 22.9036 71.1378 23.9727C72.2309 25.0268 73.8484 25.436 75.8672 25.436H76.2296V22.9296H75.8672C74.1085 22.9296 73.2811 22.5601 72.8738 22.1674C72.4821 21.7896 72.2294 21.1479 72.2294 19.9545V9.45843H76.6756V6.95218H72.2294V0.5Z" fill="#1E1E1F"/>
<path fill-rule="evenodd" clip-rule="evenodd" d="M121.034 0.5H118.531V19.9545C118.531 21.4307 118.834 22.9036 119.943 23.9727C121.036 25.0268 122.653 25.436 124.672 25.436H125.034V22.9296H124.672C122.913 22.9296 122.086 22.5601 121.678 22.1674C121.287 21.7896 121.034 21.1479 121.034 19.9545V9.45843H125.48V6.95218H121.034V0.5Z" fill="#1E1E1F"/>
<path fill-rule="evenodd" clip-rule="evenodd" d="M20.9908 6.48511C19.5588 6.4681 18.07 6.89481 16.9115 7.83674C15.7208 8.80469 14.9375 10.2756 14.9375 12.1519V25.4359H17.399V12.1519C17.399 11.0812 17.8179 10.3425 18.4305 9.84452C19.0752 9.32036 19.9907 9.02502 20.9626 9.03655C21.9335 9.04808 22.8509 9.36463 23.5009 9.91864C24.121 10.4471 24.5545 11.2342 24.5545 12.3784V25.4359H24.7724H27.0159H27.2339V12.1519C27.2339 11.0812 27.6528 10.3425 28.2653 9.84452C28.9101 9.32036 29.8256 9.02502 30.7976 9.03655C31.7684 9.04808 32.6859 9.36463 33.3358 9.91864C33.9559 10.4471 34.3894 11.2342 34.3894 12.3784V25.4359H36.8508V12.3784C36.8508 10.4635 36.0822 8.95608 34.8991 7.9477C33.7458 6.96472 32.2589 6.50212 30.8257 6.48511C29.3936 6.4681 27.9049 6.89481 26.7463 7.83674C26.4119 8.10863 26.1096 8.42022 25.8477 8.76932C25.6144 8.46689 25.3515 8.19259 25.0642 7.9477C23.911 6.96472 22.4239 6.50212 20.9908 6.48511Z" fill="#1E1E1F"/>
<path fill-rule="evenodd" clip-rule="evenodd" d="M6.58508 6.48462C4.21345 6.48462 2.54451 7.32201 1.478 8.46944C0.455902 9.56912 0.0575235 10.8746 0.00214443 11.7921L0 11.8277V11.8633C0 13.0821 0.299461 14.3422 1.36199 15.3936C2.3875 16.4083 3.95288 17.0559 6.06475 17.4446C7.04408 17.625 7.80791 17.7888 8.41316 17.9744C9.0193 18.1601 9.38341 18.3436 9.61219 18.5214C9.79506 18.6635 9.94574 18.8439 10.0445 19.1498C10.1473 19.4685 10.1971 19.9347 10.1417 20.6487C10.1144 20.9999 9.95397 21.547 9.49654 21.9924C9.07348 22.4045 8.25077 22.8726 6.58508 22.8726C4.94483 22.8726 4.04315 22.3817 3.53919 21.8998C3.01566 21.3991 2.81765 20.8083 2.78474 20.4655V18.3204H0V20.5525L0.00271186 20.5925C0.0623596 21.4709 0.4877 22.6779 1.53282 23.6774C2.61569 24.713 4.26928 25.4359 6.58508 25.4359C8.87522 25.4359 10.4814 24.7649 11.5202 23.7532C12.5248 22.7751 12.8585 21.6149 12.9194 20.8314C13.056 19.0694 12.7429 17.5998 11.4088 16.5629C10.8032 16.0921 10.0701 15.7805 9.2929 15.5423C8.51502 15.3039 7.60981 15.115 6.61088 14.9311C4.76652 14.5915 3.8591 14.1011 3.40093 13.6476C2.98579 13.2369 2.79084 12.7086 2.78488 11.9016C2.8205 11.4498 3.04342 10.7282 3.594 10.1358C4.11424 9.57612 5.00047 9.04793 6.58508 9.04793C8.22604 9.04793 9.06489 9.53767 9.5065 9.98932C9.9882 10.482 10.1382 11.0738 10.1382 11.408V13.6001H12.9229V11.408C12.9229 10.5287 12.5786 9.29953 11.5764 8.27456C10.5341 7.20851 8.9 6.48462 6.58508 6.48462Z" fill="#1E1E1F"/>
<path fill-rule="evenodd" clip-rule="evenodd" d="M47.0801 8.98989V6.48462L46.7022 6.50078C41.7785 6.71135 37.8516 10.7748 37.8516 15.7569C37.8516 20.8737 41.9938 25.0216 47.1035 25.0216C49.7655 25.0216 52.165 23.8959 53.8529 22.0938L53.8456 25.4359H56.3483L56.3556 15.3909H56.3483C56.2933 13.9709 55.9188 12.6321 55.2946 11.4453L55.1189 11.1114L52.9523 12.3642L53.11 12.6716C53.5846 13.5962 53.8527 14.6447 53.8527 15.7569C53.8527 19.4895 50.8309 22.5154 47.1035 22.5154C43.3761 22.5154 40.3544 19.4895 40.3544 15.7569C40.3544 12.1475 43.1801 9.1987 46.7371 9.00826L47.0801 8.98989Z" fill="#1E1E1F"/>
<path fill-rule="evenodd" clip-rule="evenodd" d="M116.114 15.3847C115.923 10.4369 111.857 6.48462 106.869 6.48462C101.759 6.48462 97.6172 10.6326 97.6172 15.7494C97.6172 20.8662 101.759 25.0141 106.869 25.0141C109.531 25.0141 111.93 23.8883 113.618 22.0863V25.4359H116.122V15.3847H116.114ZM113.618 15.7494C113.618 12.0168 110.597 8.99087 106.869 8.99087C103.142 8.99087 100.12 12.0168 100.12 15.7494C100.12 19.482 103.142 22.5078 106.869 22.5078C110.597 22.5078 113.618 19.482 113.618 15.7494Z" fill="#1E1E1F"/>
<path fill-rule="evenodd" clip-rule="evenodd" d="M145.989 15.3847C145.798 10.4369 141.732 6.48462 136.744 6.48462C131.634 6.48462 127.492 10.6326 127.492 15.7494C127.492 20.8662 131.634 25.0141 136.744 25.0141C139.406 25.0141 141.805 23.8883 143.493 22.0863V25.4359H145.997V15.3847H145.989ZM143.493 15.7494C143.493 12.0168 140.472 8.99087 136.744 8.99087C133.017 8.99087 129.995 12.0168 129.995 15.7494C129.995 19.482 133.017 22.5078 136.744 22.5078C140.472 22.5078 143.493 19.482 143.493 15.7494Z" fill="#1E1E1F"/>
<path fill-rule="evenodd" clip-rule="evenodd" d="M95.6332 0.5H93.1304V8.09339C91.792 7.34007 89.5833 6.91044 87.9393 6.91044C82.8297 6.91044 78.6875 11.0584 78.6875 16.1752C78.6875 21.292 82.8297 25.4399 87.9393 25.4399C89.5833 25.4399 91.792 25.0102 93.1304 24.257V25.4386H95.6332V0.5ZM93.1304 21.1879V11.1624C91.9329 10.0772 89.6814 9.41669 87.9393 9.41669C84.2119 9.41669 81.1902 12.4426 81.1902 16.1752C81.1902 19.9078 84.2119 22.9336 87.9393 22.9336C89.6814 22.9336 91.9329 22.2731 93.1304 21.1879Z" fill="#1E1E1F"/>
<path d="M57.7478 8.20644L48.9141 13.3137V3.09918L57.7478 8.20644Z" fill="#238ACB"/>
<path d="M4.99357 42.8115C4.99357 43.1661 4.90858 43.496 4.73858 43.801C4.56859 44.1059 4.31006 44.3542 3.96298 44.5457C3.61592 44.7373 3.18739 44.833 2.6774 44.833C2.18159 44.833 1.7389 44.7443 1.34932 44.567C0.966838 44.3825 0.658727 44.1343 0.424985 43.8223C0.198326 43.5031 0.067289 43.1414 0.0318739 42.7371H1.06246C1.08371 42.9499 1.15454 43.159 1.27495 43.3648C1.40245 43.5633 1.57953 43.73 1.80618 43.8648C2.03993 43.9925 2.31971 44.0563 2.64553 44.0563C3.07052 44.0563 3.39634 43.9428 3.623 43.7159C3.84966 43.4888 3.96298 43.1981 3.96298 42.8435C3.96298 42.5384 3.88154 42.2902 3.71862 42.0987C3.5628 41.9072 3.36801 41.7582 3.13426 41.6519C2.90052 41.5383 2.58178 41.4178 2.17805 41.2901C1.70349 41.134 1.321 40.9886 1.03059 40.8539C0.747266 40.712 0.502899 40.5028 0.29749 40.2262C0.0991629 39.9496 0 39.5842 0 39.1303C0 38.7402 0.0920795 38.3962 0.276241 38.0983C0.467484 37.8004 0.736641 37.5699 1.08371 37.4068C1.43787 37.2435 1.85223 37.162 2.32679 37.162C3.06344 37.162 3.64779 37.3429 4.07986 37.7047C4.51193 38.0593 4.76338 38.5132 4.8342 39.0665H3.79299C3.73633 38.7686 3.58405 38.5061 3.33613 38.2792C3.08823 38.0521 2.75178 37.9387 2.32679 37.9387C1.93723 37.9387 1.62556 38.0415 1.39182 38.2473C1.15808 38.4458 1.04121 38.7295 1.04121 39.0984C1.04121 39.3892 1.11558 39.6268 1.26433 39.8112C1.42016 39.9885 1.6114 40.1304 1.83806 40.2368C2.06472 40.3361 2.37638 40.4496 2.77303 40.5773C3.25468 40.7332 3.64071 40.8822 3.93111 41.0241C4.2286 41.166 4.48005 41.3823 4.68546 41.6731C4.89088 41.9568 4.99357 42.3363 4.99357 42.8115Z" fill="#1E1E1F"/>
<path d="M8.94021 38.8431C9.49977 38.8431 9.99913 38.9636 10.4383 39.2048C10.8845 39.4459 11.2316 39.7935 11.4795 40.2475C11.7344 40.7014 11.8619 41.2333 11.8619 41.8434C11.8619 42.4534 11.7344 42.9853 11.4795 43.4393C11.2316 43.8862 10.8845 44.2301 10.4383 44.4713C9.99913 44.7124 9.49977 44.8331 8.94021 44.8331C8.38064 44.8331 7.87775 44.7124 7.43151 44.4713C6.99235 44.2301 6.64529 43.8862 6.3903 43.4393C6.13531 42.9853 6.00781 42.4534 6.00781 41.8434C6.00781 41.2333 6.13531 40.7014 6.3903 40.2475C6.64529 39.7935 6.99235 39.4459 7.43151 39.2048C7.87775 38.9636 8.38064 38.8431 8.94021 38.8431ZM8.94021 39.6943C8.59314 39.6943 8.27086 39.7722 7.97337 39.9283C7.68296 40.0843 7.44568 40.3255 7.26152 40.6518C7.08444 40.971 6.9959 41.3681 6.9959 41.8434C6.9959 42.3115 7.08444 42.7087 7.26152 43.035C7.44568 43.3542 7.68296 43.5918 7.97337 43.7478C8.27086 43.9038 8.59314 43.9819 8.94021 43.9819C9.28728 43.9819 9.60602 43.9038 9.89643 43.7478C10.1939 43.5918 10.4312 43.3542 10.6082 43.035C10.7925 42.7087 10.8845 42.3115 10.8845 41.8434C10.8845 41.3681 10.7925 40.971 10.6082 40.6518C10.4312 40.3255 10.1939 40.0843 9.89643 39.9283C9.60602 39.7722 9.28728 39.6943 8.94021 39.6943Z" fill="#1E1E1F"/>
<path d="M15.703 37.5344C15.186 37.5273 14.8248 37.6159 14.6193 37.8004C14.421 37.9848 14.3218 38.304 14.3218 38.758V38.9176H15.703V39.7687H14.3218V44.7586H13.355V39.7687H12.5156V38.9176H13.355V38.6835C13.355 37.2861 14.1377 36.6195 15.703 36.6833V37.5344Z" fill="#1E1E1F"/>
<path d="M29.5625 38.8928L27.8838 44.7338H26.8426L25.2383 39.978L23.6233 44.7338H22.5715L20.9141 38.8928H21.8914L23.1345 43.8082L24.7494 38.8928H25.7589L27.3845 43.7975L28.6381 38.8928H29.5625Z" fill="#1E1E1F"/>
<path d="M32.8571 38.8183C33.4238 38.8183 33.9019 38.9602 34.2914 39.2439C34.6881 39.5276 34.9644 39.9071 35.1201 40.3823V38.8928H36.087V44.7338H35.1201V43.2443C34.9644 43.7195 34.6881 44.099 34.2914 44.3827C33.9019 44.6664 33.4238 44.8082 32.8571 44.8082C32.3401 44.8082 31.8796 44.6877 31.4759 44.4465C31.0722 44.2054 30.7534 43.8613 30.5197 43.4145C30.2931 42.9606 30.1797 42.4287 30.1797 41.8186C30.1797 41.2086 30.2931 40.6767 30.5197 40.2227C30.7534 39.7688 31.0722 39.4212 31.4759 39.18C31.8796 38.9389 32.3401 38.8183 32.8571 38.8183ZM33.1333 39.6801C32.5384 39.6801 32.0602 39.8716 31.699 40.2546C31.3449 40.6306 31.1678 41.1519 31.1678 41.8186C31.1678 42.4854 31.3449 43.0102 31.699 43.3932C32.0602 43.7692 32.5384 43.9571 33.1333 43.9571C33.5158 43.9571 33.8558 43.8685 34.1533 43.6911C34.4579 43.5139 34.6952 43.2655 34.8652 42.9464C35.0351 42.6202 35.1201 42.2442 35.1201 41.8186C35.1201 41.393 35.0351 41.0171 34.8652 40.6908C34.6952 40.3646 34.4579 40.1163 34.1533 39.9461C33.8558 39.7688 33.5158 39.6801 33.1333 39.6801Z" fill="#1E1E1F"/>
<path d="M38.5997 40.0737C38.7909 39.6695 39.0706 39.3574 39.439 39.1375C39.8074 38.9105 40.2465 38.797 40.7565 38.797V39.8503H40.459C39.9136 39.8503 39.4674 39.9923 39.1203 40.2759C38.7732 40.5525 38.5997 41.0136 38.5997 41.659V44.7338H37.6328V38.8928H38.5997V40.0737Z" fill="#1E1E1F"/>
<path d="M47.0664 41.4888C47.0664 41.6945 47.0522 41.8718 47.0239 42.0207H42.3597C42.3809 42.6875 42.5686 43.1876 42.9228 43.5209C43.284 43.8543 43.7231 44.0209 44.2402 44.0209C44.7077 44.0209 45.0973 43.9039 45.4089 43.6698C45.7277 43.4287 45.9224 43.1096 45.9933 42.7123H47.0239C46.953 43.1166 46.7936 43.4783 46.5458 43.7975C46.3049 44.1167 45.9898 44.365 45.6002 44.5423C45.2106 44.7196 44.7714 44.8082 44.2827 44.8082C43.7231 44.8082 43.2274 44.6877 42.7953 44.4465C42.3632 44.2054 42.0232 43.8613 41.7753 43.4145C41.5344 42.9606 41.4141 42.4287 41.4141 41.8186C41.4141 41.2086 41.5344 40.6767 41.7753 40.2227C42.0232 39.7688 42.3632 39.4212 42.7953 39.18C43.2274 38.9389 43.7231 38.8183 44.2827 38.8183C44.8493 38.8183 45.3417 38.9389 45.7595 39.18C46.1845 39.4212 46.5068 39.7439 46.7264 40.1482C46.953 40.5525 47.0664 40.9994 47.0664 41.4888ZM46.0889 41.5526C46.1102 41.12 46.0393 40.7583 45.8764 40.4674C45.7135 40.1766 45.4904 39.9603 45.2071 39.8184C44.9237 39.6766 44.6156 39.6056 44.2827 39.6056C43.7515 39.6056 43.3052 39.7723 42.944 40.1057C42.5828 40.432 42.388 40.9142 42.3597 41.5526H46.0889Z" fill="#1E1E1F"/>
<path d="M57.272 40.9781C57.272 41.7371 57.1197 42.4002 56.8151 42.9676C56.5106 43.528 56.0608 43.9642 55.4658 44.2763C54.8779 44.5813 54.1696 44.7338 53.3409 44.7338H50.9609V37.233H53.3409C54.1696 37.233 54.8779 37.3856 55.4658 37.6905C56.0608 37.9884 56.5106 38.4211 56.8151 38.9885C57.1197 39.5489 57.272 40.212 57.272 40.9781ZM53.2665 43.8613C54.244 43.8613 54.9913 43.6096 55.5083 43.1059C56.0254 42.6024 56.2839 41.8931 56.2839 40.9781C56.2839 40.0631 56.0254 39.3539 55.5083 38.8502C54.9983 38.3395 54.2511 38.0842 53.2665 38.0842H51.9278V43.8613H53.2665Z" fill="#1E1E1F"/>
<path d="M63.9336 41.4888C63.9336 41.6945 63.9194 41.8718 63.8911 42.0207H59.2268C59.2481 42.6875 59.4358 43.1876 59.7899 43.5209C60.1512 43.8543 60.5903 44.0209 61.1074 44.0209C61.5749 44.0209 61.9645 43.9039 62.2761 43.6698C62.5948 43.4287 62.7896 43.1096 62.8605 42.7123H63.8911C63.8202 43.1166 63.6608 43.4783 63.4129 43.7975C63.1721 44.1167 62.857 44.365 62.4674 44.5423C62.0777 44.7196 61.6386 44.8082 61.1499 44.8082C60.5903 44.8082 60.0946 44.6877 59.6625 44.4465C59.2303 44.2054 58.8904 43.8613 58.6425 43.4145C58.4016 42.9606 58.2812 42.4287 58.2812 41.8186C58.2812 41.2086 58.4016 40.6767 58.6425 40.2227C58.8904 39.7688 59.2303 39.4212 59.6625 39.18C60.0946 38.9389 60.5903 38.8183 61.1499 38.8183C61.7165 38.8183 62.2089 38.9389 62.6267 39.18C63.0517 39.4212 63.374 39.7439 63.5936 40.1482C63.8202 40.5525 63.9336 40.9994 63.9336 41.4888ZM62.9561 41.5526C62.9773 41.12 62.9065 40.7583 62.7436 40.4674C62.5807 40.1766 62.3576 39.9603 62.0742 39.8184C61.7909 39.6766 61.4828 39.6056 61.1499 39.6056C60.6187 39.6056 60.1724 39.7723 59.8112 40.1057C59.45 40.432 59.2552 40.9142 59.2268 41.5526H62.9561Z" fill="#1E1E1F"/>
<path d="M67.4702 43.7018L69.2764 38.8928H70.3176L68.0333 44.7338H66.8859L64.6016 38.8928H65.6428L67.4702 43.7018Z" fill="#1E1E1F"/>
<path d="M76.6367 41.4888C76.6367 41.6945 76.6224 41.8718 76.5942 42.0207H71.93C71.9512 42.6875 72.1388 43.1876 72.4931 43.5209C72.8543 43.8543 73.2934 44.0209 73.8105 44.0209C74.278 44.0209 74.6675 43.9039 74.9792 43.6698C75.298 43.4287 75.4927 43.1096 75.5636 42.7123H76.5942C76.5233 43.1166 76.3639 43.4783 76.1161 43.7975C75.8752 44.1167 75.56 44.365 75.1705 44.5423C74.7809 44.7196 74.3418 44.8082 73.853 44.8082C73.2934 44.8082 72.7976 44.6877 72.3656 44.4465C71.9335 44.2054 71.5935 43.8613 71.3456 43.4145C71.1048 42.9606 70.9844 42.4287 70.9844 41.8186C70.9844 41.2086 71.1048 40.6767 71.3456 40.2227C71.5935 39.7688 71.9335 39.4212 72.3656 39.18C72.7976 38.9389 73.2934 38.8183 73.853 38.8183C74.4196 38.8183 74.9119 38.9389 75.3299 39.18C75.7548 39.4212 76.0771 39.7439 76.2967 40.1482C76.5233 40.5525 76.6367 40.9994 76.6367 41.4888ZM75.6592 41.5526C75.6805 41.12 75.6096 40.7583 75.4467 40.4674C75.2837 40.1766 75.0606 39.9603 74.7774 39.8184C74.494 39.6766 74.1859 39.6056 73.853 39.6056C73.3218 39.6056 72.8756 39.7723 72.5143 40.1057C72.1531 40.432 71.9582 40.9142 71.93 41.5526H75.6592Z" fill="#1E1E1F"/>
<path d="M78.8653 36.8607V44.7338H77.8984V36.8607H78.8653Z" fill="#1E1E1F"/>
<path d="M83.0652 38.8183C83.6248 38.8183 84.1242 38.9389 84.5633 39.18C85.0095 39.4212 85.3566 39.7688 85.6045 40.2227C85.8595 40.6767 85.987 41.2086 85.987 41.8186C85.987 42.4287 85.8595 42.9606 85.6045 43.4145C85.3566 43.8613 85.0095 44.2054 84.5633 44.4465C84.1242 44.6877 83.6248 44.8082 83.0652 44.8082C82.5057 44.8082 82.0028 44.6877 81.5565 44.4465C81.1174 44.2054 80.7703 43.8613 80.5153 43.4145C80.2603 42.9606 80.1328 42.4287 80.1328 41.8186C80.1328 41.2086 80.2603 40.6767 80.5153 40.2227C80.7703 39.7688 81.1174 39.4212 81.5565 39.18C82.0028 38.9389 82.5057 38.8183 83.0652 38.8183ZM83.0652 39.6694C82.7182 39.6694 82.3959 39.7475 82.0984 39.9035C81.808 40.0596 81.5708 40.3008 81.3865 40.627C81.2095 40.9462 81.1209 41.3434 81.1209 41.8186C81.1209 42.2867 81.2095 42.684 81.3865 43.0102C81.5708 43.3294 81.808 43.5671 82.0984 43.723C82.3959 43.8791 82.7182 43.9571 83.0652 43.9571C83.4123 43.9571 83.7311 43.8791 84.0214 43.723C84.3189 43.5671 84.5563 43.3294 84.7333 43.0102C84.9175 42.684 85.0095 42.2867 85.0095 41.8186C85.0095 41.3434 84.9175 40.9462 84.7333 40.627C84.5563 40.3008 84.3189 40.0596 84.0214 39.9035C83.7311 39.7475 83.4123 39.6694 83.0652 39.6694Z" fill="#1E1E1F"/>
<path d="M90.4693 38.8183C90.9864 38.8183 91.4467 38.9389 91.8505 39.18C92.2542 39.4212 92.5694 39.7688 92.7961 40.2227C93.0298 40.6767 93.1467 41.2086 93.1467 41.8186C93.1467 42.4287 93.0298 42.9606 92.7961 43.4145C92.5694 43.8613 92.2542 44.2054 91.8505 44.4465C91.4467 44.6877 90.9864 44.8082 90.4693 44.8082C89.9027 44.8082 89.421 44.6664 89.0243 44.3827C88.6348 44.0919 88.3656 43.7124 88.2168 43.2443V47.5H87.25V38.8928H88.2168V40.3823C88.3656 39.9141 88.6348 39.5383 89.0243 39.2545C89.421 38.9637 89.9027 38.8183 90.4693 38.8183ZM90.193 39.6801C89.8177 39.6801 89.4777 39.7688 89.1731 39.9461C88.8686 40.1163 88.6312 40.3646 88.4612 40.6908C88.2912 41.0171 88.2062 41.393 88.2062 41.8186C88.2062 42.2442 88.2912 42.6202 88.4612 42.9464C88.6312 43.2655 88.8686 43.5139 89.1731 43.6911C89.4777 43.8685 89.8177 43.9571 90.193 43.9571C90.7951 43.9571 91.2732 43.7692 91.6274 43.3932C91.9886 43.0102 92.1692 42.4854 92.1692 41.8186C92.1692 41.1519 91.9886 40.6306 91.6274 40.2546C91.2732 39.8716 90.7951 39.6801 90.193 39.6801Z" fill="#1E1E1F"/>
<path d="M101.578 38.797C102.258 38.797 102.803 39.0169 103.214 39.4567C103.632 39.8894 103.841 40.5171 103.841 41.3398V44.7338H102.874V41.4249C102.874 40.8504 102.732 40.4107 102.449 40.1057C102.173 39.8007 101.79 39.6482 101.302 39.6482C100.792 39.6482 100.381 39.8184 100.069 40.1589C99.7646 40.4923 99.6123 40.9852 99.6123 41.6377V44.7338H98.6455V41.4249C98.6455 40.8504 98.5038 40.4107 98.2205 40.1057C97.9371 39.8007 97.5547 39.6482 97.073 39.6482C96.5559 39.6482 96.1416 39.8184 95.8299 40.1589C95.5253 40.4923 95.3731 40.9852 95.3731 41.6377V44.7338H94.4062V38.8928H95.3731V40.2227C95.5147 39.7617 95.7662 39.4106 96.1274 39.1694C96.4958 38.9212 96.9172 38.797 97.3918 38.797C97.8876 38.797 98.3161 38.9247 98.6773 39.18C99.0457 39.4284 99.3077 39.7971 99.4636 40.2865C99.6265 39.8114 99.8992 39.446 100.282 39.1907C100.664 38.9283 101.096 38.797 101.578 38.797Z" fill="#1E1E1F"/>
<path d="M110.707 41.4888C110.707 41.6945 110.693 41.8718 110.664 42.0207H106C106.022 42.6875 106.209 43.1876 106.563 43.5209C106.924 43.8543 107.364 44.0209 107.881 44.0209C108.348 44.0209 108.738 43.9039 109.049 43.6698C109.368 43.4287 109.564 43.1096 109.634 42.7123H110.664C110.594 43.1166 110.435 43.4783 110.186 43.7975C109.946 44.1167 109.631 44.365 109.241 44.5423C108.852 44.7196 108.412 44.8082 107.923 44.8082C107.364 44.8082 106.868 44.6877 106.436 44.4465C106.004 44.2054 105.664 43.8613 105.416 43.4145C105.175 42.9606 105.055 42.4287 105.055 41.8186C105.055 41.2086 105.175 40.6767 105.416 40.2227C105.664 39.7688 106.004 39.4212 106.436 39.18C106.868 38.9389 107.364 38.8183 107.923 38.8183C108.49 38.8183 108.982 38.9389 109.4 39.18C109.825 39.4212 110.148 39.7439 110.367 40.1482C110.594 40.5525 110.707 40.9994 110.707 41.4888ZM109.729 41.5526C109.751 41.12 109.68 40.7583 109.517 40.4674C109.354 40.1766 109.131 39.9603 108.847 39.8184C108.565 39.6766 108.257 39.6056 107.923 39.6056C107.392 39.6056 106.946 39.7723 106.584 40.1057C106.223 40.432 106.029 40.9142 106 41.5526H109.729Z" fill="#1E1E1F"/>
<path d="M115.039 38.797C115.719 38.797 116.269 39.0169 116.686 39.4567C117.105 39.8894 117.313 40.5171 117.313 41.3398V44.7338H116.346V41.4249C116.346 40.8434 116.197 40.3965 115.9 40.0844C115.602 39.7723 115.199 39.6163 114.689 39.6163C114.157 39.6163 113.732 39.7901 113.414 40.1376C113.095 40.478 112.936 40.9781 112.936 41.6377V44.7338H111.969V38.8928H112.936V40.2759C113.084 39.8007 113.347 39.4354 113.722 39.18C114.104 38.9247 114.544 38.797 115.039 38.797Z" fill="#1E1E1F"/>
<path d="M121.579 43.8826V44.7338H120.856C120.261 44.7338 119.815 44.5919 119.518 44.3082C119.228 44.0246 119.082 43.5493 119.082 42.8825V39.7333H118.211V38.8928H119.082V37.4352H120.06V38.8928H121.568V39.7333H120.06V42.9038C120.06 43.2798 120.128 43.5387 120.261 43.6805C120.404 43.8153 120.644 43.8826 120.984 43.8826H121.579Z" fill="#1E1E1F"/>
<path d="M19.9461 43.9233V44.7744H19.2237C18.6287 44.7744 18.1824 44.6325 17.885 44.3488C17.5946 44.0651 17.4493 43.5898 17.4493 42.9232V39.7739H16.5781V38.9334H17.4493V37.4758H18.4268V38.9334H19.9355V39.7739H18.4268V42.9445C18.4268 43.3203 18.4941 43.5792 18.6287 43.7211C18.7703 43.8558 19.0112 43.9233 19.3512 43.9233H19.9461Z" fill="#1E1E1F"/>
</svg>
