<svg width="187" height="60" viewBox="0 0 187 60" fill="none" xmlns="http://www.w3.org/2000/svg">
<path fill-rule="evenodd" clip-rule="evenodd" d="M85.2708 7.63965C83.8454 7.63965 81.7031 7.9749 79.8574 9.0497C77.9318 10.1711 76.2969 12.1393 76.2969 15.2055V31.8328H79.4919V15.2055C79.4919 13.4974 80.3172 12.4831 81.4636 11.8155C82.6915 11.1004 84.2374 10.8391 85.2708 10.8391H85.7335V7.63965H85.2708Z" fill="#1E1E1F"/>
<path fill-rule="evenodd" clip-rule="evenodd" d="M92.2107 0H89.0156V24.8355C89.0156 26.72 89.4018 28.6003 90.8173 29.9652C92.2127 31.3108 94.2775 31.8331 96.8547 31.8331H97.3174V28.6336H96.8547C94.6096 28.6336 93.5534 28.1619 93.0334 27.6606C92.5333 27.1783 92.2107 26.359 92.2107 24.8355V11.4363H97.8867V8.23682H92.2107V0Z" fill="#1E1E1F"/>
<path fill-rule="evenodd" clip-rule="evenodd" d="M154.515 0H151.32V24.8355C151.32 26.72 151.706 28.6003 153.122 29.9652C154.517 31.3108 156.582 31.8331 159.159 31.8331H159.622V28.6336H159.159C156.914 28.6336 155.858 28.1619 155.338 27.6606C154.838 27.1783 154.515 26.359 154.515 24.8355V11.4363H160.191V8.23682H154.515V0Z" fill="#1E1E1F"/>
<path fill-rule="evenodd" clip-rule="evenodd" d="M26.798 7.64027C24.9698 7.61856 23.0692 8.1633 21.5903 9.36576C20.0702 10.6014 19.0703 12.4792 19.0703 14.8744V31.8328H22.2127V14.8744C22.2127 13.5077 22.7475 12.5646 23.5294 11.9289C24.3524 11.2597 25.5212 10.8827 26.7619 10.8974C28.0014 10.9121 29.1725 11.3163 30.0023 12.0235C30.7939 12.6982 31.3474 13.7029 31.3474 15.1636V31.8328H31.6255H34.4896H34.7678V14.8744C34.7678 13.5077 35.3026 12.5646 36.0846 11.9289C36.9076 11.2597 38.0764 10.8827 39.3172 10.8974C40.5566 10.9121 41.7278 11.3163 42.5575 12.0235C43.3491 12.6982 43.9025 13.7029 43.9025 15.1636V31.8328H47.0447V15.1636C47.0447 12.7191 46.0635 10.7947 44.5532 9.50741C43.0809 8.25254 41.1828 7.662 39.3531 7.64027C37.525 7.61856 35.6245 8.1633 34.1454 9.36576C33.7184 9.71285 33.3325 10.1106 32.9982 10.5563C32.7004 10.1702 32.3647 9.82003 31.998 9.50741C30.5258 8.25254 28.6275 7.662 26.798 7.64027Z" fill="#1E1E1F"/>
<path fill-rule="evenodd" clip-rule="evenodd" d="M8.40649 7.64014C5.37888 7.64014 3.2483 8.70914 1.88681 10.174C0.582003 11.5778 0.0734342 13.2444 0.00273757 14.4157L0 14.4611V14.5065C0 16.0625 0.382291 17.6711 1.73871 19.0133C3.04788 20.3087 5.04624 21.1353 7.74223 21.6317C8.99244 21.8618 9.96755 22.071 10.7402 22.3079C11.514 22.545 11.9788 22.7792 12.2709 23.0062C12.5043 23.1876 12.6967 23.4179 12.8227 23.8084C12.954 24.2153 13.0176 24.8104 12.9468 25.722C12.9121 26.1702 12.7072 26.8687 12.1232 27.4373C11.5832 27.9633 10.5329 28.5609 8.40649 28.5609C6.31254 28.5609 5.16147 27.9343 4.51812 27.319C3.84978 26.6799 3.597 25.9257 3.55499 25.488V22.7496H0V25.5992L0.00346195 25.6501C0.0796081 26.7716 0.622596 28.3124 1.95679 29.5883C3.33918 30.9104 5.45014 31.8333 8.40649 31.8333C11.3301 31.8333 13.3805 30.9766 14.7066 29.6852C15.9891 28.4365 16.4151 26.9554 16.4928 25.9552C16.6673 23.7058 16.2675 21.8298 14.5645 20.506C13.7913 19.905 12.8554 19.5073 11.8633 19.2032C10.8702 18.8988 9.71465 18.6577 8.43942 18.4229C6.08492 17.9894 4.92652 17.3633 4.34161 16.7844C3.81165 16.26 3.56278 15.5856 3.55517 14.5554C3.60064 13.9787 3.88522 13.0575 4.58808 12.3013C5.25222 11.5867 6.38358 10.9124 8.40649 10.9124C10.5013 10.9124 11.5722 11.5377 12.136 12.1142C12.7509 12.7432 12.9423 13.4987 12.9423 13.9253V16.7237H16.4974V13.9253C16.4974 12.8028 16.0578 11.2336 14.7783 9.92516C13.4477 8.56426 11.3617 7.64014 8.40649 7.64014Z" fill="#1E1E1F"/>
<path fill-rule="evenodd" clip-rule="evenodd" d="M60.1015 10.8379V7.63965L59.619 7.66028C53.3335 7.9291 48.3203 13.1165 48.3203 19.4766C48.3203 26.0087 53.6083 31.3039 60.1313 31.3039C63.5296 31.3039 66.5927 29.8668 68.7476 27.5663L68.7382 31.8328H71.9332L71.9425 19.0094H71.9332C71.8629 17.1966 71.3848 15.4875 70.588 13.9724L70.3638 13.5462L67.5978 15.1455L67.7992 15.5379C68.4051 16.7182 68.7473 18.0567 68.7473 19.4766C68.7473 24.2416 64.8897 28.1045 60.1313 28.1045C55.3729 28.1045 51.5154 24.2416 51.5154 19.4766C51.5154 14.8689 55.1227 11.1044 59.6635 10.8613L60.1015 10.8379Z" fill="#1E1E1F"/>
<path fill-rule="evenodd" clip-rule="evenodd" d="M148.23 19.0014C147.986 12.6852 142.795 7.63965 136.428 7.63965C129.905 7.63965 124.617 12.9349 124.617 19.467C124.617 25.9991 129.905 31.2943 136.428 31.2943C139.826 31.2943 142.889 29.8571 145.044 27.5567V31.8328H148.24V19.0014H148.23ZM145.044 19.467C145.044 14.702 141.187 10.8391 136.428 10.8391C131.67 10.8391 127.812 14.702 127.812 19.467C127.812 24.232 131.67 28.0948 136.428 28.0948C141.187 28.0948 145.044 24.232 145.044 19.467Z" fill="#1E1E1F"/>
<path fill-rule="evenodd" clip-rule="evenodd" d="M186.371 19.0014C186.127 12.6852 180.936 7.63965 174.569 7.63965C168.046 7.63965 162.758 12.9349 162.758 19.467C162.758 25.9991 168.046 31.2943 174.569 31.2943C177.967 31.2943 181.03 29.8571 183.185 27.5567V31.8328H186.38V19.0014H186.371ZM183.185 19.467C183.185 14.702 179.327 10.8391 174.569 10.8391C169.81 10.8391 165.953 14.702 165.953 19.467C165.953 24.232 169.81 28.0948 174.569 28.0948C179.327 28.0948 183.185 24.232 183.185 19.467Z" fill="#1E1E1F"/>
<path fill-rule="evenodd" clip-rule="evenodd" d="M122.086 0H118.891V9.69369C117.182 8.73201 114.363 8.18353 112.264 8.18353C105.741 8.18353 100.453 13.4788 100.453 20.0109C100.453 26.543 105.741 31.8382 112.264 31.8382C114.363 31.8382 117.182 31.2896 118.891 30.328V31.8365H122.086V0ZM118.891 26.4101V13.6115C117.362 12.2262 114.488 11.383 112.264 11.383C107.506 11.383 103.648 15.2459 103.648 20.0109C103.648 24.7759 107.506 28.6387 112.264 28.6387C114.488 28.6387 117.362 27.7955 118.891 26.4101Z" fill="#1E1E1F"/>
<path d="M73.7224 9.83777L62.4453 16.3577V3.31787L73.7224 9.83777Z" fill="#238ACB"/>
<path d="M6.37478 54.0149C6.37478 54.4675 6.26627 54.8886 6.04925 55.278C5.83224 55.6673 5.5022 55.9843 5.05913 56.2287C4.61607 56.4732 4.069 56.5955 3.41796 56.5955C2.78501 56.5955 2.21987 56.4822 1.72254 56.2559C1.23426 56.0204 0.840929 55.7035 0.542535 55.3051C0.253182 54.8977 0.0859009 54.4359 0.0406901 53.9198H1.35633C1.38346 54.1914 1.47388 54.4584 1.6276 54.7211C1.79036 54.9746 2.01642 55.1874 2.30577 55.3595C2.60416 55.5225 2.96134 55.604 3.37727 55.604C3.91981 55.604 4.33575 55.459 4.6251 55.1693C4.91446 54.8795 5.05913 54.5083 5.05913 54.0556C5.05913 53.6662 4.95515 53.3493 4.74717 53.1048C4.54825 52.8604 4.29958 52.6702 4.00119 52.5344C3.70279 52.3895 3.29589 52.2356 2.78048 52.0726C2.17466 51.8734 1.68638 51.6877 1.31564 51.5157C0.953956 51.3346 0.641999 51.0675 0.379774 50.7144C0.126591 50.3613 0 49.8948 0 49.3154C0 48.8174 0.117548 48.3783 0.352647 47.998C0.596788 47.6177 0.940393 47.3233 1.38346 47.1151C1.83558 46.9068 2.36455 46.8027 2.97037 46.8027C3.91077 46.8027 4.65676 47.0336 5.20833 47.4954C5.75991 47.9481 6.08091 48.5277 6.17132 49.2339H4.84212C4.76978 48.8536 4.57538 48.5186 4.25889 48.2289C3.94242 47.939 3.51291 47.7942 2.97037 47.7942C2.47306 47.7942 2.07519 47.9254 1.7768 48.1881C1.4784 48.4416 1.3292 48.8038 1.3292 49.2747C1.3292 49.6459 1.42415 49.9492 1.61403 50.1847C1.81297 50.411 2.05711 50.5921 2.34646 50.728C2.63582 50.8547 3.03367 50.9996 3.54003 51.1626C4.15491 51.3617 4.64771 51.5519 5.01844 51.7331C5.39821 51.9141 5.71922 52.1902 5.98144 52.5616C6.24367 52.9237 6.37478 53.4081 6.37478 54.0149Z" fill="#1E1E1F"/>
<path d="M11.4154 48.9487C12.1297 48.9487 12.7672 49.1026 13.3278 49.4105C13.8974 49.7183 14.3405 50.162 14.657 50.7416C14.9825 51.321 15.1452 52.0001 15.1452 52.7789C15.1452 53.5576 14.9825 54.2367 14.657 54.8162C14.3405 55.3867 13.8974 55.8258 13.3278 56.1337C12.7672 56.4414 12.1297 56.5955 11.4154 56.5955C10.701 56.5955 10.059 56.4414 9.48937 56.1337C8.92874 55.8258 8.48568 55.3867 8.16016 54.8162C7.83463 54.2367 7.67188 53.5576 7.67188 52.7789C7.67188 52.0001 7.83463 51.321 8.16016 50.7416C8.48568 50.162 8.92874 49.7183 9.48937 49.4105C10.059 49.1026 10.701 48.9487 11.4154 48.9487ZM11.4154 50.0353C10.9723 50.0353 10.5609 50.1349 10.1811 50.3341C9.81036 50.5332 9.50745 50.8411 9.27235 51.2577C9.04629 51.6652 8.93327 52.1722 8.93327 52.7789C8.93327 53.3765 9.04629 53.8835 9.27235 54.3001C9.50745 54.7076 9.81036 55.0108 10.1811 55.2101C10.5609 55.4092 10.9723 55.5089 11.4154 55.5089C11.8584 55.5089 12.2653 55.4092 12.6361 55.2101C13.0158 55.0108 13.3188 54.7076 13.5448 54.3001C13.7799 53.8835 13.8974 53.3765 13.8974 52.7789C13.8974 52.1722 13.7799 51.6652 13.5448 51.2577C13.3188 50.8411 13.0158 50.5332 12.6361 50.3341C12.2653 50.1349 11.8584 50.0353 11.4154 50.0353Z" fill="#1E1E1F"/>
<path d="M20.0456 47.2779C19.3856 47.2688 18.9244 47.382 18.6621 47.6175C18.409 47.8529 18.2823 48.2603 18.2823 48.8399V49.0436H20.0456V50.1302H18.2823V56.5002H17.0481V50.1302H15.9766V49.0436H17.0481V48.7448C17.0481 46.9609 18.0473 46.1099 20.0456 46.1914V47.2779Z" fill="#1E1E1F"/>
<path d="M37.7359 49.0117L35.5929 56.4683H34.2637L32.2156 50.3971L30.154 56.4683H28.8112L26.6953 49.0117H27.943L29.5299 55.2867L31.5916 49.0117H32.8802L34.9554 55.2731L36.5557 49.0117H37.7359Z" fill="#1E1E1F"/>
<path d="M41.9414 48.917C42.6649 48.917 43.2752 49.0982 43.7725 49.4603C44.2789 49.8225 44.6316 50.307 44.8304 50.9136V49.0121H46.0647V56.4687H44.8304V54.5672C44.6316 55.1739 44.2789 55.6583 43.7725 56.0204C43.2752 56.3827 42.6649 56.5637 41.9414 56.5637C41.2814 56.5637 40.6936 56.4098 40.1782 56.1019C39.6628 55.7942 39.2559 55.3549 38.9575 54.7845C38.6682 54.2051 38.5234 53.526 38.5234 52.7472C38.5234 51.9685 38.6682 51.2894 38.9575 50.7098C39.2559 50.1304 39.6628 49.6867 40.1782 49.3788C40.6936 49.071 41.2814 48.917 41.9414 48.917ZM42.2941 50.0171C41.5345 50.0171 40.9242 50.2616 40.463 50.7506C40.0109 51.2306 39.7848 51.8961 39.7848 52.7472C39.7848 53.5983 40.0109 54.2684 40.463 54.7573C40.9242 55.2373 41.5345 55.4772 42.2941 55.4772C42.7823 55.4772 43.2164 55.364 43.5961 55.1376C43.985 54.9113 44.2879 54.5943 44.5049 54.1869C44.7219 53.7704 44.8304 53.2904 44.8304 52.7472C44.8304 52.2039 44.7219 51.724 44.5049 51.3074C44.2879 50.891 43.985 50.574 43.5961 50.3567C43.2164 50.1304 42.7823 50.0171 42.2941 50.0171Z" fill="#1E1E1F"/>
<path d="M49.2733 50.5195C49.5175 50.0034 49.8746 49.605 50.3448 49.3243C50.8151 49.0346 51.3756 48.8896 52.0267 48.8896V50.2343H51.6469C50.9507 50.2343 50.381 50.4155 49.9379 50.7776C49.4948 51.1307 49.2733 51.7193 49.2733 52.5432V56.4685H48.0391V49.0119H49.2733V50.5195Z" fill="#1E1E1F"/>
<path d="M60.0829 52.3261C60.0829 52.5888 60.0649 52.8151 60.0286 53.0052H54.0743C54.1015 53.8564 54.3411 54.4948 54.7932 54.9203C55.2543 55.346 55.8149 55.5587 56.475 55.5587C57.0718 55.5587 57.5692 55.4092 57.967 55.1104C58.3739 54.8027 58.6225 54.3952 58.713 53.8881H60.0286C59.9382 54.4042 59.7347 54.866 59.4183 55.2734C59.1108 55.6809 58.7085 55.9979 58.2112 56.2242C57.7138 56.4506 57.1532 56.5637 56.5293 56.5637C55.8149 56.5637 55.182 56.4098 54.6304 56.1019C54.0788 55.7942 53.6448 55.3549 53.3283 54.7845C53.0209 54.2051 52.8672 53.526 52.8672 52.7472C52.8672 51.9685 53.0209 51.2894 53.3283 50.7098C53.6448 50.1304 54.0788 49.6867 54.6304 49.3788C55.182 49.071 55.8149 48.917 56.5293 48.917C57.2526 48.917 57.8812 49.071 58.4146 49.3788C58.9571 49.6867 59.3685 50.0986 59.6489 50.6148C59.9382 51.1309 60.0829 51.7013 60.0829 52.3261ZM58.8351 52.4076C58.8622 51.8554 58.7717 51.3936 58.5638 51.0222C58.3559 50.651 58.071 50.3749 57.7093 50.1937C57.3476 50.0127 56.9542 49.9221 56.5293 49.9221C55.8511 49.9221 55.2815 50.1349 54.8203 50.5604C54.3592 50.977 54.1105 51.5927 54.0743 52.4076H58.8351Z" fill="#1E1E1F"/>
<path d="M73.1113 51.674C73.1113 52.6429 72.917 53.4895 72.5281 54.2138C72.1394 54.9292 71.5651 55.4861 70.8056 55.8844C70.0551 56.2738 69.1508 56.4685 68.0929 56.4685H65.0547V46.8931H68.0929C69.1508 46.8931 70.0551 47.0878 70.8056 47.4771C71.5651 47.8574 72.1394 48.4098 72.5281 49.1341C72.917 49.8495 73.1113 50.6961 73.1113 51.674ZM67.9979 55.3547C69.2458 55.3547 70.1998 55.0334 70.8598 54.3904C71.5199 53.7476 71.8499 52.842 71.8499 51.674C71.8499 50.5059 71.5199 49.6005 70.8598 48.9576C70.2088 48.3056 69.2549 47.9796 67.9979 47.9796H66.289V55.3547H67.9979Z" fill="#1E1E1F"/>
<path d="M81.6141 52.3261C81.6141 52.5888 81.5961 52.8151 81.5599 53.0052H75.6056C75.6327 53.8564 75.8724 54.4948 76.3244 54.9203C76.7856 55.346 77.3462 55.5587 78.0063 55.5587C78.6031 55.5587 79.1004 55.4092 79.4983 55.1104C79.9052 54.8027 80.1538 54.3952 80.2442 53.8881H81.5599C81.4694 54.4042 81.266 54.866 80.9495 55.2734C80.6421 55.6809 80.2398 55.9979 79.7424 56.2242C79.245 56.4506 78.6845 56.5637 78.0605 56.5637C77.3462 56.5637 76.7133 56.4098 76.1617 56.1019C75.6101 55.7942 75.176 55.3549 74.8596 54.7845C74.5521 54.2051 74.3984 53.526 74.3984 52.7472C74.3984 51.9685 74.5521 51.2894 74.8596 50.7098C75.176 50.1304 75.6101 49.6867 76.1617 49.3788C76.7133 49.071 77.3462 48.917 78.0605 48.917C78.7839 48.917 79.4124 49.071 79.9458 49.3788C80.4884 49.6867 80.8998 50.0986 81.1801 50.6148C81.4694 51.1309 81.6141 51.7013 81.6141 52.3261ZM80.3663 52.4076C80.3934 51.8554 80.303 51.3936 80.095 51.0222C79.8871 50.651 79.6023 50.3749 79.2406 50.1937C78.8788 50.0127 78.4855 49.9221 78.0605 49.9221C77.3824 49.9221 76.8127 50.1349 76.3516 50.5604C75.8904 50.977 75.6418 51.5927 75.6056 52.4076H80.3663Z" fill="#1E1E1F"/>
<path d="M86.1309 55.1508L88.4366 49.0117H89.7658L86.8497 56.4683H85.3849L82.4688 49.0117H83.798L86.1309 55.1508Z" fill="#1E1E1F"/>
<path d="M97.8329 52.3261C97.8329 52.5888 97.8147 52.8151 97.7786 53.0052H91.8243C91.8515 53.8564 92.091 54.4948 92.5432 54.9203C93.0043 55.346 93.5649 55.5587 94.225 55.5587C94.8218 55.5587 95.3191 55.4092 95.717 55.1104C96.1239 54.8027 96.3725 54.3952 96.463 53.8881H97.7786C97.6882 54.4042 97.4847 54.866 97.1683 55.2734C96.8608 55.6809 96.4584 55.9979 95.9612 56.2242C95.4638 56.4506 94.9032 56.5637 94.2793 56.5637C93.5649 56.5637 92.9319 56.4098 92.3804 56.1019C91.8288 55.7942 91.3948 55.3549 91.0783 54.7845C90.7709 54.2051 90.6172 53.526 90.6172 52.7472C90.6172 51.9685 90.7709 51.2894 91.0783 50.7098C91.3948 50.1304 91.8288 49.6867 92.3804 49.3788C92.9319 49.071 93.5649 48.917 94.2793 48.917C95.0026 48.917 95.631 49.071 96.1646 49.3788C96.7071 49.6867 97.1185 50.0986 97.3989 50.6148C97.6882 51.1309 97.8329 51.7013 97.8329 52.3261ZM96.5851 52.4076C96.6122 51.8554 96.5217 51.3936 96.3138 51.0222C96.1057 50.651 95.8209 50.3749 95.4593 50.1937C95.0976 50.0127 94.7042 49.9221 94.2793 49.9221C93.6011 49.9221 93.0315 50.1349 92.5703 50.5604C92.1092 50.977 91.8604 51.5927 91.8243 52.4076H96.5851Z" fill="#1E1E1F"/>
<path d="M100.68 46.418V56.4687H99.4453V46.418H100.68Z" fill="#1E1E1F"/>
<path d="M106.04 48.917C106.755 48.917 107.392 49.071 107.953 49.3788C108.522 49.6867 108.966 50.1304 109.282 50.7098C109.608 51.2894 109.77 51.9685 109.77 52.7472C109.77 53.526 109.608 54.2051 109.282 54.7845C108.966 55.3549 108.522 55.7942 107.953 56.1019C107.392 56.4098 106.755 56.5637 106.04 56.5637C105.326 56.5637 104.684 56.4098 104.114 56.1019C103.554 55.7942 103.111 55.3549 102.785 54.7845C102.46 54.2051 102.297 53.526 102.297 52.7472C102.297 51.9685 102.46 51.2894 102.785 50.7098C103.111 50.1304 103.554 49.6867 104.114 49.3788C104.684 49.071 105.326 48.917 106.04 48.917ZM106.04 50.0036C105.597 50.0036 105.186 50.1033 104.806 50.3024C104.435 50.5016 104.133 50.8095 103.897 51.226C103.671 51.6334 103.558 52.1406 103.558 52.7472C103.558 53.3448 103.671 53.8519 103.897 54.2684C104.133 54.6758 104.435 54.9792 104.806 55.1784C105.186 55.3776 105.597 55.4772 106.04 55.4772C106.483 55.4772 106.89 55.3776 107.261 55.1784C107.641 54.9792 107.944 54.6758 108.17 54.2684C108.405 53.8519 108.522 53.3448 108.522 52.7472C108.522 52.1406 108.405 51.6334 108.17 51.226C107.944 50.8095 107.641 50.5016 107.261 50.3024C106.89 50.1033 106.483 50.0036 106.04 50.0036Z" fill="#1E1E1F"/>
<path d="M115.493 48.917C116.153 48.917 116.74 49.071 117.256 49.3788C117.771 49.6867 118.174 50.1304 118.463 50.7098C118.761 51.2894 118.91 51.9685 118.91 52.7472C118.91 53.526 118.761 54.2051 118.463 54.7845C118.174 55.3549 117.771 55.7942 117.256 56.1019C116.74 56.4098 116.153 56.5637 115.493 56.5637C114.769 56.5637 114.154 56.3827 113.648 56.0204C113.151 55.6492 112.807 55.1648 112.617 54.5672V60H111.383V49.0121H112.617V50.9136C112.807 50.3159 113.151 49.8361 113.648 49.4739C114.154 49.1027 114.769 48.917 115.493 48.917ZM115.14 50.0171C114.661 50.0171 114.227 50.1304 113.838 50.3567C113.449 50.574 113.146 50.891 112.929 51.3074C112.712 51.724 112.604 52.2039 112.604 52.7472C112.604 53.2904 112.712 53.7704 112.929 54.1869C113.146 54.5943 113.449 54.9113 113.838 55.1376C114.227 55.364 114.661 55.4772 115.14 55.4772C115.909 55.4772 116.519 55.2373 116.971 54.7573C117.432 54.2684 117.663 53.5983 117.663 52.7472C117.663 51.8961 117.432 51.2306 116.971 50.7506C116.519 50.2616 115.909 50.0171 115.14 50.0171Z" fill="#1E1E1F"/>
<path d="M129.671 48.8896C130.539 48.8896 131.235 49.1704 131.76 49.7317C132.293 50.2841 132.56 51.0855 132.56 52.1358V56.4685H131.326V52.2444C131.326 51.511 131.145 50.9497 130.783 50.5603C130.43 50.171 129.942 49.9762 129.318 49.9762C128.667 49.9762 128.143 50.1935 127.745 50.6282C127.356 51.0538 127.162 51.6831 127.162 52.5161V56.4685H125.927V52.2444C125.927 51.511 125.747 50.9497 125.385 50.5603C125.023 50.171 124.535 49.9762 123.92 49.9762C123.26 49.9762 122.731 50.1935 122.333 50.6282C121.944 51.0538 121.75 51.6831 121.75 52.5161V56.4685H120.516V49.0119H121.75V50.7097C121.931 50.1211 122.252 49.6729 122.713 49.365C123.183 49.0481 123.721 48.8896 124.327 48.8896C124.96 48.8896 125.507 49.0526 125.968 49.3786C126.438 49.6956 126.773 50.1664 126.972 50.7911C127.18 50.1846 127.528 49.7182 128.016 49.3922C128.504 49.0573 129.056 48.8896 129.671 48.8896Z" fill="#1E1E1F"/>
<path d="M141.325 52.3261C141.325 52.5888 141.307 52.8151 141.271 53.0052H135.317C135.344 53.8564 135.583 54.4948 136.035 54.9203C136.496 55.346 137.058 55.5587 137.717 55.5587C138.314 55.5587 138.812 55.4092 139.209 55.1104C139.616 54.8027 139.865 54.3952 139.955 53.8881H141.271C141.181 54.4042 140.978 54.866 140.66 55.2734C140.354 55.6809 139.951 55.9979 139.453 56.2242C138.957 56.4506 138.395 56.5637 137.771 56.5637C137.058 56.5637 136.424 56.4098 135.872 56.1019C135.321 55.7942 134.887 55.3549 134.571 54.7845C134.263 54.2051 134.109 53.526 134.109 52.7472C134.109 51.9685 134.263 51.2894 134.571 50.7098C134.887 50.1304 135.321 49.6867 135.872 49.3788C136.424 49.071 137.058 48.917 137.771 48.917C138.496 48.917 139.123 49.071 139.657 49.3788C140.199 49.6867 140.611 50.0986 140.891 50.6148C141.181 51.1309 141.325 51.7013 141.325 52.3261ZM140.077 52.4076C140.104 51.8554 140.015 51.3936 139.806 51.0222C139.598 50.651 139.313 50.3749 138.951 50.1937C138.59 50.0127 138.197 49.9221 137.771 49.9221C137.093 49.9221 136.523 50.1349 136.062 50.5604C135.601 50.977 135.353 51.5927 135.317 52.4076H140.077Z" fill="#1E1E1F"/>
<path d="M146.857 48.8896C147.725 48.8896 148.427 49.1704 148.96 49.7317C149.494 50.2841 149.76 51.0855 149.76 52.1358V56.4685H148.526V52.2444C148.526 51.502 148.336 50.9316 147.956 50.5331C147.576 50.1347 147.061 49.9355 146.41 49.9355C145.732 49.9355 145.189 50.1574 144.782 50.601C144.375 51.0356 144.172 51.674 144.172 52.5161V56.4685H142.938V49.0119H144.172V50.7776C144.362 50.171 144.697 49.7046 145.175 49.3786C145.664 49.0526 146.225 48.8896 146.857 48.8896Z" fill="#1E1E1F"/>
<path d="M155.206 55.3821V56.4687H154.284C153.524 56.4687 152.954 56.2877 152.575 55.9254C152.204 55.5633 152.018 54.9566 152.018 54.1054V50.0851H150.906V49.0121H152.018V47.1514H153.266V49.0121H155.192V50.0851H153.266V54.1326C153.266 54.6126 153.353 54.943 153.524 55.1241C153.706 55.2962 154.012 55.3821 154.446 55.3821H155.206Z" fill="#1E1E1F"/>
<path d="M25.4636 55.4334V56.52H24.5413C23.7818 56.52 23.2121 56.3388 22.8324 55.9767C22.4617 55.6145 22.2763 55.0078 22.2763 54.1567V50.1364H21.1641V49.0634H22.2763V47.2026H23.5241V49.0634H25.4501V50.1364H23.5241V54.1839C23.5241 54.6637 23.6099 54.9942 23.7818 55.1754C23.9626 55.3473 24.2701 55.4334 24.7041 55.4334H25.4636Z" fill="#1E1E1F"/>
</svg>
