<svg width="63" height="50" viewBox="0 0 63 50" fill="none" xmlns="http://www.w3.org/2000/svg">
<path opacity="0.4" d="M58.9844 15.625C57.2266 15.625 55.957 16.8945 55.5664 18.3594H53.125V6.25C53.125 2.83203 50.293 0 46.875 0H15.625C12.1094 0 9.375 2.83203 9.375 6.25V18.3594H6.83594C6.44531 16.8945 5.17578 15.625 3.51562 15.625C1.5625 15.625 0 17.2852 0 19.1406C0 20.8984 1.5625 22.6562 3.51562 22.6562C5.17578 22.6562 6.44531 21.4844 6.83594 19.9219H9.375V34.375C9.375 37.793 12.1094 40.5273 15.625 40.5273H21.875V48.7305C21.875 49.5117 22.3633 50 23.0469 50C23.2422 50 23.4375 50 23.7305 49.8047L35.9375 40.625H46.875C50.293 40.625 53.125 37.793 53.125 34.375V19.9219H55.5664C55.957 21.4844 57.2266 22.6562 58.9844 22.6562C60.8398 22.6562 62.5 21.0938 62.5 19.1406C62.5 17.0898 60.8398 15.625 58.9844 15.625ZM3.51562 21.0938C2.34375 21.0938 1.5625 20.2148 1.5625 19.1406C1.5625 18.0664 2.34375 17.1875 3.51562 17.1875C4.58984 17.1875 5.46875 18.0664 5.46875 19.1406C5.46875 20.3125 4.58984 21.0938 3.51562 21.0938ZM51.5625 34.375C51.5625 36.9141 49.4141 38.9648 46.875 38.9648H35.3516L23.4375 48.1445V39.1602H15.625C12.9883 39.1602 10.9375 37.0117 10.9375 34.4727V6.25C10.9375 3.71094 12.9883 1.66016 15.625 1.66016H46.875C49.4141 1.66016 51.5625 3.80859 51.5625 6.25V34.375ZM58.9844 21.0938C57.8125 21.0938 57.0312 20.3125 57.0312 19.1406C57.0312 18.0664 57.8125 17.1875 58.9844 17.1875C60.0586 17.1875 60.9375 18.0664 60.9375 19.1406C60.9375 20.3125 60.0586 21.0938 58.9844 21.0938ZM43.75 7.8125H18.75C16.1133 7.8125 14.0625 9.96094 14.0625 12.5V25C14.0625 27.6367 16.1133 29.6875 18.75 29.6875H43.75C46.2891 29.6875 48.4375 27.6367 48.4375 25V12.5C48.4375 9.96094 46.2891 7.8125 43.75 7.8125ZM46.875 25C46.875 26.7578 45.4102 28.125 43.75 28.125H18.75C16.9922 28.125 15.625 26.7578 15.625 25V12.5C15.625 10.8398 16.9922 9.375 18.75 9.375H43.75C45.4102 9.375 46.875 10.8398 46.875 12.5V25ZM21.875 14.8438C19.6289 14.8438 17.9688 16.6016 17.9688 18.75C17.9688 20.9961 19.6289 22.6562 21.875 22.6562C24.0234 22.6562 25.7812 20.9961 25.7812 18.75C25.7812 16.6016 24.0234 14.8438 21.875 14.8438ZM21.875 21.0938C20.5078 21.0938 19.5312 20.1172 19.5312 18.75C19.5312 17.4805 20.5078 16.4062 21.875 16.4062C23.1445 16.4062 24.2188 17.4805 24.2188 18.75C24.2188 20.1172 23.1445 21.0938 21.875 21.0938ZM40.625 14.8438C38.3789 14.8438 36.7188 16.6016 36.7188 18.75C36.7188 20.9961 38.3789 22.6562 40.625 22.6562C42.7734 22.6562 44.5312 20.9961 44.5312 18.75C44.5312 16.6016 42.7734 14.8438 40.625 14.8438ZM40.625 21.0938C39.2578 21.0938 38.2812 20.1172 38.2812 18.75C38.2812 17.4805 39.2578 16.4062 40.625 16.4062C41.8945 16.4062 42.9688 17.4805 42.9688 18.75C42.9688 20.1172 41.8945 21.0938 40.625 21.0938Z" fill="black"/>
</svg>
