<svg width="50" height="41" viewBox="0 0 50 41" fill="none" xmlns="http://www.w3.org/2000/svg">
<path opacity="0.4" d="M3.90625 9.375H2.34375C0.976562 9.375 0 8.39844 0 7.03125V2.34375C0 1.07422 0.976562 0 2.34375 0H7.03125C8.30078 0 9.375 1.07422 9.375 2.34375V7.03125C9.375 8.39844 8.30078 9.375 7.03125 9.375H5.46875V20.3125H12.5V17.9688C12.5 16.6992 13.4766 15.625 14.8438 15.625H19.5312C20.8008 15.625 21.875 16.6992 21.875 17.9688V22.6562C21.875 24.0234 20.8008 25 19.5312 25H14.8438C13.4766 25 12.5 24.0234 12.5 22.6562V21.875H5.46875V33.5938C5.46875 34.9609 6.44531 35.9375 7.8125 35.9375H12.5V33.5938C12.5 32.3242 13.4766 31.25 14.8438 31.25H19.5312C20.8008 31.25 21.875 32.3242 21.875 33.5938V38.2812C21.875 39.6484 20.8008 40.625 19.5312 40.625H14.8438C13.4766 40.625 12.5 39.6484 12.5 38.2812V37.5H7.8125C5.56641 37.5 3.90625 35.8398 3.90625 33.5938V9.375ZM1.5625 2.34375V7.03125C1.5625 7.51953 1.85547 7.8125 2.34375 7.8125H7.03125C7.42188 7.8125 7.8125 7.51953 7.8125 7.03125V2.34375C7.8125 1.95312 7.42188 1.5625 7.03125 1.5625H2.34375C1.85547 1.5625 1.5625 1.95312 1.5625 2.34375ZM14.0625 38.2812C14.0625 38.7695 14.3555 39.0625 14.8438 39.0625H19.5312C19.9219 39.0625 20.3125 38.7695 20.3125 38.2812V33.5938C20.3125 33.2031 19.9219 32.8125 19.5312 32.8125H14.8438C14.3555 32.8125 14.0625 33.2031 14.0625 33.5938V38.2812ZM14.8438 23.4375H19.5312C19.9219 23.4375 20.3125 23.1445 20.3125 22.6562V17.9688C20.3125 17.5781 19.9219 17.1875 19.5312 17.1875H14.8438C14.3555 17.1875 14.0625 17.5781 14.0625 17.9688V22.6562C14.0625 23.1445 14.3555 23.4375 14.8438 23.4375ZM16.4062 4.6875C16.4062 4.29688 16.6992 3.90625 17.1875 3.90625H48.4375C48.8281 3.90625 49.2188 4.29688 49.2188 4.6875C49.2188 5.17578 48.8281 5.46875 48.4375 5.46875H17.1875C16.6992 5.46875 16.4062 5.17578 16.4062 4.6875ZM28.9062 20.3125C28.9062 19.9219 29.1992 19.5312 29.6875 19.5312H48.4375C48.8281 19.5312 49.2188 19.9219 49.2188 20.3125C49.2188 20.8008 48.8281 21.0938 48.4375 21.0938H29.6875C29.1992 21.0938 28.9062 20.8008 28.9062 20.3125ZM28.9062 35.9375C28.9062 35.5469 29.1992 35.1562 29.6875 35.1562H48.4375C48.8281 35.1562 49.2188 35.5469 49.2188 35.9375C49.2188 36.4258 48.8281 36.7188 48.4375 36.7188H29.6875C29.1992 36.7188 28.9062 36.4258 28.9062 35.9375Z" fill="black"/>
</svg>
