<svg width="48" height="50" viewBox="0 0 48 50" fill="none" xmlns="http://www.w3.org/2000/svg">
<path opacity="0.4" d="M15.7734 25C15.7734 20.7031 19.1914 17.1875 23.5859 17.1875C27.8828 17.1875 31.3984 20.7031 31.3984 25C31.3984 29.3945 27.8828 32.8125 23.5859 32.8125C19.1914 32.8125 15.7734 29.3945 15.7734 25ZM23.5859 18.75C20.0703 18.75 17.3359 21.582 17.3359 25C17.3359 28.5156 20.0703 31.25 23.5859 31.25C27.0039 31.25 29.8359 28.5156 29.8359 25C29.8359 21.582 27.0039 18.75 23.5859 18.75ZM40.0898 8.59375C41.457 8.10547 43.0195 8.69141 43.7031 9.96094L46.6328 15.1367C47.414 16.4062 47.1211 17.9688 46.0469 18.9453L42.1406 22.5586C42.2383 23.3398 42.3359 24.2188 42.3359 25C42.3359 25.8789 42.2383 26.7578 42.1406 27.5391L46.0469 31.1523C47.1211 32.1289 47.414 33.6914 46.6328 34.9609L43.7031 40.1367C43.0195 41.4062 41.457 41.9922 40.0898 41.5039L35.0117 39.9414C33.6445 40.918 32.1797 41.6992 30.7148 42.3828L29.543 47.5586C29.25 49.0234 27.9805 50 26.5156 50H20.5586C19.0937 50 17.8242 49.0234 17.5312 47.5586L16.3594 42.3828C14.8945 41.6992 13.4297 40.918 12.0625 39.9414L6.98436 41.5039C5.61717 41.9922 4.05467 41.4062 3.37108 40.1367L0.441389 34.9609C-0.339861 33.6914 -0.0468922 32.1289 1.02733 31.1523L4.93358 27.5391C4.83592 26.7578 4.83592 25.8789 4.83592 25C4.83592 24.2188 4.83592 23.3398 4.93358 22.5586L1.02733 18.9453C-0.0468922 17.9688 -0.339861 16.4062 0.441389 15.1367L3.37108 9.96094C4.05467 8.69141 5.61717 8.10547 6.98436 8.59375L12.0625 10.1562C13.4297 9.17969 14.8945 8.30078 16.3594 7.71484L17.5312 2.53906C17.8242 1.07422 19.0937 0 20.5586 0H26.5156C27.9805 0 29.25 1.07422 29.543 2.53906L30.7148 7.71484C32.1797 8.30078 33.6445 9.17969 35.0117 10.1562L40.0898 8.59375ZM13.039 11.4258L12.3555 11.9141L6.49608 10.0586C5.81248 9.86328 5.12889 10.1562 4.73826 10.7422L1.80858 15.918C1.41795 16.5039 1.51561 17.2852 2.10155 17.7734L6.59373 21.9727L6.49608 22.7539C6.39842 23.5352 6.39842 24.3164 6.39842 25C6.39842 25.7812 6.39842 26.5625 6.49608 27.3438L6.59373 28.125L2.10155 32.2266C1.51561 32.7148 1.41795 33.5938 1.80858 34.1797L4.73826 39.3555C5.12889 39.9414 5.81248 40.2344 6.49608 40.0391L12.3555 38.1836L13.039 38.6719C14.2109 39.5508 15.5781 40.332 16.9453 40.918L17.7265 41.2109L19.0937 47.2656C19.1914 47.9492 19.875 48.4375 20.5586 48.4375H26.5156C27.1992 48.4375 27.8828 47.9492 27.9805 47.2656L29.3476 41.2109L30.1289 40.918C31.4961 40.332 32.8633 39.5508 34.0351 38.6719L34.7187 38.1836L40.5781 40.0391C41.2617 40.2344 41.9453 39.9414 42.3359 39.3555L45.2656 34.1797C45.6562 33.5938 45.5586 32.7148 44.9726 32.2266L40.4804 28.125L40.5781 27.3438C40.6758 26.5625 40.7734 25.7812 40.7734 25C40.7734 24.3164 40.6758 23.5352 40.5781 22.7539L40.4804 21.9727L44.9726 17.7734C45.5586 17.2852 45.6562 16.5039 45.2656 15.918L42.3359 10.7422C41.9453 10.1562 41.2617 9.86328 40.5781 10.0586L34.7187 11.9141L34.0351 11.4258C32.8633 10.5469 31.4961 9.76562 30.1289 9.17969L29.3476 8.88672L27.9805 2.83203C27.8828 2.14844 27.1992 1.5625 26.5156 1.5625H20.5586C19.875 1.5625 19.1914 2.14844 19.0937 2.83203L17.7265 8.88672L16.9453 9.17969C15.5781 9.76562 14.2109 10.5469 13.039 11.4258Z" fill="black"/>
</svg>
