<svg width="50" height="50" viewBox="0 0 50 50" fill="none" xmlns="http://www.w3.org/2000/svg">
<path opacity="0.4" d="M25.293 0.78125C25.5859 0.390625 26.0742 0 26.6602 0C39.5508 0 50 10.4492 50 23.3398C50 24.3164 49.1211 25 48.2422 25H26.5625C25.6836 25 25 24.3164 25 23.4375V1.75781C25 1.36719 25.0977 1.07422 25.293 0.78125ZM48.3398 23.4375C48.3398 23.4375 48.4375 23.4375 48.4375 23.3398C48.4375 11.3281 38.6719 1.5625 26.6602 1.5625C26.5625 1.5625 26.5625 1.66016 26.5625 1.66016V1.75781V23.4375H48.2422H48.3398ZM21.875 28.125H43.457C45.2148 28.125 46.6797 29.6875 46.2891 31.4453C44.043 42.0898 34.668 50 23.4375 50C10.4492 50 0 39.5508 0 26.5625C0 15.332 7.91016 5.95703 18.5547 3.71094C20.3125 3.32031 21.875 4.78516 21.875 6.54297V28.125ZM20.3125 6.54297C20.3125 5.56641 19.5312 5.07812 18.8477 5.17578C8.98438 7.32422 1.5625 16.1133 1.5625 26.5625C1.5625 38.6719 11.3281 48.4375 23.4375 48.4375C33.8867 48.4375 42.6758 41.0156 44.8242 31.1523C44.9219 30.4688 44.4336 29.6875 43.457 29.6875H21.875C20.9961 29.6875 20.3125 29.0039 20.3125 28.125V6.54297Z" fill="black"/>
</svg>
